<ttFont>
    <TTGlyph name="A" xMin="24" yMin="0" xMax="1523" yMax="1528">
      <contour>
        <pt x="34" y="85" on="1"/>
        <pt x="187" y="128" on="1"/>
        <pt x="673" y="1480" on="1"/>
        <pt x="723" y="1506" on="0"/>
        <pt x="857" y="1528" on="1"/>
        <pt x="1356" y="128" on="1"/>
        <pt x="1516" y="94" on="1"/>
        <pt x="1523" y="80" on="1"/>
        <pt x="1509" y="0" on="1"/>
        <pt x="1030" y="0" on="1"/>
        <pt x="1026" y="9" on="1"/>
        <pt x="1035" y="85" on="1"/>
        <pt x="1164" y="128" on="1"/>
        <pt x="1021" y="533" on="1"/>
        <pt x="455" y="533" on="1"/>
        <pt x="319" y="128" on="1"/>
        <pt x="455" y="94" on="1"/>
        <pt x="462" y="80" on="1"/>
        <pt x="448" y="0" on="1"/>
        <pt x="30" y="0" on="1"/>
        <pt x="24" y="9" on="1"/>
      </contour>
      <contour>
        <pt x="979" y="651" on="1"/>
        <pt x="731" y="1317" on="1"/>
        <pt x="496" y="651" on="1"/>
      </contour>
    </TTGlyph>
    <TTGlyph name="AE" xMin="70" yMin="0" xMax="1973" yMax="1492">
      <contour>
        <pt x="80" y="85" on="1"/>
        <pt x="233" y="128" on="1"/>
        <pt x="961" y="1376" on="1"/>
        <pt x="890" y="1393" on="1"/>
        <pt x="883" y="1407" on="1"/>
        <pt x="897" y="1492" on="1"/>
        <pt x="1953" y="1492" on="1"/>
        <pt x="1919" y="1188" on="1"/>
        <pt x="1880" y="1181" on="0"/>
        <pt x="1837" y="1193" on="1"/>
        <pt x="1778" y="1375" on="1"/>
        <pt x="1218" y="1375" on="1"/>
        <pt x="1218" y="821" on="1"/>
        <pt x="1665" y="821" on="1"/>
        <pt x="1715" y="963" on="1"/>
        <pt x="1743" y="970" on="0"/>
        <pt x="1793" y="963" on="1"/>
        <pt x="1793" y="561" on="1"/>
        <pt x="1750" y="554" on="0"/>
        <pt x="1715" y="561" on="1"/>
        <pt x="1665" y="702" on="1"/>
        <pt x="1218" y="702" on="1"/>
        <pt x="1218" y="117" on="1"/>
        <pt x="1802" y="117" on="1"/>
        <pt x="1886" y="360" on="1"/>
        <pt x="1920" y="370" on="0"/>
        <pt x="1964" y="360" on="1"/>
        <pt x="1973" y="0" on="1"/>
        <pt x="881" y="0" on="1"/>
        <pt x="876" y="9" on="1"/>
        <pt x="885" y="85" on="1"/>
        <pt x="1029" y="128" on="1"/>
        <pt x="1029" y="513" on="1"/>
        <pt x="593" y="513" on="1"/>
        <pt x="370" y="128" on="1"/>
        <pt x="506" y="94" on="1"/>
        <pt x="513" y="80" on="1"/>
        <pt x="499" y="0" on="1"/>
        <pt x="76" y="0" on="1"/>
        <pt x="70" y="9" on="1"/>
      </contour>
      <contour>
        <pt x="1029" y="631" on="1"/>
        <pt x="1029" y="1264" on="1"/>
        <pt x="662" y="631" on="1"/>
      </contour>
    </TTGlyph>
    <TTGlyph name="AEacute" xMin="70" yMin="0" xMax="1973" yMax="2019">
      <component glyphName="AE" x="0" y="0" flags="0x1204"/>
      <component glyphName="acute.cap" x="915" y="0" flags="0x1004"/>
    </TTGlyph>
    <TTGlyph name="Aacute" xMin="24" yMin="0" xMax="1523" yMax="2019">
      <component glyphName="A" x="0" y="0" flags="0x1204"/>
      <component glyphName="acute.cap" x="491" y="0" flags="0x1004"/>
    </TTGlyph>
    <TTGlyph name="Abreve" xMin="24" yMin="0" xMax="1523" yMax="1980">
      <component glyphName="A" x="0" y="0" flags="0x1204"/>
      <component glyphName="breve.cap" x="490" y="0" flags="0x1004"/>
    </TTGlyph>
    <TTGlyph name="Acircumflex" xMin="24" yMin="0" xMax="1523" yMax="2017">
      <component glyphName="A" x="0" y="0" flags="0x1204"/>
      <component glyphName="circumflex.cap" x="491" y="0" flags="0x1004"/>
    </TTGlyph>
    <TTGlyph name="Adieresis" xMin="24" yMin="0" xMax="1523" yMax="1939">
      <component glyphName="A" x="0" y="0" flags="0x1204"/>
      <component glyphName="dieresis.cap" x="491" y="0" flags="0x1004"/>
    </TTGlyph>
    <TTGlyph name="Agrave" xMin="24" yMin="0" xMax="1523" yMax="2019">
      <component glyphName="A" x="0" y="0" flags="0x1204"/>
      <component glyphName="grave.cap" x="491" y="0" flags="0x1004"/>
    </TTGlyph>
    <TTGlyph name="Amacron" xMin="24" yMin="0" xMax="1523" yMax="1785">
      <component glyphName="A" x="0" y="0" flags="0x1204"/>
      <component glyphName="macron.cap" x="490" y="0" flags="0x1004"/>
    </TTGlyph>
    <TTGlyph name="Aogonek" xMin="24" yMin="-488" xMax="1523" yMax="1528">
      <contour>
        <pt x="1215" y="-281" on="1"/>
        <pt x="1215" y="-360" on="0"/>
        <pt x="1298" y="-360" on="1"/>
        <pt x="1335" y="-360" on="0"/>
        <pt x="1433" y="-306" on="0"/>
        <pt x="1434" y="-306" on="1"/>
        <pt x="1441" y="-306" on="0"/>
        <pt x="1453" y="-316" on="1"/>
        <pt x="1478" y="-338" on="0"/>
        <pt x="1478" y="-367" on="1"/>
        <pt x="1414" y="-433" on="0"/>
        <pt x="1274" y="-488" on="0"/>
        <pt x="1182" y="-488" on="0"/>
        <pt x="1120" y="-461" on="0"/>
        <pt x="1098" y="-436" on="1"/>
        <pt x="1053" y="-386" on="0"/>
        <pt x="1053" y="-304" on="1"/>
        <pt x="1053" y="-198" on="0"/>
        <pt x="1131" y="-89" on="1"/>
        <pt x="1165" y="-41" on="0"/>
        <pt x="1210" y="0" on="1"/>
        <pt x="1030" y="0" on="1"/>
        <pt x="1026" y="9" on="1"/>
        <pt x="1035" y="85" on="1"/>
        <pt x="1164" y="128" on="1"/>
        <pt x="1021" y="533" on="1"/>
        <pt x="455" y="533" on="1"/>
        <pt x="319" y="128" on="1"/>
        <pt x="455" y="94" on="1"/>
        <pt x="462" y="80" on="1"/>
        <pt x="448" y="0" on="1"/>
        <pt x="30" y="0" on="1"/>
        <pt x="24" y="9" on="1"/>
        <pt x="34" y="85" on="1"/>
        <pt x="187" y="128" on="1"/>
        <pt x="673" y="1480" on="1"/>
        <pt x="723" y="1506" on="0"/>
        <pt x="857" y="1528" on="1"/>
        <pt x="1356" y="128" on="1"/>
        <pt x="1516" y="94" on="1"/>
        <pt x="1523" y="80" on="1"/>
        <pt x="1509" y="0" on="1"/>
        <pt x="1349" y="0" on="1"/>
        <pt x="1276" y="-67" on="0"/>
        <pt x="1236" y="-168" on="1"/>
        <pt x="1215" y="-219" on="0"/>
      </contour>
      <contour>
        <pt x="979" y="651" on="1"/>
        <pt x="731" y="1317" on="1"/>
        <pt x="496" y="651" on="1"/>
      </contour>
    </TTGlyph>
    <TTGlyph name="Aring" xMin="24" yMin="0" xMax="1523" yMax="2022">
      <component glyphName="A" x="0" y="0" flags="0x1204"/>
      <component glyphName="ring.cap" x="491" y="0" flags="0x1004"/>
    </TTGlyph>
    <TTGlyph name="Atilde" xMin="24" yMin="0" xMax="1523" yMax="1988">
      <component glyphName="A" x="0" y="0" flags="0x1204"/>
      <component glyphName="tilde.cap" x="491" y="0" flags="0x1004"/>
    </TTGlyph>
    <TTGlyph name="B" xMin="102" yMin="0" xMax="1246" yMax="1492">
      <contour>
        <pt x="119" y="85" on="1"/>
        <pt x="249" y="128" on="1"/>
        <pt x="249" y="1364" on="1"/>
        <pt x="109" y="1398" on="1"/>
        <pt x="102" y="1411" on="1"/>
        <pt x="116" y="1492" on="1"/>
        <pt x="685" y="1492" on="1"/>
        <pt x="931" y="1492" on="0"/>
        <pt x="1170" y="1316" on="0"/>
        <pt x="1170" y="1131" on="1"/>
        <pt x="1170" y="1020" on="0"/>
        <pt x="1102" y="931" on="1"/>
        <pt x="1033" y="841" on="0"/>
        <pt x="923" y="825" on="1"/>
        <pt x="923" y="813" on="1"/>
        <pt x="1246" y="764" on="0"/>
        <pt x="1246" y="431" on="1"/>
        <pt x="1246" y="281" on="0"/>
        <pt x="1158" y="176" on="1"/>
        <pt x="1044" y="42" on="0"/>
        <pt x="816" y="10" on="1"/>
        <pt x="750" y="0" on="0"/>
        <pt x="687" y="0" on="1"/>
        <pt x="114" y="0" on="1"/>
        <pt x="109" y="9" on="1"/>
      </contour>
      <contour>
        <pt x="640" y="1376" on="1"/>
        <pt x="539" y="1376" on="0"/>
        <pt x="436" y="1356" on="1"/>
        <pt x="436" y="828" on="1"/>
        <pt x="541" y="834" on="1"/>
        <pt x="646" y="838" on="1"/>
        <pt x="705" y="841" on="0"/>
        <pt x="788" y="841" on="0"/>
        <pt x="858" y="874" on="0"/>
        <pt x="891" y="908" on="1"/>
        <pt x="972" y="991" on="0"/>
        <pt x="972" y="1120" on="1"/>
        <pt x="972" y="1376" on="0"/>
      </contour>
      <contour>
        <pt x="840" y="712" on="1"/>
        <pt x="771" y="733" on="0"/>
        <pt x="606" y="733" on="0"/>
        <pt x="436" y="718" on="1"/>
        <pt x="436" y="144" on="1"/>
        <pt x="522" y="113" on="0"/>
        <pt x="750" y="113" on="0"/>
        <pt x="893" y="152" on="0"/>
        <pt x="943" y="192" on="1"/>
        <pt x="1047" y="275" on="0"/>
        <pt x="1047" y="431" on="1"/>
        <pt x="1047" y="649" on="0"/>
      </contour>
    </TTGlyph>
    <TTGlyph name="C" xMin="78" yMin="-36" xMax="1352" yMax="1508">
      <contour>
        <pt x="1276" y="1081" on="1"/>
        <pt x="1220" y="1081" on="0"/>
        <pt x="1189" y="1092" on="1"/>
        <pt x="1189" y="1220" on="0"/>
        <pt x="1178" y="1275" on="1"/>
        <pt x="1107" y="1326" on="0"/>
        <pt x="873" y="1371" on="0"/>
        <pt x="662" y="1371" on="0"/>
        <pt x="489" y="1293" on="0"/>
        <pt x="424" y="1217" on="1"/>
        <pt x="283" y="1052" on="0"/>
        <pt x="283" y="776" on="1"/>
        <pt x="283" y="448" on="0"/>
        <pt x="461" y="260" on="1"/>
        <pt x="620" y="92" on="0"/>
        <pt x="852" y="92" on="1"/>
        <pt x="1048" y="92" on="0"/>
        <pt x="1196" y="204" on="1"/>
        <pt x="1209" y="249" on="0"/>
        <pt x="1213" y="398" on="1"/>
        <pt x="1227" y="403" on="0"/>
        <pt x="1242" y="406" on="1"/>
        <pt x="1269" y="410" on="1"/>
        <pt x="1283" y="412" on="0"/>
        <pt x="1297" y="412" on="1"/>
        <pt x="1352" y="99" on="1"/>
        <pt x="1225" y="23" on="0"/>
        <pt x="1028" y="-16" on="1"/>
        <pt x="925" y="-36" on="0"/>
        <pt x="683" y="-36" on="0"/>
        <pt x="491" y="18" on="0"/>
        <pt x="332" y="115" on="0"/>
        <pt x="208" y="250" on="0"/>
        <pt x="166" y="332" on="1"/>
        <pt x="78" y="499" on="0"/>
        <pt x="78" y="867" on="0"/>
        <pt x="191" y="1164" on="0"/>
        <pt x="395" y="1383" on="0"/>
        <pt x="680" y="1508" on="0"/>
        <pt x="823" y="1508" on="1"/>
        <pt x="1141" y="1508" on="0"/>
        <pt x="1350" y="1400" on="1"/>
      </contour>
    </TTGlyph>
    <TTGlyph name="Cacute" xMin="78" yMin="-36" xMax="1352" yMax="2019">
      <component glyphName="C" x="0" y="0" flags="0x1204"/>
      <component glyphName="acute.cap" x="574" y="0" flags="0x1004"/>
    </TTGlyph>
    <TTGlyph name="Ccaron" xMin="78" yMin="-36" xMax="1352" yMax="2018">
      <component glyphName="C" x="0" y="0" flags="0x1204"/>
      <component glyphName="caron.cap" x="574" y="0" flags="0x1004"/>
    </TTGlyph>
    <TTGlyph name="Ccedilla" xMin="78" yMin="-530" xMax="1352" yMax="1508">
      <contour>
        <pt x="703" y="-218" on="1"/>
        <pt x="678" y="-204" on="0"/>
        <pt x="657" y="-163" on="1"/>
        <pt x="713" y="-32" on="1"/>
        <pt x="425" y="-5" on="0"/>
        <pt x="247" y="208" on="1"/>
        <pt x="78" y="410" on="0"/>
        <pt x="78" y="695" on="1"/>
        <pt x="78" y="867" on="0"/>
        <pt x="191" y="1164" on="0"/>
        <pt x="395" y="1383" on="0"/>
        <pt x="680" y="1508" on="0"/>
        <pt x="823" y="1508" on="1"/>
        <pt x="1141" y="1508" on="0"/>
        <pt x="1350" y="1400" on="1"/>
        <pt x="1276" y="1081" on="1"/>
        <pt x="1220" y="1081" on="0"/>
        <pt x="1189" y="1092" on="1"/>
        <pt x="1189" y="1220" on="0"/>
        <pt x="1178" y="1275" on="1"/>
        <pt x="1107" y="1326" on="0"/>
        <pt x="873" y="1371" on="0"/>
        <pt x="662" y="1371" on="0"/>
        <pt x="489" y="1293" on="0"/>
        <pt x="424" y="1217" on="1"/>
        <pt x="283" y="1052" on="0"/>
        <pt x="283" y="776" on="1"/>
        <pt x="283" y="448" on="0"/>
        <pt x="461" y="260" on="1"/>
        <pt x="620" y="92" on="0"/>
        <pt x="852" y="92" on="1"/>
        <pt x="1048" y="92" on="0"/>
        <pt x="1196" y="204" on="1"/>
        <pt x="1209" y="249" on="0"/>
        <pt x="1213" y="398" on="1"/>
        <pt x="1227" y="403" on="0"/>
        <pt x="1242" y="406" on="1"/>
        <pt x="1269" y="410" on="1"/>
        <pt x="1283" y="412" on="0"/>
        <pt x="1297" y="412" on="1"/>
        <pt x="1352" y="99" on="1"/>
        <pt x="1250" y="38" on="0"/>
        <pt x="982" y="-28" on="0"/>
        <pt x="867" y="-34" on="1"/>
        <pt x="837" y="-121" on="1"/>
        <pt x="886" y="-103" on="0"/>
        <pt x="923" y="-106" on="1"/>
        <pt x="996" y="-111" on="0"/>
        <pt x="1071" y="-210" on="0"/>
        <pt x="1063" y="-342" on="0"/>
        <pt x="996" y="-429" on="0"/>
        <pt x="944" y="-462" on="1"/>
        <pt x="836" y="-530" on="0"/>
        <pt x="695" y="-530" on="1"/>
        <pt x="684" y="-517" on="0"/>
        <pt x="683" y="-461" on="0"/>
        <pt x="685" y="-442" on="1"/>
        <pt x="784" y="-438" on="0"/>
        <pt x="840" y="-398" on="1"/>
        <pt x="918" y="-345" on="0"/>
        <pt x="898" y="-255" on="1"/>
        <pt x="882" y="-186" on="0"/>
        <pt x="737" y="-186" on="0"/>
      </contour>
    </TTGlyph>
    <TTGlyph name="Ccircumflex" xMin="78" yMin="-36" xMax="1352" yMax="2017">
      <component glyphName="C" x="0" y="0" flags="0x1204"/>
      <component glyphName="circumflex.cap" x="574" y="0" flags="0x1004"/>
    </TTGlyph>
    <TTGlyph name="Cdotaccent" xMin="78" yMin="-36" xMax="1352" yMax="1875">
      <component glyphName="C" x="0" y="0" flags="0x1204"/>
      <component glyphName="dotaccent.cap" x="575" y="0" flags="0x1004"/>
    </TTGlyph>
    <TTGlyph name="D" xMin="38" yMin="0" xMax="1398" yMax="1492">
      <contour>
        <pt x="48" y="85" on="1"/>
        <pt x="196" y="128" on="1"/>
        <pt x="196" y="1353" on="1"/>
        <pt x="52" y="1391" on="1"/>
        <pt x="45" y="1405" on="1"/>
        <pt x="59" y="1492" on="1"/>
        <pt x="704" y="1492" on="1"/>
        <pt x="1022" y="1492" on="0"/>
        <pt x="1211" y="1288" on="1"/>
        <pt x="1398" y="1085" on="0"/>
        <pt x="1398" y="750" on="1"/>
        <pt x="1398" y="427" on="0"/>
        <pt x="1176" y="211" on="1"/>
        <pt x="959" y="0" on="0"/>
        <pt x="644" y="0" on="1"/>
        <pt x="43" y="0" on="1"/>
        <pt x="38" y="9" on="1"/>
      </contour>
      <contour>
        <pt x="628" y="1375" on="1"/>
        <pt x="512" y="1375" on="0"/>
        <pt x="380" y="1353" on="1"/>
        <pt x="380" y="153" on="1"/>
        <pt x="518" y="130" on="0"/>
        <pt x="797" y="130" on="0"/>
        <pt x="986" y="199" on="0"/>
        <pt x="1054" y="269" on="1"/>
        <pt x="1196" y="417" on="0"/>
        <pt x="1196" y="694" on="1"/>
        <pt x="1196" y="1020" on="0"/>
        <pt x="1028" y="1204" on="1"/>
        <pt x="873" y="1375" on="0"/>
      </contour>
    </TTGlyph>
    <TTGlyph name="Dcaron" xMin="38" yMin="0" xMax="1398" yMax="2018">
      <component glyphName="D" x="0" y="0" flags="0x1204"/>
      <component glyphName="caron.cap" x="494" y="0" flags="0x1004"/>
    </TTGlyph>
    <TTGlyph name="Dcroat" xMin="-11" yMin="0" xMax="1398" yMax="1492">
      <contour>
        <pt x="48" y="85" on="1"/>
        <pt x="196" y="128" on="1"/>
        <pt x="196" y="688" on="1"/>
        <pt x="10" y="688" on="1"/>
        <pt x="-11" y="750" on="0"/>
        <pt x="24" y="805" on="1"/>
        <pt x="196" y="805" on="1"/>
        <pt x="196" y="1353" on="1"/>
        <pt x="52" y="1391" on="1"/>
        <pt x="45" y="1405" on="1"/>
        <pt x="59" y="1492" on="1"/>
        <pt x="704" y="1492" on="1"/>
        <pt x="1022" y="1492" on="0"/>
        <pt x="1211" y="1288" on="1"/>
        <pt x="1398" y="1085" on="0"/>
        <pt x="1398" y="750" on="1"/>
        <pt x="1398" y="427" on="0"/>
        <pt x="1176" y="211" on="1"/>
        <pt x="959" y="0" on="0"/>
        <pt x="644" y="0" on="1"/>
        <pt x="43" y="0" on="1"/>
        <pt x="38" y="9" on="1"/>
      </contour>
      <contour>
        <pt x="628" y="1375" on="1"/>
        <pt x="512" y="1375" on="0"/>
        <pt x="380" y="1353" on="1"/>
        <pt x="380" y="805" on="1"/>
        <pt x="751" y="805" on="1"/>
        <pt x="764" y="744" on="0"/>
        <pt x="738" y="688" on="1"/>
        <pt x="380" y="688" on="1"/>
        <pt x="380" y="153" on="1"/>
        <pt x="518" y="130" on="0"/>
        <pt x="797" y="130" on="0"/>
        <pt x="986" y="199" on="0"/>
        <pt x="1054" y="269" on="1"/>
        <pt x="1196" y="417" on="0"/>
        <pt x="1196" y="694" on="1"/>
        <pt x="1196" y="1020" on="0"/>
        <pt x="1028" y="1204" on="1"/>
        <pt x="873" y="1375" on="0"/>
      </contour>
    </TTGlyph>
    <TTGlyph name="Delta" xMin="202" yMin="1" xMax="1675" yMax="1516">
      <contour>
        <pt x="890" y="1516" on="1"/>
        <pt x="922" y="1516" on="1"/>
        <pt x="1675" y="27" on="1"/>
        <pt x="1659" y="1" on="1"/>
        <pt x="216" y="1" on="1"/>
        <pt x="202" y="22" on="1"/>
      </contour>
      <contour>
        <pt x="1409" y="120" on="1"/>
        <pt x="869" y="1213" on="1"/>
        <pt x="371" y="120" on="1"/>
      </contour>
    </TTGlyph>
    <TTGlyph name="E" xMin="87" yMin="0" xMax="1184" yMax="1492">
      <contour>
        <pt x="96" y="85" on="1"/>
        <pt x="240" y="128" on="1"/>
        <pt x="240" y="1360" on="1"/>
        <pt x="101" y="1393" on="1"/>
        <pt x="94" y="1407" on="1"/>
        <pt x="108" y="1492" on="1"/>
        <pt x="1144" y="1492" on="1"/>
        <pt x="1110" y="1188" on="1"/>
        <pt x="1073" y="1181" on="0"/>
        <pt x="1027" y="1193" on="1"/>
        <pt x="969" y="1375" on="1"/>
        <pt x="429" y="1375" on="1"/>
        <pt x="429" y="821" on="1"/>
        <pt x="836" y="821" on="1"/>
        <pt x="886" y="963" on="1"/>
        <pt x="914" y="970" on="0"/>
        <pt x="963" y="963" on="1"/>
        <pt x="963" y="561" on="1"/>
        <pt x="920" y="554" on="0"/>
        <pt x="886" y="561" on="1"/>
        <pt x="836" y="702" on="1"/>
        <pt x="429" y="702" on="1"/>
        <pt x="429" y="117" on="1"/>
        <pt x="1012" y="117" on="1"/>
        <pt x="1097" y="360" on="1"/>
        <pt x="1131" y="370" on="0"/>
        <pt x="1175" y="360" on="1"/>
        <pt x="1184" y="0" on="1"/>
        <pt x="92" y="0" on="1"/>
        <pt x="87" y="9" on="1"/>
      </contour>
    </TTGlyph>
    <TTGlyph name="Eacute" xMin="87" yMin="0" xMax="1184" yMax="2019">
      <component glyphName="E" x="0" y="0" flags="0x1204"/>
      <component glyphName="acute.cap" x="440" y="0" flags="0x1004"/>
    </TTGlyph>
    <TTGlyph name="Ebreve" xMin="87" yMin="0" xMax="1184" yMax="1980">
      <component glyphName="E" x="0" y="0" flags="0x1204"/>
      <component glyphName="breve.cap" x="439" y="0" flags="0x1004"/>
    </TTGlyph>
    <TTGlyph name="Ecaron" xMin="87" yMin="0" xMax="1184" yMax="2018">
      <component glyphName="E" x="0" y="0" flags="0x1204"/>
      <component glyphName="caron.cap" x="440" y="0" flags="0x1004"/>
    </TTGlyph>
    <TTGlyph name="Ecircumflex" xMin="87" yMin="0" xMax="1184" yMax="2017">
      <component glyphName="E" x="0" y="0" flags="0x1204"/>
      <component glyphName="circumflex.cap" x="440" y="0" flags="0x1004"/>
    </TTGlyph>
    <TTGlyph name="Edieresis" xMin="87" yMin="0" xMax="1184" yMax="1939">
      <component glyphName="E" x="0" y="0" flags="0x1204"/>
      <component glyphName="dieresis.cap" x="440" y="0" flags="0x1004"/>
    </TTGlyph>
    <TTGlyph name="Edotaccent" xMin="87" yMin="0" xMax="1184" yMax="1875">
      <component glyphName="E" x="0" y="0" flags="0x1204"/>
      <component glyphName="dotaccent.cap" x="441" y="0" flags="0x1004"/>
    </TTGlyph>
    <TTGlyph name="Egrave" xMin="87" yMin="0" xMax="1184" yMax="2019">
      <component glyphName="E" x="0" y="0" flags="0x1204"/>
      <component glyphName="grave.cap" x="440" y="0" flags="0x1004"/>
    </TTGlyph>
    <TTGlyph name="Emacron" xMin="87" yMin="0" xMax="1184" yMax="1785">
      <component glyphName="E" x="0" y="0" flags="0x1204"/>
      <component glyphName="macron.cap" x="439" y="0" flags="0x1004"/>
    </TTGlyph>
    <TTGlyph name="Eng" xMin="89" yMin="-488" xMax="1618" yMax="1472">
      <contour>
        <pt x="110" y="85" on="1"/>
        <pt x="263" y="128" on="1"/>
        <pt x="263" y="1347" on="1"/>
        <pt x="96" y="1378" on="1"/>
        <pt x="89" y="1391" on="1"/>
        <pt x="103" y="1472" on="1"/>
        <pt x="433" y="1472" on="1"/>
        <pt x="1366" y="351" on="1"/>
        <pt x="1366" y="1342" on="1"/>
        <pt x="1195" y="1378" on="1"/>
        <pt x="1189" y="1391" on="1"/>
        <pt x="1202" y="1472" on="1"/>
        <pt x="1613" y="1472" on="1"/>
        <pt x="1618" y="1463" on="1"/>
        <pt x="1608" y="1387" on="1"/>
        <pt x="1483" y="1344" on="1"/>
        <pt x="1483" y="40" on="1"/>
        <pt x="1483" y="-226" on="0"/>
        <pt x="1274" y="-393" on="1"/>
        <pt x="1208" y="-446" on="0"/>
        <pt x="1121" y="-488" on="1"/>
        <pt x="1091" y="-460" on="0"/>
        <pt x="1087" y="-402" on="1"/>
        <pt x="1167" y="-369" on="0"/>
        <pt x="1226" y="-266" on="1"/>
        <pt x="1294" y="-148" on="0"/>
        <pt x="1294" y="2" on="1"/>
        <pt x="1294" y="122" on="1"/>
        <pt x="381" y="1232" on="1"/>
        <pt x="381" y="128" on="1"/>
        <pt x="517" y="94" on="1"/>
        <pt x="524" y="80" on="1"/>
        <pt x="510" y="0" on="1"/>
        <pt x="105" y="0" on="1"/>
        <pt x="101" y="9" on="1"/>
      </contour>
    </TTGlyph>
    <TTGlyph name="Eogonek" xMin="87" yMin="-488" xMax="1184" yMax="1492">
      <contour>
        <pt x="920" y="-281" on="1"/>
        <pt x="920" y="-360" on="0"/>
        <pt x="1003" y="-360" on="1"/>
        <pt x="1040" y="-360" on="0"/>
        <pt x="1138" y="-306" on="0"/>
        <pt x="1139" y="-306" on="1"/>
        <pt x="1146" y="-306" on="0"/>
        <pt x="1158" y="-316" on="1"/>
        <pt x="1183" y="-338" on="0"/>
        <pt x="1183" y="-367" on="1"/>
        <pt x="1119" y="-433" on="0"/>
        <pt x="979" y="-488" on="0"/>
        <pt x="887" y="-488" on="0"/>
        <pt x="825" y="-461" on="0"/>
        <pt x="803" y="-436" on="1"/>
        <pt x="758" y="-386" on="0"/>
        <pt x="758" y="-304" on="1"/>
        <pt x="758" y="-198" on="0"/>
        <pt x="862" y="-89" on="1"/>
        <pt x="908" y="-41" on="0"/>
        <pt x="967" y="0" on="1"/>
        <pt x="92" y="0" on="1"/>
        <pt x="87" y="9" on="1"/>
        <pt x="96" y="85" on="1"/>
        <pt x="240" y="128" on="1"/>
        <pt x="240" y="1360" on="1"/>
        <pt x="101" y="1393" on="1"/>
        <pt x="94" y="1407" on="1"/>
        <pt x="108" y="1492" on="1"/>
        <pt x="1144" y="1492" on="1"/>
        <pt x="1110" y="1188" on="1"/>
        <pt x="1073" y="1181" on="0"/>
        <pt x="1027" y="1193" on="1"/>
        <pt x="969" y="1375" on="1"/>
        <pt x="429" y="1375" on="1"/>
        <pt x="429" y="821" on="1"/>
        <pt x="836" y="821" on="1"/>
        <pt x="886" y="963" on="1"/>
        <pt x="914" y="970" on="0"/>
        <pt x="963" y="963" on="1"/>
        <pt x="963" y="561" on="1"/>
        <pt x="920" y="554" on="0"/>
        <pt x="886" y="561" on="1"/>
        <pt x="836" y="702" on="1"/>
        <pt x="429" y="702" on="1"/>
        <pt x="429" y="117" on="1"/>
        <pt x="1012" y="117" on="1"/>
        <pt x="1097" y="360" on="1"/>
        <pt x="1131" y="370" on="0"/>
        <pt x="1175" y="360" on="1"/>
        <pt x="1184" y="0" on="1"/>
        <pt x="1105" y="0" on="1"/>
        <pt x="1067" y="-19" on="0"/>
        <pt x="986" y="-107" on="0"/>
        <pt x="966" y="-138" on="1"/>
        <pt x="920" y="-209" on="0"/>
      </contour>
    </TTGlyph>
    <TTGlyph name="Eth" xMin="-7" yMin="0" xMax="1388" yMax="1492">
      <contour>
        <pt x="18" y="85" on="1"/>
        <pt x="166" y="128" on="1"/>
        <pt x="166" y="688" on="1"/>
        <pt x="14" y="688" on="1"/>
        <pt x="-7" y="750" on="0"/>
        <pt x="28" y="805" on="1"/>
        <pt x="166" y="805" on="1"/>
        <pt x="166" y="1353" on="1"/>
        <pt x="22" y="1391" on="1"/>
        <pt x="15" y="1405" on="1"/>
        <pt x="29" y="1492" on="1"/>
        <pt x="694" y="1492" on="1"/>
        <pt x="1012" y="1492" on="0"/>
        <pt x="1201" y="1288" on="1"/>
        <pt x="1388" y="1085" on="0"/>
        <pt x="1388" y="750" on="1"/>
        <pt x="1388" y="427" on="0"/>
        <pt x="1166" y="211" on="1"/>
        <pt x="949" y="0" on="0"/>
        <pt x="634" y="0" on="1"/>
        <pt x="13" y="0" on="1"/>
        <pt x="8" y="9" on="1"/>
      </contour>
      <contour>
        <pt x="610" y="1375" on="1"/>
        <pt x="486" y="1375" on="0"/>
        <pt x="350" y="1353" on="1"/>
        <pt x="350" y="805" on="1"/>
        <pt x="756" y="805" on="1"/>
        <pt x="768" y="743" on="0"/>
        <pt x="742" y="688" on="1"/>
        <pt x="350" y="688" on="1"/>
        <pt x="350" y="153" on="1"/>
        <pt x="488" y="130" on="0"/>
        <pt x="787" y="130" on="0"/>
        <pt x="976" y="199" on="0"/>
        <pt x="1044" y="269" on="1"/>
        <pt x="1186" y="417" on="0"/>
        <pt x="1186" y="694" on="1"/>
        <pt x="1186" y="1020" on="0"/>
        <pt x="1018" y="1204" on="1"/>
        <pt x="863" y="1375" on="0"/>
      </contour>
    </TTGlyph>
    <TTGlyph name="Euro" xMin="66" yMin="-36" xMax="1299" yMax="1508">
      <contour>
        <pt x="996" y="667" on="1"/>
        <pt x="996" y="620" on="0"/>
        <pt x="964" y="584" on="1"/>
        <pt x="455" y="584" on="1"/>
        <pt x="491" y="353" on="0"/>
        <pt x="621" y="218" on="1"/>
        <pt x="739" y="94" on="0"/>
        <pt x="893" y="94" on="1"/>
        <pt x="988" y="94" on="0"/>
        <pt x="1075" y="147" on="1"/>
        <pt x="1114" y="170" on="0"/>
        <pt x="1143" y="200" on="1"/>
        <pt x="1157" y="246" on="0"/>
        <pt x="1160" y="375" on="1"/>
        <pt x="1175" y="380" on="0"/>
        <pt x="1190" y="382" on="1"/>
        <pt x="1217" y="387" on="1"/>
        <pt x="1231" y="389" on="0"/>
        <pt x="1244" y="389" on="1"/>
        <pt x="1299" y="76" on="1"/>
        <pt x="1100" y="-36" on="0"/>
        <pt x="811" y="-36" on="1"/>
        <pt x="572" y="-36" on="0"/>
        <pt x="416" y="144" on="1"/>
        <pt x="266" y="317" on="0"/>
        <pt x="241" y="584" on="1"/>
        <pt x="68" y="584" on="1"/>
        <pt x="66" y="615" on="1"/>
        <pt x="71" y="638" on="0"/>
        <pt x="86" y="657" on="1"/>
        <pt x="236" y="695" on="1"/>
        <pt x="236" y="746" on="0"/>
        <pt x="241" y="784" on="1"/>
        <pt x="68" y="784" on="1"/>
        <pt x="66" y="815" on="1"/>
        <pt x="71" y="838" on="0"/>
        <pt x="86" y="857" on="1"/>
        <pt x="255" y="897" on="1"/>
        <pt x="310" y="1168" on="0"/>
        <pt x="478" y="1334" on="1"/>
        <pt x="653" y="1508" on="0"/>
        <pt x="893" y="1508" on="1"/>
        <pt x="1035" y="1508" on="0"/>
        <pt x="1169" y="1465" on="1"/>
        <pt x="1227" y="1447" on="0"/>
        <pt x="1272" y="1423" on="1"/>
        <pt x="1200" y="1105" on="1"/>
        <pt x="1157" y="1102" on="0"/>
        <pt x="1113" y="1117" on="1"/>
        <pt x="1111" y="1182" on="1"/>
        <pt x="1109" y="1209" on="0"/>
        <pt x="1106" y="1268" on="0"/>
        <pt x="1101" y="1288" on="1"/>
        <pt x="1000" y="1371" on="0"/>
        <pt x="776" y="1371" on="1"/>
        <pt x="654" y="1371" on="0"/>
        <pt x="564" y="1245" on="1"/>
        <pt x="470" y="1114" on="0"/>
        <pt x="446" y="888" on="1"/>
        <pt x="566" y="888" on="0"/>
        <pt x="1011" y="902" on="1"/>
        <pt x="1018" y="881" on="0"/>
        <pt x="1018" y="867" on="1"/>
        <pt x="1018" y="821" on="0"/>
        <pt x="985" y="784" on="1"/>
        <pt x="441" y="784" on="1"/>
        <pt x="441" y="724" on="1"/>
        <pt x="441" y="705" on="0"/>
        <pt x="443" y="688" on="1"/>
        <pt x="500" y="688" on="0"/>
        <pt x="566" y="690" on="1"/>
        <pt x="769" y="694" on="1"/>
        <pt x="874" y="697" on="0"/>
        <pt x="990" y="701" on="1"/>
        <pt x="996" y="677" on="0"/>
      </contour>
    </TTGlyph>
    <TTGlyph name="F" xMin="107" yMin="0" xMax="1204" yMax="1492">
      <contour>
        <pt x="116" y="85" on="1"/>
        <pt x="260" y="128" on="1"/>
        <pt x="260" y="1364" on="1"/>
        <pt x="121" y="1398" on="1"/>
        <pt x="114" y="1411" on="1"/>
        <pt x="128" y="1492" on="1"/>
        <pt x="1204" y="1492" on="1"/>
        <pt x="1170" y="1188" on="1"/>
        <pt x="1133" y="1181" on="0"/>
        <pt x="1087" y="1193" on="1"/>
        <pt x="1029" y="1375" on="1"/>
        <pt x="449" y="1375" on="1"/>
        <pt x="449" y="783" on="1"/>
        <pt x="876" y="783" on="1"/>
        <pt x="921" y="920" on="1"/>
        <pt x="960" y="926" on="0"/>
        <pt x="998" y="920" on="1"/>
        <pt x="998" y="531" on="1"/>
        <pt x="956" y="519" on="0"/>
        <pt x="921" y="531" on="1"/>
        <pt x="871" y="664" on="1"/>
        <pt x="449" y="664" on="1"/>
        <pt x="449" y="128" on="1"/>
        <pt x="665" y="94" on="1"/>
        <pt x="672" y="80" on="1"/>
        <pt x="658" y="0" on="1"/>
        <pt x="112" y="0" on="1"/>
        <pt x="107" y="9" on="1"/>
      </contour>
    </TTGlyph>
    <TTGlyph name="G" xMin="78" yMin="-36" xMax="1441" yMax="1508">
      <contour>
        <pt x="127" y="399" on="0"/>
        <pt x="78" y="582" on="0"/>
        <pt x="78" y="801" on="0"/>
        <pt x="129" y="1017" on="0"/>
        <pt x="223" y="1201" on="0"/>
        <pt x="358" y="1348" on="0"/>
        <pt x="442" y="1400" on="1"/>
        <pt x="618" y="1508" on="0"/>
        <pt x="836" y="1508" on="1"/>
        <pt x="1038" y="1508" on="0"/>
        <pt x="1208" y="1454" on="1"/>
        <pt x="1306" y="1422" on="0"/>
        <pt x="1362" y="1387" on="1"/>
        <pt x="1290" y="1083" on="1"/>
        <pt x="1250" y="1076" on="0"/>
        <pt x="1209" y="1095" on="1"/>
        <pt x="1209" y="1127" on="0"/>
        <pt x="1207" y="1156" on="1"/>
        <pt x="1203" y="1212" on="1"/>
        <pt x="1201" y="1240" on="0"/>
        <pt x="1196" y="1260" on="1"/>
        <pt x="1146" y="1328" on="0"/>
        <pt x="902" y="1361" on="1"/>
        <pt x="829" y="1371" on="0"/>
        <pt x="664" y="1371" on="0"/>
        <pt x="495" y="1291" on="0"/>
        <pt x="429" y="1212" on="1"/>
        <pt x="283" y="1039" on="0"/>
        <pt x="283" y="747" on="1"/>
        <pt x="283" y="451" on="0"/>
        <pt x="462" y="264" on="1"/>
        <pt x="566" y="154" on="0"/>
        <pt x="702" y="114" on="1"/>
        <pt x="767" y="94" on="0"/>
        <pt x="898" y="94" on="0"/>
        <pt x="1013" y="115" on="0"/>
        <pt x="1060" y="132" on="1"/>
        <pt x="1147" y="162" on="0"/>
        <pt x="1206" y="212" on="1"/>
        <pt x="1206" y="558" on="1"/>
        <pt x="897" y="589" on="1"/>
        <pt x="897" y="681" on="1"/>
        <pt x="1441" y="681" on="1"/>
        <pt x="1441" y="600" on="1"/>
        <pt x="1394" y="570" on="1"/>
        <pt x="1394" y="151" on="1"/>
        <pt x="1236" y="7" on="0"/>
        <pt x="943" y="-28" on="1"/>
        <pt x="876" y="-36" on="0"/>
        <pt x="695" y="-36" on="0"/>
        <pt x="507" y="15" on="0"/>
        <pt x="347" y="109" on="0"/>
        <pt x="218" y="239" on="0"/>
      </contour>
    </TTGlyph>
    <TTGlyph name="Gbreve" xMin="78" yMin="-36" xMax="1441" yMax="1980">
      <component glyphName="G" x="0" y="0" flags="0x1204"/>
      <component glyphName="breve.cap" x="482" y="0" flags="0x1004"/>
    </TTGlyph>
    <TTGlyph name="Gcircumflex" xMin="78" yMin="-36" xMax="1441" yMax="2017">
      <component glyphName="G" x="0" y="0" flags="0x1204"/>
      <component glyphName="circumflex.cap" x="483" y="0" flags="0x1004"/>
    </TTGlyph>
    <TTGlyph name="Gcommaaccent" xMin="78" yMin="-534" xMax="1441" yMax="1508">
      <component glyphName="G" x="0" y="0" flags="0x1204"/>
      <component glyphName="commaaccent" x="430" y="0" flags="0x1004"/>
    </TTGlyph>
    <TTGlyph name="Gdotaccent" xMin="78" yMin="-36" xMax="1441" yMax="1875">
      <component glyphName="G" x="0" y="0" flags="0x1204"/>
      <component glyphName="dotaccent.cap" x="484" y="0" flags="0x1004"/>
    </TTGlyph>
    <TTGlyph name="H" xMin="48" yMin="0" xMax="1494" yMax="1492">
      <contour>
        <pt x="58" y="85" on="1"/>
        <pt x="201" y="128" on="1"/>
        <pt x="201" y="1364" on="1"/>
        <pt x="62" y="1398" on="1"/>
        <pt x="55" y="1411" on="1"/>
        <pt x="69" y="1492" on="1"/>
        <pt x="545" y="1492" on="1"/>
        <pt x="550" y="1483" on="1"/>
        <pt x="541" y="1407" on="1"/>
        <pt x="390" y="1364" on="1"/>
        <pt x="390" y="815" on="1"/>
        <pt x="1146" y="815" on="1"/>
        <pt x="1146" y="1364" on="1"/>
        <pt x="1006" y="1398" on="1"/>
        <pt x="999" y="1411" on="1"/>
        <pt x="1014" y="1492" on="1"/>
        <pt x="1489" y="1492" on="1"/>
        <pt x="1494" y="1483" on="1"/>
        <pt x="1485" y="1407" on="1"/>
        <pt x="1334" y="1364" on="1"/>
        <pt x="1334" y="128" on="1"/>
        <pt x="1480" y="94" on="1"/>
        <pt x="1487" y="80" on="1"/>
        <pt x="1473" y="0" on="1"/>
        <pt x="997" y="0" on="1"/>
        <pt x="993" y="9" on="1"/>
        <pt x="1002" y="85" on="1"/>
        <pt x="1146" y="128" on="1"/>
        <pt x="1146" y="698" on="1"/>
        <pt x="390" y="698" on="1"/>
        <pt x="390" y="128" on="1"/>
        <pt x="536" y="94" on="1"/>
        <pt x="543" y="80" on="1"/>
        <pt x="528" y="0" on="1"/>
        <pt x="53" y="0" on="1"/>
        <pt x="48" y="9" on="1"/>
      </contour>
    </TTGlyph>
    <TTGlyph name="Hbar" xMin="56" yMin="0" xMax="1641" yMax="1492">
      <contour>
        <pt x="147" y="85" on="1"/>
        <pt x="290" y="128" on="1"/>
        <pt x="290" y="1020" on="1"/>
        <pt x="77" y="1020" on="1"/>
        <pt x="56" y="1082" on="0"/>
        <pt x="91" y="1137" on="1"/>
        <pt x="290" y="1137" on="1"/>
        <pt x="290" y="1364" on="1"/>
        <pt x="151" y="1398" on="1"/>
        <pt x="144" y="1411" on="1"/>
        <pt x="158" y="1492" on="1"/>
        <pt x="634" y="1492" on="1"/>
        <pt x="639" y="1483" on="1"/>
        <pt x="630" y="1407" on="1"/>
        <pt x="479" y="1364" on="1"/>
        <pt x="479" y="1137" on="1"/>
        <pt x="1235" y="1137" on="1"/>
        <pt x="1235" y="1364" on="1"/>
        <pt x="1095" y="1398" on="1"/>
        <pt x="1088" y="1411" on="1"/>
        <pt x="1103" y="1492" on="1"/>
        <pt x="1578" y="1492" on="1"/>
        <pt x="1583" y="1483" on="1"/>
        <pt x="1574" y="1407" on="1"/>
        <pt x="1423" y="1364" on="1"/>
        <pt x="1423" y="1137" on="1"/>
        <pt x="1627" y="1137" on="1"/>
        <pt x="1641" y="1070" on="0"/>
        <pt x="1612" y="1020" on="1"/>
        <pt x="1423" y="1020" on="1"/>
        <pt x="1423" y="128" on="1"/>
        <pt x="1569" y="94" on="1"/>
        <pt x="1576" y="80" on="1"/>
        <pt x="1562" y="0" on="1"/>
        <pt x="1086" y="0" on="1"/>
        <pt x="1082" y="9" on="1"/>
        <pt x="1091" y="85" on="1"/>
        <pt x="1235" y="128" on="1"/>
        <pt x="1235" y="698" on="1"/>
        <pt x="479" y="698" on="1"/>
        <pt x="479" y="128" on="1"/>
        <pt x="625" y="94" on="1"/>
        <pt x="632" y="80" on="1"/>
        <pt x="617" y="0" on="1"/>
        <pt x="142" y="0" on="1"/>
        <pt x="137" y="9" on="1"/>
      </contour>
      <contour>
        <pt x="1235" y="815" on="1"/>
        <pt x="1235" y="1020" on="1"/>
        <pt x="479" y="1020" on="1"/>
        <pt x="479" y="815" on="1"/>
      </contour>
    </TTGlyph>
    <TTGlyph name="Hcircumflex" xMin="48" yMin="0" xMax="1494" yMax="2017">
      <component glyphName="H" x="0" y="0" flags="0x1204"/>
      <component glyphName="circumflex.cap" x="492" y="0" flags="0x1004"/>
    </TTGlyph>
    <TTGlyph name="I" xMin="95" yMin="0" xMax="594" yMax="1492">
      <contour>
        <pt x="109" y="85" on="1"/>
        <pt x="248" y="128" on="1"/>
        <pt x="248" y="1364" on="1"/>
        <pt x="102" y="1398" on="1"/>
        <pt x="95" y="1411" on="1"/>
        <pt x="109" y="1492" on="1"/>
        <pt x="585" y="1492" on="1"/>
        <pt x="589" y="1483" on="1"/>
        <pt x="579" y="1407" on="1"/>
        <pt x="435" y="1364" on="1"/>
        <pt x="435" y="128" on="1"/>
        <pt x="587" y="94" on="1"/>
        <pt x="594" y="80" on="1"/>
        <pt x="579" y="0" on="1"/>
        <pt x="104" y="0" on="1"/>
        <pt x="99" y="9" on="1"/>
      </contour>
    </TTGlyph>
    <TTGlyph name="IJ" xMin="95" yMin="-488" xMax="1279" yMax="1492">
      <component glyphName="I" x="0" y="0" flags="0x1004"/>
      <component glyphName="J" x="683" y="0" flags="0x1004"/>
    </TTGlyph>
    <TTGlyph name="Iacute" xMin="95" yMin="0" xMax="594" yMax="2019">
      <component glyphName="I" x="0" y="0" flags="0x1204"/>
      <component glyphName="acute.cap" x="65" y="0" flags="0x1004"/>
    </TTGlyph>
    <TTGlyph name="Ibreve" xMin="46" yMin="0" xMax="637" yMax="1980">
      <component glyphName="I" x="0" y="0" flags="0x1204"/>
      <component glyphName="breve.cap" x="64" y="0" flags="0x1004"/>
    </TTGlyph>
    <TTGlyph name="Icircumflex" xMin="-16" yMin="0" xMax="699" yMax="2017">
      <component glyphName="I" x="0" y="0" flags="0x1204"/>
      <component glyphName="circumflex.cap" x="65" y="0" flags="0x1004"/>
    </TTGlyph>
    <TTGlyph name="Idieresis" xMin="29" yMin="0" xMax="654" yMax="1939">
      <component glyphName="I" x="0" y="0" flags="0x1204"/>
      <component glyphName="dieresis.cap" x="65" y="0" flags="0x1004"/>
    </TTGlyph>
    <TTGlyph name="Idotaccent" xMin="95" yMin="0" xMax="594" yMax="1875">
      <component glyphName="I" x="0" y="0" flags="0x1204"/>
      <component glyphName="dotaccent.cap" x="66" y="0" flags="0x1004"/>
    </TTGlyph>
    <TTGlyph name="Igrave" xMin="95" yMin="0" xMax="594" yMax="2019">
      <component glyphName="I" x="0" y="0" flags="0x1204"/>
      <component glyphName="grave.cap" x="65" y="0" flags="0x1004"/>
    </TTGlyph>
    <TTGlyph name="Imacron" xMin="90" yMin="0" xMax="594" yMax="1785">
      <component glyphName="I" x="0" y="0" flags="0x1204"/>
      <component glyphName="macron.cap" x="64" y="0" flags="0x1004"/>
    </TTGlyph>
    <TTGlyph name="Iogonek" xMin="95" yMin="-488" xMax="594" yMax="1492">
      <contour>
        <pt x="320" y="-281" on="1"/>
        <pt x="320" y="-360" on="0"/>
        <pt x="403" y="-360" on="1"/>
        <pt x="440" y="-360" on="0"/>
        <pt x="538" y="-306" on="0"/>
        <pt x="539" y="-306" on="1"/>
        <pt x="546" y="-306" on="0"/>
        <pt x="558" y="-316" on="1"/>
        <pt x="583" y="-338" on="0"/>
        <pt x="583" y="-367" on="1"/>
        <pt x="519" y="-433" on="0"/>
        <pt x="379" y="-488" on="0"/>
        <pt x="287" y="-488" on="0"/>
        <pt x="225" y="-461" on="0"/>
        <pt x="203" y="-436" on="1"/>
        <pt x="158" y="-386" on="0"/>
        <pt x="158" y="-314" on="1"/>
        <pt x="158" y="-146" on="0"/>
        <pt x="308" y="0" on="1"/>
        <pt x="104" y="0" on="1"/>
        <pt x="99" y="9" on="1"/>
        <pt x="109" y="85" on="1"/>
        <pt x="248" y="128" on="1"/>
        <pt x="248" y="1364" on="1"/>
        <pt x="102" y="1398" on="1"/>
        <pt x="95" y="1411" on="1"/>
        <pt x="109" y="1492" on="1"/>
        <pt x="585" y="1492" on="1"/>
        <pt x="589" y="1483" on="1"/>
        <pt x="579" y="1407" on="1"/>
        <pt x="435" y="1364" on="1"/>
        <pt x="435" y="128" on="1"/>
        <pt x="587" y="94" on="1"/>
        <pt x="594" y="80" on="1"/>
        <pt x="579" y="0" on="1"/>
        <pt x="447" y="0" on="1"/>
        <pt x="378" y="-67" on="0"/>
        <pt x="320" y="-219" on="0"/>
      </contour>
    </TTGlyph>
    <TTGlyph name="Itilde" xMin="-22" yMin="0" xMax="706" yMax="1988">
      <component glyphName="I" x="0" y="0" flags="0x1204"/>
      <component glyphName="tilde.cap" x="65" y="0" flags="0x1004"/>
    </TTGlyph>
    <TTGlyph name="J" xMin="39" yMin="-488" xMax="596" yMax="1492">
      <contour>
        <pt x="248" y="1364" on="1"/>
        <pt x="108" y="1398" on="1"/>
        <pt x="102" y="1411" on="1"/>
        <pt x="115" y="1492" on="1"/>
        <pt x="591" y="1492" on="1"/>
        <pt x="596" y="1483" on="1"/>
        <pt x="587" y="1407" on="1"/>
        <pt x="436" y="1364" on="1"/>
        <pt x="436" y="40" on="1"/>
        <pt x="436" y="-312" on="0"/>
        <pt x="73" y="-488" on="1"/>
        <pt x="47" y="-462" on="0"/>
        <pt x="39" y="-402" on="1"/>
        <pt x="120" y="-368" on="0"/>
        <pt x="179" y="-266" on="1"/>
        <pt x="248" y="-146" on="0"/>
        <pt x="248" y="2" on="1"/>
      </contour>
    </TTGlyph>
    <TTGlyph name="Jcircumflex" xMin="-39" yMin="-488" xMax="676" yMax="2017">
      <component glyphName="J" x="0" y="0" flags="0x1204"/>
      <component glyphName="circumflex.cap" x="42" y="0" flags="0x1004"/>
    </TTGlyph>
    <TTGlyph name="K" xMin="80" yMin="0" xMax="1356" yMax="1492">
      <contour>
        <pt x="90" y="85" on="1"/>
        <pt x="233" y="130" on="1"/>
        <pt x="233" y="1360" on="1"/>
        <pt x="94" y="1393" on="1"/>
        <pt x="87" y="1407" on="1"/>
        <pt x="101" y="1492" on="1"/>
        <pt x="577" y="1492" on="1"/>
        <pt x="582" y="1483" on="1"/>
        <pt x="573" y="1402" on="1"/>
        <pt x="422" y="1360" on="1"/>
        <pt x="422" y="733" on="1"/>
        <pt x="983" y="1367" on="1"/>
        <pt x="844" y="1395" on="1"/>
        <pt x="837" y="1407" on="1"/>
        <pt x="849" y="1492" on="1"/>
        <pt x="1327" y="1492" on="1"/>
        <pt x="1332" y="1483" on="1"/>
        <pt x="1322" y="1405" on="1"/>
        <pt x="1179" y="1355" on="1"/>
        <pt x="678" y="823" on="1"/>
        <pt x="1212" y="128" on="1"/>
        <pt x="1352" y="94" on="1"/>
        <pt x="1356" y="80" on="1"/>
        <pt x="1343" y="0" on="1"/>
        <pt x="864" y="0" on="1"/>
        <pt x="856" y="9" on="1"/>
        <pt x="866" y="85" on="1"/>
        <pt x="972" y="128" on="1"/>
        <pt x="560" y="693" on="1"/>
        <pt x="422" y="552" on="1"/>
        <pt x="422" y="128" on="1"/>
        <pt x="568" y="94" on="1"/>
        <pt x="575" y="80" on="1"/>
        <pt x="560" y="0" on="1"/>
        <pt x="85" y="0" on="1"/>
        <pt x="80" y="9" on="1"/>
      </contour>
    </TTGlyph>
    <TTGlyph name="Kcommaaccent" xMin="80" yMin="-534" xMax="1356" yMax="1492">
      <component glyphName="K" x="0" y="0" flags="0x1204"/>
      <component glyphName="commaaccent" x="413" y="0" flags="0x1004"/>
    </TTGlyph>
    <TTGlyph name="L" xMin="78" yMin="0" xMax="1101" yMax="1492">
      <contour>
        <pt x="87" y="85" on="1"/>
        <pt x="231" y="128" on="1"/>
        <pt x="231" y="1364" on="1"/>
        <pt x="90" y="1398" on="1"/>
        <pt x="83" y="1411" on="1"/>
        <pt x="97" y="1492" on="1"/>
        <pt x="598" y="1492" on="1"/>
        <pt x="603" y="1483" on="1"/>
        <pt x="593" y="1407" on="1"/>
        <pt x="420" y="1364" on="1"/>
        <pt x="420" y="117" on="1"/>
        <pt x="923" y="117" on="1"/>
        <pt x="1015" y="371" on="1"/>
        <pt x="1044" y="377" on="0"/>
        <pt x="1092" y="371" on="1"/>
        <pt x="1101" y="0" on="1"/>
        <pt x="83" y="0" on="1"/>
        <pt x="78" y="9" on="1"/>
      </contour>
    </TTGlyph>
    <TTGlyph name="Lacute" xMin="78" yMin="0" xMax="1101" yMax="1989">
      <component glyphName="L" x="0" y="0" flags="0x1204"/>
      <component glyphName="acute" x="128" y="400" flags="0x1004"/>
    </TTGlyph>
    <TTGlyph name="Lcaron" xMin="78" yMin="0" xMax="1101" yMax="1506">
      <component glyphName="L" x="0" y="0" flags="0x1204"/>
      <component glyphName="comma" x="559" y="1290" flags="0x1004"/>
    </TTGlyph>
    <TTGlyph name="Lcommaaccent" xMin="78" yMin="-534" xMax="1101" yMax="1492">
      <component glyphName="L" x="0" y="0" flags="0x1204"/>
      <component glyphName="commaaccent" x="285" y="0" flags="0x1004"/>
    </TTGlyph>
    <TTGlyph name="Ldot" xMin="78" yMin="0" xMax="1101" yMax="1492">
      <component glyphName="L" x="0" y="0" flags="0x1204"/>
      <component glyphName="period" x="683" y="660" flags="0x1004"/>
    </TTGlyph>
    <TTGlyph name="Lslash" xMin="-37" yMin="0" xMax="1101" yMax="1492">
      <contour>
        <pt x="87" y="85" on="1"/>
        <pt x="231" y="128" on="1"/>
        <pt x="231" y="681" on="1"/>
        <pt x="-3" y="598" on="1"/>
        <pt x="-37" y="637" on="0"/>
        <pt x="-37" y="699" on="1"/>
        <pt x="231" y="796" on="1"/>
        <pt x="231" y="1364" on="1"/>
        <pt x="90" y="1398" on="1"/>
        <pt x="83" y="1411" on="1"/>
        <pt x="97" y="1492" on="1"/>
        <pt x="598" y="1492" on="1"/>
        <pt x="603" y="1483" on="1"/>
        <pt x="593" y="1407" on="1"/>
        <pt x="420" y="1364" on="1"/>
        <pt x="420" y="875" on="1"/>
        <pt x="789" y="1008" on="1"/>
        <pt x="815" y="962" on="0"/>
        <pt x="820" y="902" on="1"/>
        <pt x="420" y="759" on="1"/>
        <pt x="420" y="117" on="1"/>
        <pt x="923" y="117" on="1"/>
        <pt x="1015" y="371" on="1"/>
        <pt x="1044" y="377" on="0"/>
        <pt x="1092" y="371" on="1"/>
        <pt x="1101" y="0" on="1"/>
        <pt x="83" y="0" on="1"/>
        <pt x="78" y="9" on="1"/>
      </contour>
    </TTGlyph>
    <TTGlyph name="M" xMin="111" yMin="0" xMax="1934" yMax="1492">
      <contour>
        <pt x="121" y="85" on="1"/>
        <pt x="274" y="128" on="1"/>
        <pt x="330" y="1362" on="1"/>
        <pt x="151" y="1393" on="1"/>
        <pt x="144" y="1407" on="1"/>
        <pt x="159" y="1492" on="1"/>
        <pt x="516" y="1492" on="1"/>
        <pt x="1034" y="324" on="1"/>
        <pt x="1510" y="1492" on="1"/>
        <pt x="1889" y="1492" on="1"/>
        <pt x="1905" y="1480" on="1"/>
        <pt x="1887" y="1393" on="1"/>
        <pt x="1703" y="1362" on="1"/>
        <pt x="1759" y="128" on="1"/>
        <pt x="1927" y="94" on="1"/>
        <pt x="1934" y="80" on="1"/>
        <pt x="1919" y="0" on="1"/>
        <pt x="1425" y="0" on="1"/>
        <pt x="1420" y="9" on="1"/>
        <pt x="1431" y="85" on="1"/>
        <pt x="1573" y="128" on="1"/>
        <pt x="1526" y="1226" on="1"/>
        <pt x="1058" y="101" on="1"/>
        <pt x="1049" y="79" on="0"/>
        <pt x="995" y="47" on="0"/>
        <pt x="968" y="47" on="1"/>
        <pt x="438" y="1202" on="1"/>
        <pt x="393" y="128" on="1"/>
        <pt x="535" y="94" on="1"/>
        <pt x="542" y="80" on="1"/>
        <pt x="528" y="0" on="1"/>
        <pt x="116" y="0" on="1"/>
        <pt x="111" y="9" on="1"/>
      </contour>
    </TTGlyph>
    <TTGlyph name="N" xMin="89" yMin="-36" xMax="1618" yMax="1492">
      <contour>
        <pt x="110" y="85" on="1"/>
        <pt x="263" y="128" on="1"/>
        <pt x="263" y="1367" on="1"/>
        <pt x="96" y="1398" on="1"/>
        <pt x="89" y="1411" on="1"/>
        <pt x="103" y="1492" on="1"/>
        <pt x="433" y="1492" on="1"/>
        <pt x="1366" y="351" on="1"/>
        <pt x="1366" y="1362" on="1"/>
        <pt x="1195" y="1398" on="1"/>
        <pt x="1189" y="1411" on="1"/>
        <pt x="1202" y="1492" on="1"/>
        <pt x="1613" y="1492" on="1"/>
        <pt x="1618" y="1483" on="1"/>
        <pt x="1608" y="1407" on="1"/>
        <pt x="1483" y="1364" on="1"/>
        <pt x="1483" y="0" on="1"/>
        <pt x="1465" y="-36" on="0"/>
        <pt x="1424" y="-36" on="1"/>
        <pt x="381" y="1252" on="1"/>
        <pt x="381" y="128" on="1"/>
        <pt x="517" y="94" on="1"/>
        <pt x="524" y="80" on="1"/>
        <pt x="510" y="0" on="1"/>
        <pt x="105" y="0" on="1"/>
        <pt x="101" y="9" on="1"/>
      </contour>
    </TTGlyph>
    <TTGlyph name="Nacute" xMin="89" yMin="-36" xMax="1618" yMax="2019">
      <component glyphName="N" x="0" y="0" flags="0x1204"/>
      <component glyphName="acute.cap" x="626" y="0" flags="0x1004"/>
    </TTGlyph>
    <TTGlyph name="Ncaron" xMin="89" yMin="-36" xMax="1618" yMax="2018">
      <component glyphName="N" x="0" y="0" flags="0x1204"/>
      <component glyphName="caron.cap" x="626" y="0" flags="0x1004"/>
    </TTGlyph>
    <TTGlyph name="Ncommaaccent" xMin="89" yMin="-509" xMax="1618" yMax="1492">
      <component glyphName="N" x="0" y="0" flags="0x1204"/>
      <component glyphName="commaaccent" x="573" y="25" flags="0x1004"/>
    </TTGlyph>
    <TTGlyph name="Ntilde" xMin="89" yMin="-36" xMax="1618" yMax="1988">
      <component glyphName="N" x="0" y="0" flags="0x1204"/>
      <component glyphName="tilde.cap" x="626" y="0" flags="0x1004"/>
    </TTGlyph>
    <TTGlyph name="O" xMin="126" yMin="-36" xMax="1579" yMax="1508">
      <contour>
        <pt x="227" y="281" on="0"/>
        <pt x="126" y="551" on="0"/>
        <pt x="126" y="819" on="0"/>
        <pt x="181" y="1025" on="0"/>
        <pt x="282" y="1203" on="0"/>
        <pt x="421" y="1349" on="0"/>
        <pt x="506" y="1400" on="1"/>
        <pt x="682" y="1508" on="0"/>
        <pt x="1045" y="1508" on="0"/>
        <pt x="1302" y="1394" on="0"/>
        <pt x="1392" y="1294" on="1"/>
        <pt x="1579" y="1086" on="0"/>
        <pt x="1579" y="761" on="1"/>
        <pt x="1579" y="423" on="0"/>
        <pt x="1356" y="192" on="1"/>
        <pt x="1216" y="47" on="0"/>
        <pt x="1024" y="-8" on="1"/>
        <pt x="928" y="-36" on="0"/>
        <pt x="668" y="-36" on="0"/>
        <pt x="410" y="80" on="0"/>
      </contour>
      <contour>
        <pt x="331" y="784" on="1"/>
        <pt x="331" y="632" on="0"/>
        <pt x="418" y="371" on="0"/>
        <pt x="494" y="280" on="1"/>
        <pt x="649" y="94" on="0"/>
        <pt x="889" y="94" on="1"/>
        <pt x="1108" y="94" on="0"/>
        <pt x="1238" y="240" on="1"/>
        <pt x="1374" y="393" on="0"/>
        <pt x="1374" y="669" on="1"/>
        <pt x="1374" y="994" on="0"/>
        <pt x="1214" y="1192" on="1"/>
        <pt x="1064" y="1380" on="0"/>
        <pt x="832" y="1380" on="1"/>
        <pt x="598" y="1380" on="0"/>
        <pt x="465" y="1227" on="1"/>
        <pt x="331" y="1072" on="0"/>
      </contour>
    </TTGlyph>
    <TTGlyph name="OE" xMin="78" yMin="-36" xMax="1978" yMax="1508">
      <contour>
        <pt x="1000" y="0" on="1"/>
        <pt x="888" y="-36" on="0"/>
        <pt x="620" y="-36" on="0"/>
        <pt x="362" y="80" on="0"/>
        <pt x="270" y="180" on="1"/>
        <pt x="78" y="392" on="0"/>
        <pt x="78" y="706" on="1"/>
        <pt x="78" y="1039" on="0"/>
        <pt x="304" y="1276" on="1"/>
        <pt x="444" y="1423" on="0"/>
        <pt x="638" y="1480" on="1"/>
        <pt x="734" y="1508" on="0"/>
        <pt x="917" y="1508" on="0"/>
        <pt x="989" y="1492" on="1"/>
        <pt x="1957" y="1492" on="1"/>
        <pt x="1924" y="1188" on="1"/>
        <pt x="1885" y="1181" on="0"/>
        <pt x="1842" y="1193" on="1"/>
        <pt x="1782" y="1375" on="1"/>
        <pt x="1222" y="1375" on="1"/>
        <pt x="1222" y="821" on="1"/>
        <pt x="1670" y="821" on="1"/>
        <pt x="1719" y="963" on="1"/>
        <pt x="1750" y="970" on="0"/>
        <pt x="1797" y="963" on="1"/>
        <pt x="1797" y="561" on="1"/>
        <pt x="1754" y="554" on="0"/>
        <pt x="1719" y="561" on="1"/>
        <pt x="1670" y="702" on="1"/>
        <pt x="1222" y="702" on="1"/>
        <pt x="1222" y="117" on="1"/>
        <pt x="1807" y="117" on="1"/>
        <pt x="1892" y="360" on="1"/>
        <pt x="1926" y="370" on="0"/>
        <pt x="1969" y="360" on="1"/>
        <pt x="1978" y="0" on="1"/>
      </contour>
      <contour>
        <pt x="1034" y="1310" on="1"/>
        <pt x="917" y="1380" on="0"/>
        <pt x="668" y="1380" on="0"/>
        <pt x="482" y="1302" on="0"/>
        <pt x="417" y="1227" on="1"/>
        <pt x="283" y="1072" on="0"/>
        <pt x="283" y="796" on="1"/>
        <pt x="283" y="475" on="0"/>
        <pt x="446" y="280" on="1"/>
        <pt x="601" y="94" on="0"/>
        <pt x="841" y="94" on="1"/>
        <pt x="945" y="94" on="0"/>
        <pt x="1034" y="130" on="1"/>
      </contour>
    </TTGlyph>
    <TTGlyph name="Oacute" xMin="126" yMin="-36" xMax="1579" yMax="2019">
      <component glyphName="O" x="0" y="0" flags="0x1204"/>
      <component glyphName="acute.cap" x="576" y="0" flags="0x1004"/>
    </TTGlyph>
    <TTGlyph name="Obreve" xMin="126" yMin="-36" xMax="1579" yMax="1980">
      <component glyphName="O" x="0" y="0" flags="0x1204"/>
      <component glyphName="breve.cap" x="575" y="0" flags="0x1004"/>
    </TTGlyph>
    <TTGlyph name="Ocircumflex" xMin="126" yMin="-36" xMax="1579" yMax="2017">
      <component glyphName="O" x="0" y="0" flags="0x1204"/>
      <component glyphName="circumflex.cap" x="576" y="0" flags="0x1004"/>
    </TTGlyph>
    <TTGlyph name="Odieresis" xMin="126" yMin="-36" xMax="1579" yMax="1939">
      <component glyphName="O" x="0" y="0" flags="0x1204"/>
      <component glyphName="dieresis.cap" x="576" y="0" flags="0x1004"/>
    </TTGlyph>
    <TTGlyph name="Ograve" xMin="126" yMin="-36" xMax="1579" yMax="2019">
      <component glyphName="O" x="0" y="0" flags="0x1204"/>
      <component glyphName="grave.cap" x="576" y="0" flags="0x1004"/>
    </TTGlyph>
    <TTGlyph name="Ohungarumlaut" xMin="126" yMin="-36" xMax="1579" yMax="2018">
      <component glyphName="O" x="0" y="0" flags="0x1204"/>
      <component glyphName="hungarumlaut.cap" x="574" y="0" flags="0x1004"/>
    </TTGlyph>
    <TTGlyph name="Omacron" xMin="126" yMin="-36" xMax="1579" yMax="1785">
      <component glyphName="O" x="0" y="0" flags="0x1204"/>
      <component glyphName="macron.cap" x="575" y="0" flags="0x1004"/>
    </TTGlyph>
    <TTGlyph name="Omega" xMin="177" yMin="0" xMax="1870" yMax="1553">
      <contour>
        <pt x="177" y="392" on="1"/>
        <pt x="218" y="407" on="0"/>
        <pt x="259" y="404" on="1"/>
        <pt x="348" y="181" on="1"/>
        <pt x="733" y="155" on="1"/>
        <pt x="582" y="255" on="0"/>
        <pt x="464" y="437" on="1"/>
        <pt x="328" y="649" on="0"/>
        <pt x="333" y="852" on="1"/>
        <pt x="340" y="1316" on="0"/>
        <pt x="704" y="1483" on="1"/>
        <pt x="857" y="1553" on="0"/>
        <pt x="1192" y="1553" on="0"/>
        <pt x="1440" y="1471" on="0"/>
        <pt x="1530" y="1388" on="1"/>
        <pt x="1720" y="1212" on="0"/>
        <pt x="1714" y="888" on="1"/>
        <pt x="1711" y="715" on="0"/>
        <pt x="1580" y="488" on="1"/>
        <pt x="1464" y="285" on="0"/>
        <pt x="1317" y="158" on="1"/>
        <pt x="1699" y="182" on="1"/>
        <pt x="1788" y="404" on="1"/>
        <pt x="1827" y="407" on="0"/>
        <pt x="1870" y="392" on="1"/>
        <pt x="1822" y="0" on="1"/>
        <pt x="1152" y="0" on="1"/>
        <pt x="1152" y="166" on="1"/>
        <pt x="1312" y="262" on="0"/>
        <pt x="1410" y="450" on="1"/>
        <pt x="1514" y="648" on="0"/>
        <pt x="1514" y="887" on="1"/>
        <pt x="1514" y="1178" on="0"/>
        <pt x="1363" y="1322" on="1"/>
        <pt x="1237" y="1441" on="0"/>
        <pt x="1031" y="1441" on="1"/>
        <pt x="675" y="1441" on="0"/>
        <pt x="568" y="1125" on="1"/>
        <pt x="530" y="1013" on="0"/>
        <pt x="530" y="771" on="0"/>
        <pt x="565" y="618" on="0"/>
        <pt x="624" y="480" on="0"/>
        <pt x="702" y="360" on="0"/>
        <pt x="745" y="311" on="1"/>
        <pt x="830" y="214" on="0"/>
        <pt x="917" y="166" on="1"/>
        <pt x="917" y="0" on="1"/>
        <pt x="225" y="0" on="1"/>
      </contour>
    </TTGlyph>
    <TTGlyph name="Oslash" xMin="126" yMin="-162" xMax="1579" yMax="1607">
      <contour>
        <pt x="1024" y="-8" on="1"/>
        <pt x="928" y="-36" on="0"/>
        <pt x="740" y="-36" on="0"/>
        <pt x="656" y="-17" on="1"/>
        <pt x="607" y="-162" on="1"/>
        <pt x="569" y="-162" on="0"/>
        <pt x="508" y="-128" on="1"/>
        <pt x="556" y="15" on="1"/>
        <pt x="356" y="96" on="0"/>
        <pt x="242" y="282" on="1"/>
        <pt x="126" y="469" on="0"/>
        <pt x="126" y="706" on="1"/>
        <pt x="126" y="1039" on="0"/>
        <pt x="352" y="1276" on="1"/>
        <pt x="492" y="1423" on="0"/>
        <pt x="686" y="1480" on="1"/>
        <pt x="782" y="1508" on="0"/>
        <pt x="970" y="1508" on="0"/>
        <pt x="1054" y="1489" on="1"/>
        <pt x="1094" y="1607" on="1"/>
        <pt x="1130" y="1607" on="0"/>
        <pt x="1188" y="1578" on="0"/>
        <pt x="1196" y="1571" on="1"/>
        <pt x="1157" y="1457" on="1"/>
        <pt x="1356" y="1377" on="0"/>
        <pt x="1468" y="1191" on="1"/>
        <pt x="1579" y="1006" on="0"/>
        <pt x="1579" y="761" on="1"/>
        <pt x="1579" y="423" on="0"/>
        <pt x="1356" y="192" on="1"/>
        <pt x="1216" y="47" on="0"/>
      </contour>
      <contour>
        <pt x="1006" y="1347" on="1"/>
        <pt x="923" y="1380" on="0"/>
        <pt x="716" y="1380" on="0"/>
        <pt x="530" y="1302" on="0"/>
        <pt x="465" y="1227" on="1"/>
        <pt x="331" y="1072" on="0"/>
        <pt x="331" y="796" on="1"/>
        <pt x="331" y="473" on="0"/>
        <pt x="496" y="277" on="1"/>
        <pt x="548" y="216" on="0"/>
        <pt x="611" y="175" on="1"/>
      </contour>
      <contour>
        <pt x="705" y="127" on="1"/>
        <pt x="792" y="94" on="0"/>
        <pt x="996" y="94" on="0"/>
        <pt x="1174" y="168" on="0"/>
        <pt x="1238" y="240" on="1"/>
        <pt x="1374" y="393" on="0"/>
        <pt x="1374" y="669" on="1"/>
        <pt x="1374" y="998" on="0"/>
        <pt x="1213" y="1194" on="1"/>
        <pt x="1163" y="1255" on="0"/>
        <pt x="1102" y="1296" on="1"/>
      </contour>
    </TTGlyph>
    <TTGlyph name="Otilde" xMin="126" yMin="-36" xMax="1579" yMax="1988">
      <component glyphName="O" x="0" y="0" flags="0x1204"/>
      <component glyphName="tilde.cap" x="576" y="0" flags="0x1004"/>
    </TTGlyph>
    <TTGlyph name="P" xMin="58" yMin="0" xMax="1117" yMax="1492">
      <contour>
        <pt x="582" y="583" on="1"/>
        <pt x="463" y="583" on="0"/>
        <pt x="400" y="592" on="1"/>
        <pt x="400" y="128" on="1"/>
        <pt x="616" y="94" on="1"/>
        <pt x="623" y="80" on="1"/>
        <pt x="609" y="0" on="1"/>
        <pt x="65" y="0" on="1"/>
        <pt x="58" y="11" on="1"/>
        <pt x="70" y="85" on="1"/>
        <pt x="211" y="128" on="1"/>
        <pt x="211" y="1364" on="1"/>
        <pt x="72" y="1398" on="1"/>
        <pt x="65" y="1411" on="1"/>
        <pt x="79" y="1492" on="1"/>
        <pt x="648" y="1492" on="1"/>
        <pt x="881" y="1492" on="0"/>
        <pt x="1117" y="1259" on="0"/>
        <pt x="1117" y="1033" on="1"/>
        <pt x="1117" y="810" on="0"/>
        <pt x="960" y="690" on="1"/>
        <pt x="821" y="583" on="0"/>
      </contour>
      <contour>
        <pt x="577" y="1375" on="1"/>
        <pt x="483" y="1375" on="0"/>
        <pt x="400" y="1355" on="1"/>
        <pt x="400" y="708" on="1"/>
        <pt x="442" y="701" on="0"/>
        <pt x="631" y="701" on="0"/>
        <pt x="767" y="741" on="0"/>
        <pt x="815" y="782" on="1"/>
        <pt x="916" y="867" on="0"/>
        <pt x="916" y="1033" on="1"/>
        <pt x="916" y="1167" on="0"/>
        <pt x="834" y="1265" on="1"/>
        <pt x="742" y="1375" on="0"/>
      </contour>
    </TTGlyph>
    <TTGlyph name="Q" xMin="126" yMin="-474" xMax="1808" yMax="1508">
      <contour>
        <pt x="227" y="281" on="0"/>
        <pt x="126" y="551" on="0"/>
        <pt x="126" y="819" on="0"/>
        <pt x="181" y="1025" on="0"/>
        <pt x="282" y="1203" on="0"/>
        <pt x="421" y="1349" on="0"/>
        <pt x="506" y="1400" on="1"/>
        <pt x="682" y="1508" on="0"/>
        <pt x="1045" y="1508" on="0"/>
        <pt x="1302" y="1394" on="0"/>
        <pt x="1392" y="1294" on="1"/>
        <pt x="1579" y="1086" on="0"/>
        <pt x="1579" y="761" on="1"/>
        <pt x="1579" y="483" on="0"/>
        <pt x="1421" y="268" on="1"/>
        <pt x="1268" y="61" on="0"/>
        <pt x="1026" y="-8" on="1"/>
        <pt x="1316" y="-161" on="0"/>
        <pt x="1599" y="-238" on="1"/>
        <pt x="1705" y="-267" on="0"/>
        <pt x="1808" y="-278" on="1"/>
        <pt x="1808" y="-370" on="0"/>
        <pt x="1757" y="-459" on="0"/>
        <pt x="1738" y="-474" on="1"/>
        <pt x="1330" y="-371" on="0"/>
        <pt x="994" y="-146" on="1"/>
        <pt x="918" y="-95" on="0"/>
        <pt x="849" y="-35" on="1"/>
        <pt x="843" y="-36" on="0"/>
        <pt x="831" y="-36" on="0"/>
        <pt x="825" y="-36" on="1"/>
        <pt x="668" y="-36" on="0"/>
        <pt x="410" y="80" on="0"/>
      </contour>
      <contour>
        <pt x="331" y="784" on="1"/>
        <pt x="331" y="632" on="0"/>
        <pt x="418" y="371" on="0"/>
        <pt x="494" y="280" on="1"/>
        <pt x="649" y="94" on="0"/>
        <pt x="889" y="94" on="1"/>
        <pt x="1108" y="94" on="0"/>
        <pt x="1238" y="240" on="1"/>
        <pt x="1374" y="393" on="0"/>
        <pt x="1374" y="669" on="1"/>
        <pt x="1374" y="994" on="0"/>
        <pt x="1214" y="1192" on="1"/>
        <pt x="1064" y="1380" on="0"/>
        <pt x="832" y="1380" on="1"/>
        <pt x="598" y="1380" on="0"/>
        <pt x="465" y="1227" on="1"/>
        <pt x="331" y="1072" on="0"/>
      </contour>
    </TTGlyph>
    <TTGlyph name="R" xMin="78" yMin="-23" xMax="1310" yMax="1492">
      <contour>
        <pt x="612" y="641" on="1"/>
        <pt x="480" y="641" on="0"/>
        <pt x="420" y="647" on="1"/>
        <pt x="420" y="128" on="1"/>
        <pt x="616" y="94" on="1"/>
        <pt x="623" y="80" on="1"/>
        <pt x="609" y="0" on="1"/>
        <pt x="85" y="0" on="1"/>
        <pt x="78" y="11" on="1"/>
        <pt x="90" y="85" on="1"/>
        <pt x="231" y="128" on="1"/>
        <pt x="231" y="1364" on="1"/>
        <pt x="92" y="1398" on="1"/>
        <pt x="85" y="1411" on="1"/>
        <pt x="99" y="1492" on="1"/>
        <pt x="678" y="1492" on="1"/>
        <pt x="1157" y="1492" on="0"/>
        <pt x="1157" y="1050" on="1"/>
        <pt x="1157" y="888" on="0"/>
        <pt x="1056" y="782" on="1"/>
        <pt x="968" y="689" on="0"/>
        <pt x="813" y="654" on="1"/>
        <pt x="899" y="601" on="0"/>
        <pt x="974" y="467" on="1"/>
        <pt x="1006" y="410" on="0"/>
        <pt x="1066" y="291" on="0"/>
        <pt x="1102" y="238" on="1"/>
        <pt x="1185" y="118" on="0"/>
        <pt x="1295" y="87" on="1"/>
        <pt x="1310" y="68" on="1"/>
        <pt x="1293" y="0" on="1"/>
        <pt x="1067" y="-23" on="1"/>
        <pt x="999" y="-13" on="0"/>
        <pt x="906" y="171" on="1"/>
        <pt x="798" y="394" on="1"/>
        <pt x="698" y="596" on="0"/>
      </contour>
      <contour>
        <pt x="607" y="1375" on="1"/>
        <pt x="513" y="1375" on="0"/>
        <pt x="420" y="1355" on="1"/>
        <pt x="420" y="766" on="1"/>
        <pt x="468" y="758" on="0"/>
        <pt x="661" y="758" on="0"/>
        <pt x="800" y="787" on="0"/>
        <pt x="850" y="822" on="1"/>
        <pt x="956" y="896" on="0"/>
        <pt x="956" y="1060" on="1"/>
        <pt x="956" y="1201" on="0"/>
        <pt x="869" y="1286" on="1"/>
        <pt x="778" y="1375" on="0"/>
      </contour>
    </TTGlyph>
    <TTGlyph name="Racute" xMin="78" yMin="-23" xMax="1310" yMax="2019">
      <component glyphName="R" x="0" y="0" flags="0x1204"/>
      <component glyphName="acute.cap" x="417" y="0" flags="0x1004"/>
    </TTGlyph>
    <TTGlyph name="Rcaron" xMin="78" yMin="-23" xMax="1310" yMax="2018">
      <component glyphName="R" x="0" y="0" flags="0x1204"/>
      <component glyphName="caron.cap" x="417" y="0" flags="0x1004"/>
    </TTGlyph>
    <TTGlyph name="Rcommaaccent" xMin="78" yMin="-534" xMax="1310" yMax="1492">
      <component glyphName="R" x="0" y="0" flags="0x1204"/>
      <component glyphName="commaaccent" x="364" y="0" flags="0x1004"/>
    </TTGlyph>
    <TTGlyph name="S" xMin="134" yMin="-36" xMax="1082" yMax="1508">
      <contour>
        <pt x="204" y="407" on="1"/>
        <pt x="248" y="412" on="0"/>
        <pt x="283" y="393" on="1"/>
        <pt x="283" y="268" on="0"/>
        <pt x="294" y="224" on="1"/>
        <pt x="378" y="148" on="0"/>
        <pt x="504" y="106" on="1"/>
        <pt x="570" y="85" on="0"/>
        <pt x="705" y="85" on="0"/>
        <pt x="800" y="112" on="0"/>
        <pt x="835" y="142" on="1"/>
        <pt x="911" y="207" on="0"/>
        <pt x="911" y="337" on="1"/>
        <pt x="911" y="439" on="0"/>
        <pt x="794" y="522" on="1"/>
        <pt x="742" y="560" on="0"/>
        <pt x="675" y="594" on="1"/>
        <pt x="538" y="662" on="1"/>
        <pt x="362" y="751" on="0"/>
        <pt x="230" y="878" on="0"/>
        <pt x="166" y="1006" on="0"/>
        <pt x="166" y="1181" on="0"/>
        <pt x="238" y="1335" on="0"/>
        <pt x="302" y="1390" on="1"/>
        <pt x="437" y="1508" on="0"/>
        <pt x="641" y="1508" on="1"/>
        <pt x="855" y="1508" on="0"/>
        <pt x="1056" y="1391" on="1"/>
        <pt x="985" y="1079" on="1"/>
        <pt x="951" y="1073" on="0"/>
        <pt x="908" y="1090" on="1"/>
        <pt x="908" y="1123" on="0"/>
        <pt x="904" y="1183" on="0"/>
        <pt x="900" y="1243" on="0"/>
        <pt x="895" y="1263" on="1"/>
        <pt x="750" y="1378" on="0"/>
        <pt x="545" y="1378" on="1"/>
        <pt x="442" y="1378" on="0"/>
        <pt x="384" y="1314" on="1"/>
        <pt x="331" y="1257" on="0"/>
        <pt x="331" y="1093" on="0"/>
        <pt x="396" y="999" on="0"/>
        <pt x="501" y="921" on="0"/>
        <pt x="568" y="887" on="1"/>
        <pt x="706" y="817" on="1"/>
        <pt x="886" y="725" on="0"/>
        <pt x="1017" y="597" on="0"/>
        <pt x="1082" y="464" on="0"/>
        <pt x="1082" y="281" on="0"/>
        <pt x="1007" y="128" on="0"/>
        <pt x="940" y="74" on="1"/>
        <pt x="800" y="-36" on="0"/>
        <pt x="569" y="-36" on="1"/>
        <pt x="374" y="-36" on="0"/>
        <pt x="236" y="29" on="1"/>
        <pt x="174" y="57" on="0"/>
        <pt x="134" y="94" on="1"/>
      </contour>
    </TTGlyph>
    <TTGlyph name="Sacute" xMin="134" yMin="-36" xMax="1082" yMax="2019">
      <component glyphName="S" x="0" y="0" flags="0x1204"/>
      <component glyphName="acute.cap" x="322" y="0" flags="0x1004"/>
    </TTGlyph>
    <TTGlyph name="Scaron" xMin="134" yMin="-36" xMax="1082" yMax="2018">
      <component glyphName="S" x="0" y="0" flags="0x1204"/>
      <component glyphName="caron.cap" x="322" y="0" flags="0x1004"/>
    </TTGlyph>
    <TTGlyph name="Scedilla" xMin="134" yMin="-530" xMax="1082" yMax="1508">
      <contour>
        <pt x="479" y="-218" on="1"/>
        <pt x="454" y="-204" on="0"/>
        <pt x="433" y="-163" on="1"/>
        <pt x="488" y="-33" on="1"/>
        <pt x="252" y="-13" on="0"/>
        <pt x="134" y="94" on="1"/>
        <pt x="204" y="407" on="1"/>
        <pt x="248" y="412" on="0"/>
        <pt x="283" y="393" on="1"/>
        <pt x="283" y="268" on="0"/>
        <pt x="294" y="224" on="1"/>
        <pt x="378" y="148" on="0"/>
        <pt x="504" y="106" on="1"/>
        <pt x="570" y="85" on="0"/>
        <pt x="705" y="85" on="0"/>
        <pt x="800" y="112" on="0"/>
        <pt x="835" y="142" on="1"/>
        <pt x="911" y="207" on="0"/>
        <pt x="911" y="337" on="1"/>
        <pt x="911" y="439" on="0"/>
        <pt x="794" y="522" on="1"/>
        <pt x="742" y="560" on="0"/>
        <pt x="675" y="594" on="1"/>
        <pt x="538" y="662" on="1"/>
        <pt x="362" y="751" on="0"/>
        <pt x="230" y="878" on="0"/>
        <pt x="166" y="1006" on="0"/>
        <pt x="166" y="1181" on="0"/>
        <pt x="238" y="1335" on="0"/>
        <pt x="302" y="1390" on="1"/>
        <pt x="437" y="1508" on="0"/>
        <pt x="641" y="1508" on="1"/>
        <pt x="855" y="1508" on="0"/>
        <pt x="1056" y="1391" on="1"/>
        <pt x="985" y="1079" on="1"/>
        <pt x="951" y="1073" on="0"/>
        <pt x="908" y="1090" on="1"/>
        <pt x="908" y="1123" on="0"/>
        <pt x="904" y="1183" on="0"/>
        <pt x="900" y="1243" on="0"/>
        <pt x="895" y="1263" on="1"/>
        <pt x="750" y="1378" on="0"/>
        <pt x="545" y="1378" on="1"/>
        <pt x="442" y="1378" on="0"/>
        <pt x="384" y="1314" on="1"/>
        <pt x="331" y="1257" on="0"/>
        <pt x="331" y="1093" on="0"/>
        <pt x="396" y="999" on="0"/>
        <pt x="501" y="921" on="0"/>
        <pt x="568" y="887" on="1"/>
        <pt x="706" y="817" on="1"/>
        <pt x="886" y="725" on="0"/>
        <pt x="1017" y="597" on="0"/>
        <pt x="1082" y="464" on="0"/>
        <pt x="1082" y="289" on="0"/>
        <pt x="1019" y="146" on="0"/>
        <pt x="961" y="94" on="1"/>
        <pt x="842" y="-14" on="0"/>
        <pt x="643" y="-32" on="1"/>
        <pt x="613" y="-121" on="1"/>
        <pt x="662" y="-103" on="0"/>
        <pt x="699" y="-106" on="1"/>
        <pt x="772" y="-111" on="0"/>
        <pt x="847" y="-210" on="0"/>
        <pt x="839" y="-342" on="0"/>
        <pt x="772" y="-429" on="0"/>
        <pt x="720" y="-462" on="1"/>
        <pt x="612" y="-530" on="0"/>
        <pt x="471" y="-530" on="1"/>
        <pt x="460" y="-517" on="0"/>
        <pt x="459" y="-461" on="0"/>
        <pt x="461" y="-442" on="1"/>
        <pt x="560" y="-438" on="0"/>
        <pt x="616" y="-398" on="1"/>
        <pt x="694" y="-345" on="0"/>
        <pt x="674" y="-255" on="1"/>
        <pt x="658" y="-186" on="0"/>
        <pt x="513" y="-186" on="0"/>
      </contour>
    </TTGlyph>
    <TTGlyph name="Scircumflex" xMin="134" yMin="-36" xMax="1082" yMax="2017">
      <component glyphName="S" x="0" y="0" flags="0x1204"/>
      <component glyphName="circumflex.cap" x="322" y="0" flags="0x1004"/>
    </TTGlyph>
    <TTGlyph name="Scommaaccent" xMin="134" yMin="-534" xMax="1082" yMax="1508">
      <component glyphName="S" x="0" y="0" flags="0x1204"/>
      <component glyphName="commaaccent" x="269" y="0" flags="0x1004"/>
    </TTGlyph>
    <TTGlyph name="T" xMin="81" yMin="0" xMax="1280" yMax="1492">
      <contour>
        <pt x="372" y="85" on="1"/>
        <pt x="586" y="128" on="1"/>
        <pt x="586" y="1370" on="1"/>
        <pt x="400" y="1370" on="1"/>
        <pt x="290" y="1370" on="0"/>
        <pt x="249" y="1332" on="1"/>
        <pt x="213" y="1298" on="0"/>
        <pt x="167" y="1160" on="1"/>
        <pt x="108" y="1160" on="0"/>
        <pt x="81" y="1177" on="1"/>
        <pt x="119" y="1492" on="1"/>
        <pt x="1239" y="1492" on="1"/>
        <pt x="1280" y="1177" on="1"/>
        <pt x="1248" y="1160" on="0"/>
        <pt x="1194" y="1160" on="1"/>
        <pt x="1148" y="1299" on="0"/>
        <pt x="1089" y="1354" on="0"/>
        <pt x="1019" y="1370" on="0"/>
        <pt x="962" y="1370" on="1"/>
        <pt x="775" y="1370" on="1"/>
        <pt x="775" y="128" on="1"/>
        <pt x="992" y="85" on="1"/>
        <pt x="999" y="72" on="1"/>
        <pt x="984" y="0" on="1"/>
        <pt x="368" y="0" on="1"/>
        <pt x="363" y="9" on="1"/>
      </contour>
    </TTGlyph>
    <TTGlyph name="Tbar" xMin="81" yMin="0" xMax="1280" yMax="1492">
      <contour>
        <pt x="372" y="85" on="1"/>
        <pt x="586" y="128" on="1"/>
        <pt x="586" y="749" on="1"/>
        <pt x="309" y="749" on="1"/>
        <pt x="293" y="789" on="0"/>
        <pt x="313" y="845" on="1"/>
        <pt x="318" y="859" on="0"/>
        <pt x="323" y="867" on="1"/>
        <pt x="586" y="867" on="1"/>
        <pt x="586" y="1370" on="1"/>
        <pt x="400" y="1370" on="1"/>
        <pt x="290" y="1370" on="0"/>
        <pt x="249" y="1332" on="1"/>
        <pt x="213" y="1298" on="0"/>
        <pt x="167" y="1160" on="1"/>
        <pt x="108" y="1160" on="0"/>
        <pt x="81" y="1177" on="1"/>
        <pt x="119" y="1492" on="1"/>
        <pt x="1239" y="1492" on="1"/>
        <pt x="1280" y="1177" on="1"/>
        <pt x="1248" y="1160" on="0"/>
        <pt x="1194" y="1160" on="1"/>
        <pt x="1148" y="1299" on="0"/>
        <pt x="1089" y="1354" on="0"/>
        <pt x="1019" y="1370" on="0"/>
        <pt x="962" y="1370" on="1"/>
        <pt x="775" y="1370" on="1"/>
        <pt x="775" y="867" on="1"/>
        <pt x="1051" y="867" on="1"/>
        <pt x="1063" y="806" on="0"/>
        <pt x="1037" y="749" on="1"/>
        <pt x="775" y="749" on="1"/>
        <pt x="775" y="128" on="1"/>
        <pt x="992" y="85" on="1"/>
        <pt x="999" y="72" on="1"/>
        <pt x="984" y="0" on="1"/>
        <pt x="368" y="0" on="1"/>
        <pt x="363" y="9" on="1"/>
      </contour>
    </TTGlyph>
    <TTGlyph name="Tcaron" xMin="81" yMin="0" xMax="1280" yMax="2018">
      <component glyphName="T" x="0" y="0" flags="0x1204"/>
      <component glyphName="caron.cap" x="404" y="0" flags="0x1004"/>
    </TTGlyph>
    <TTGlyph name="Tcommaaccent" xMin="81" yMin="-534" xMax="1280" yMax="1492">
      <component glyphName="T" x="0" y="0" flags="0x1204"/>
      <component glyphName="commaaccent" x="351" y="0" flags="0x1004"/>
    </TTGlyph>
    <TTGlyph name="Thorn" xMin="58" yMin="0" xMax="1113" yMax="1492">
      <contour>
        <pt x="570" y="335" on="1"/>
        <pt x="454" y="335" on="0"/>
        <pt x="400" y="344" on="1"/>
        <pt x="400" y="128" on="1"/>
        <pt x="616" y="94" on="1"/>
        <pt x="623" y="80" on="1"/>
        <pt x="609" y="0" on="1"/>
        <pt x="65" y="0" on="1"/>
        <pt x="58" y="11" on="1"/>
        <pt x="70" y="85" on="1"/>
        <pt x="211" y="128" on="1"/>
        <pt x="211" y="1364" on="1"/>
        <pt x="65" y="1398" on="1"/>
        <pt x="58" y="1411" on="1"/>
        <pt x="72" y="1492" on="1"/>
        <pt x="548" y="1492" on="1"/>
        <pt x="553" y="1483" on="1"/>
        <pt x="542" y="1407" on="1"/>
        <pt x="400" y="1364" on="1"/>
        <pt x="400" y="1180" on="1"/>
        <pt x="634" y="1180" on="1"/>
        <pt x="1113" y="1180" on="0"/>
        <pt x="1113" y="768" on="1"/>
        <pt x="1113" y="547" on="0"/>
        <pt x="952" y="433" on="1"/>
        <pt x="814" y="335" on="0"/>
      </contour>
      <contour>
        <pt x="569" y="1063" on="1"/>
        <pt x="480" y="1063" on="0"/>
        <pt x="400" y="1043" on="1"/>
        <pt x="400" y="459" on="1"/>
        <pt x="438" y="452" on="0"/>
        <pt x="617" y="452" on="0"/>
        <pt x="757" y="486" on="0"/>
        <pt x="807" y="524" on="1"/>
        <pt x="913" y="605" on="0"/>
        <pt x="913" y="768" on="1"/>
        <pt x="913" y="889" on="0"/>
        <pt x="826" y="972" on="1"/>
        <pt x="732" y="1063" on="0"/>
      </contour>
    </TTGlyph>
    <TTGlyph name="U" xMin="50" yMin="-36" xMax="1482" yMax="1492">
      <contour>
        <pt x="179" y="1364" on="1"/>
        <pt x="57" y="1398" on="1"/>
        <pt x="50" y="1411" on="1"/>
        <pt x="64" y="1492" on="1"/>
        <pt x="540" y="1492" on="1"/>
        <pt x="545" y="1483" on="1"/>
        <pt x="534" y="1407" on="1"/>
        <pt x="368" y="1364" on="1"/>
        <pt x="368" y="560" on="1"/>
        <pt x="368" y="322" on="0"/>
        <pt x="571" y="94" on="0"/>
        <pt x="779" y="94" on="1"/>
        <pt x="956" y="94" on="0"/>
        <pt x="1076" y="200" on="1"/>
        <pt x="1201" y="311" on="0"/>
        <pt x="1201" y="499" on="1"/>
        <pt x="1201" y="1364" on="1"/>
        <pt x="1048" y="1398" on="1"/>
        <pt x="1041" y="1411" on="1"/>
        <pt x="1055" y="1492" on="1"/>
        <pt x="1477" y="1492" on="1"/>
        <pt x="1482" y="1483" on="1"/>
        <pt x="1473" y="1407" on="1"/>
        <pt x="1329" y="1364" on="1"/>
        <pt x="1329" y="492" on="1"/>
        <pt x="1329" y="255" on="0"/>
        <pt x="1168" y="110" on="1"/>
        <pt x="1004" y="-36" on="0"/>
        <pt x="733" y="-36" on="1"/>
        <pt x="466" y="-36" on="0"/>
        <pt x="321" y="103" on="1"/>
        <pt x="179" y="239" on="0"/>
        <pt x="179" y="476" on="1"/>
      </contour>
    </TTGlyph>
    <TTGlyph name="Uacute" xMin="50" yMin="-36" xMax="1482" yMax="2019">
      <component glyphName="U" x="0" y="0" flags="0x1204"/>
      <component glyphName="acute.cap" x="489" y="0" flags="0x1004"/>
    </TTGlyph>
    <TTGlyph name="Ubreve" xMin="50" yMin="-36" xMax="1482" yMax="1980">
      <component glyphName="U" x="0" y="0" flags="0x1204"/>
      <component glyphName="breve.cap" x="488" y="0" flags="0x1004"/>
    </TTGlyph>
    <TTGlyph name="Ucircumflex" xMin="50" yMin="-36" xMax="1482" yMax="2017">
      <component glyphName="U" x="0" y="0" flags="0x1204"/>
      <component glyphName="circumflex.cap" x="489" y="0" flags="0x1004"/>
    </TTGlyph>
    <TTGlyph name="Udieresis" xMin="50" yMin="-36" xMax="1482" yMax="1939">
      <component glyphName="U" x="0" y="0" flags="0x1204"/>
      <component glyphName="dieresis.cap" x="489" y="0" flags="0x1004"/>
    </TTGlyph>
    <TTGlyph name="Ugrave" xMin="50" yMin="-36" xMax="1482" yMax="2019">
      <component glyphName="U" x="0" y="0" flags="0x1204"/>
      <component glyphName="grave.cap" x="489" y="0" flags="0x1004"/>
    </TTGlyph>
    <TTGlyph name="Uhungarumlaut" xMin="50" yMin="-36" xMax="1482" yMax="2018">
      <component glyphName="U" x="0" y="0" flags="0x1204"/>
      <component glyphName="hungarumlaut.cap" x="487" y="0" flags="0x1004"/>
    </TTGlyph>
    <TTGlyph name="Umacron" xMin="50" yMin="-36" xMax="1482" yMax="1785">
      <component glyphName="U" x="0" y="0" flags="0x1204"/>
      <component glyphName="macron.cap" x="488" y="0" flags="0x1004"/>
    </TTGlyph>
    <TTGlyph name="Uogonek" xMin="50" yMin="-488" xMax="1480" yMax="1472">
      <contour>
        <pt x="820" y="-360" on="1"/>
        <pt x="860" y="-360" on="0"/>
        <pt x="955" y="-306" on="0"/>
        <pt x="956" y="-306" on="1"/>
        <pt x="962" y="-306" on="0"/>
        <pt x="975" y="-316" on="1"/>
        <pt x="1001" y="-338" on="0"/>
        <pt x="1001" y="-367" on="1"/>
        <pt x="935" y="-433" on="0"/>
        <pt x="796" y="-488" on="0"/>
        <pt x="704" y="-488" on="0"/>
        <pt x="642" y="-461" on="0"/>
        <pt x="620" y="-436" on="1"/>
        <pt x="575" y="-385" on="0"/>
        <pt x="575" y="-260" on="0"/>
        <pt x="608" y="-179" on="0"/>
        <pt x="633" y="-144" on="1"/>
        <pt x="677" y="-84" on="0"/>
        <pt x="738" y="-36" on="1"/>
        <pt x="721" y="-36" on="1"/>
        <pt x="462" y="-36" on="0"/>
        <pt x="319" y="103" on="1"/>
        <pt x="179" y="239" on="0"/>
        <pt x="179" y="476" on="1"/>
        <pt x="179" y="1344" on="1"/>
        <pt x="57" y="1378" on="1"/>
        <pt x="50" y="1391" on="1"/>
        <pt x="64" y="1472" on="1"/>
        <pt x="540" y="1472" on="1"/>
        <pt x="545" y="1463" on="1"/>
        <pt x="534" y="1387" on="1"/>
        <pt x="368" y="1344" on="1"/>
        <pt x="368" y="560" on="1"/>
        <pt x="368" y="322" on="0"/>
        <pt x="561" y="94" on="0"/>
        <pt x="759" y="94" on="1"/>
        <pt x="947" y="94" on="0"/>
        <pt x="1070" y="200" on="1"/>
        <pt x="1199" y="312" on="0"/>
        <pt x="1199" y="499" on="1"/>
        <pt x="1199" y="1344" on="1"/>
        <pt x="1053" y="1378" on="1"/>
        <pt x="1046" y="1391" on="1"/>
        <pt x="1060" y="1472" on="1"/>
        <pt x="1475" y="1472" on="1"/>
        <pt x="1480" y="1463" on="1"/>
        <pt x="1470" y="1387" on="1"/>
        <pt x="1327" y="1344" on="1"/>
        <pt x="1327" y="492" on="1"/>
        <pt x="1327" y="204" on="0"/>
        <pt x="1085" y="67" on="1"/>
        <pt x="1016" y="28" on="0"/>
        <pt x="904" y="-20" on="0"/>
        <pt x="830" y="-77" on="0"/>
        <pt x="802" y="-114" on="1"/>
        <pt x="738" y="-195" on="0"/>
        <pt x="738" y="-360" on="0"/>
      </contour>
    </TTGlyph>
    <TTGlyph name="Uring" xMin="50" yMin="-36" xMax="1482" yMax="2022">
      <component glyphName="U" x="0" y="0" flags="0x1204"/>
      <component glyphName="ring.cap" x="489" y="0" flags="0x1004"/>
    </TTGlyph>
    <TTGlyph name="Utilde" xMin="50" yMin="-36" xMax="1482" yMax="1988">
      <component glyphName="U" x="0" y="0" flags="0x1204"/>
      <component glyphName="tilde.cap" x="489" y="0" flags="0x1004"/>
    </TTGlyph>
    <TTGlyph name="V" xMin="2" yMin="-23" xMax="1529" yMax="1492">
      <contour>
        <pt x="179" y="1360" on="1"/>
        <pt x="10" y="1393" on="1"/>
        <pt x="2" y="1409" on="1"/>
        <pt x="17" y="1492" on="1"/>
        <pt x="541" y="1492" on="1"/>
        <pt x="547" y="1483" on="1"/>
        <pt x="537" y="1402" on="1"/>
        <pt x="401" y="1357" on="1"/>
        <pt x="801" y="164" on="1"/>
        <pt x="1192" y="1357" on="1"/>
        <pt x="1049" y="1393" on="1"/>
        <pt x="1042" y="1407" on="1"/>
        <pt x="1056" y="1492" on="1"/>
        <pt x="1524" y="1492" on="1"/>
        <pt x="1529" y="1483" on="1"/>
        <pt x="1519" y="1402" on="1"/>
        <pt x="1357" y="1360" on="1"/>
        <pt x="865" y="23" on="1"/>
        <pt x="790" y="-19" on="0"/>
        <pt x="678" y="-23" on="1"/>
      </contour>
    </TTGlyph>
    <TTGlyph name="W" xMin="-43" yMin="-23" xMax="2257" yMax="1492">
      <contour>
        <pt x="124" y="1364" on="1"/>
        <pt x="-36" y="1398" on="1"/>
        <pt x="-43" y="1411" on="1"/>
        <pt x="-29" y="1492" on="1"/>
        <pt x="467" y="1492" on="1"/>
        <pt x="472" y="1483" on="1"/>
        <pt x="463" y="1407" on="1"/>
        <pt x="333" y="1364" on="1"/>
        <pt x="681" y="169" on="1"/>
        <pt x="1047" y="1400" on="1"/>
        <pt x="1109" y="1462" on="0"/>
        <pt x="1225" y="1466" on="1"/>
        <pt x="1593" y="162" on="1"/>
        <pt x="1956" y="1364" on="1"/>
        <pt x="1824" y="1398" on="1"/>
        <pt x="1816" y="1411" on="1"/>
        <pt x="1831" y="1492" on="1"/>
        <pt x="2252" y="1492" on="1"/>
        <pt x="2257" y="1483" on="1"/>
        <pt x="2248" y="1407" on="1"/>
        <pt x="2095" y="1364" on="1"/>
        <pt x="1663" y="23" on="1"/>
        <pt x="1591" y="-19" on="0"/>
        <pt x="1478" y="-23" on="1"/>
        <pt x="1108" y="1204" on="1"/>
        <pt x="753" y="23" on="1"/>
        <pt x="678" y="-19" on="0"/>
        <pt x="566" y="-23" on="1"/>
      </contour>
    </TTGlyph>
    <TTGlyph name="Wacute" xMin="-43" yMin="-23" xMax="2257" yMax="2019">
      <component glyphName="W" x="0" y="0" flags="0x1204"/>
      <component glyphName="acute.cap" x="831" y="0" flags="0x1004"/>
    </TTGlyph>
    <TTGlyph name="Wcircumflex" xMin="-43" yMin="-23" xMax="2257" yMax="2017">
      <component glyphName="W" x="0" y="0" flags="0x1204"/>
      <component glyphName="circumflex.cap" x="831" y="0" flags="0x1004"/>
    </TTGlyph>
    <TTGlyph name="Wdieresis" xMin="-43" yMin="-23" xMax="2257" yMax="1939">
      <component glyphName="W" x="0" y="0" flags="0x1204"/>
      <component glyphName="dieresis.cap" x="831" y="0" flags="0x1004"/>
    </TTGlyph>
    <TTGlyph name="Wgrave" xMin="-43" yMin="-23" xMax="2257" yMax="2019">
      <component glyphName="W" x="0" y="0" flags="0x1204"/>
      <component glyphName="grave.cap" x="831" y="0" flags="0x1004"/>
    </TTGlyph>
    <TTGlyph name="X" xMin="-25" yMin="0" xMax="1387" yMax="1492">
      <contour>
        <pt x="-25" y="9" on="1"/>
        <pt x="-16" y="85" on="1"/>
        <pt x="126" y="128" on="1"/>
        <pt x="569" y="763" on="1"/>
        <pt x="156" y="1364" on="1"/>
        <pt x="17" y="1398" on="1"/>
        <pt x="10" y="1411" on="1"/>
        <pt x="25" y="1492" on="1"/>
        <pt x="538" y="1492" on="1"/>
        <pt x="542" y="1483" on="1"/>
        <pt x="533" y="1407" on="1"/>
        <pt x="382" y="1364" on="1"/>
        <pt x="697" y="902" on="1"/>
        <pt x="996" y="1364" on="1"/>
        <pt x="856" y="1398" on="1"/>
        <pt x="848" y="1411" on="1"/>
        <pt x="863" y="1492" on="1"/>
        <pt x="1317" y="1492" on="1"/>
        <pt x="1322" y="1483" on="1"/>
        <pt x="1313" y="1407" on="1"/>
        <pt x="1164" y="1364" on="1"/>
        <pt x="766" y="803" on="1"/>
        <pt x="1232" y="128" on="1"/>
        <pt x="1380" y="94" on="1"/>
        <pt x="1387" y="80" on="1"/>
        <pt x="1374" y="0" on="1"/>
        <pt x="861" y="0" on="1"/>
        <pt x="856" y="9" on="1"/>
        <pt x="865" y="85" on="1"/>
        <pt x="1007" y="128" on="1"/>
        <pt x="639" y="662" on="1"/>
        <pt x="293" y="128" on="1"/>
        <pt x="441" y="94" on="1"/>
        <pt x="448" y="80" on="1"/>
        <pt x="434" y="0" on="1"/>
        <pt x="-20" y="0" on="1"/>
      </contour>
    </TTGlyph>
    <TTGlyph name="Y" xMin="-59" yMin="0" xMax="1256" yMax="1492">
      <contour>
        <pt x="365" y="85" on="1"/>
        <pt x="509" y="128" on="1"/>
        <pt x="509" y="545" on="1"/>
        <pt x="87" y="1364" on="1"/>
        <pt x="-51" y="1398" on="1"/>
        <pt x="-59" y="1411" on="1"/>
        <pt x="-44" y="1492" on="1"/>
        <pt x="469" y="1492" on="1"/>
        <pt x="474" y="1483" on="1"/>
        <pt x="464" y="1407" on="1"/>
        <pt x="314" y="1364" on="1"/>
        <pt x="624" y="681" on="1"/>
        <pt x="936" y="1357" on="1"/>
        <pt x="790" y="1398" on="1"/>
        <pt x="783" y="1411" on="1"/>
        <pt x="797" y="1492" on="1"/>
        <pt x="1251" y="1492" on="1"/>
        <pt x="1256" y="1483" on="1"/>
        <pt x="1246" y="1407" on="1"/>
        <pt x="1098" y="1364" on="1"/>
        <pt x="698" y="559" on="1"/>
        <pt x="698" y="128" on="1"/>
        <pt x="844" y="94" on="1"/>
        <pt x="851" y="80" on="1"/>
        <pt x="837" y="0" on="1"/>
        <pt x="361" y="0" on="1"/>
        <pt x="356" y="9" on="1"/>
      </contour>
    </TTGlyph>
    <TTGlyph name="Yacute" xMin="-59" yMin="0" xMax="1256" yMax="2019">
      <component glyphName="Y" x="0" y="0" flags="0x1204"/>
      <component glyphName="acute.cap" x="322" y="0" flags="0x1004"/>
    </TTGlyph>
    <TTGlyph name="Ycircumflex" xMin="-59" yMin="0" xMax="1256" yMax="2017">
      <component glyphName="Y" x="0" y="0" flags="0x1204"/>
      <component glyphName="circumflex.cap" x="322" y="0" flags="0x1004"/>
    </TTGlyph>
    <TTGlyph name="Ydieresis" xMin="-59" yMin="0" xMax="1256" yMax="1939">
      <component glyphName="Y" x="0" y="0" flags="0x1204"/>
      <component glyphName="dieresis.cap" x="322" y="0" flags="0x1004"/>
    </TTGlyph>
    <TTGlyph name="Ygrave" xMin="-59" yMin="0" xMax="1256" yMax="2019">
      <component glyphName="Y" x="0" y="0" flags="0x1204"/>
      <component glyphName="grave.cap" x="322" y="0" flags="0x1004"/>
    </TTGlyph>
    <TTGlyph name="Z" xMin="72" yMin="0" xMax="1265" yMax="1492">
      <contour>
        <pt x="100" y="0" on="1"/>
        <pt x="77" y="26" on="0"/>
        <pt x="72" y="85" on="1"/>
        <pt x="1007" y="1379" on="1"/>
        <pt x="307" y="1379" on="1"/>
        <pt x="248" y="1169" on="1"/>
        <pt x="204" y="1157" on="0"/>
        <pt x="167" y="1164" on="1"/>
        <pt x="133" y="1492" on="1"/>
        <pt x="1250" y="1492" on="1"/>
        <pt x="1255" y="1479" on="0"/>
        <pt x="1258" y="1465" on="1"/>
        <pt x="1265" y="1431" on="0"/>
        <pt x="1257" y="1402" on="1"/>
        <pt x="343" y="113" on="1"/>
        <pt x="1071" y="113" on="1"/>
        <pt x="1129" y="323" on="1"/>
        <pt x="1157" y="330" on="0"/>
        <pt x="1195" y="330" on="0"/>
        <pt x="1212" y="328" on="1"/>
        <pt x="1245" y="0" on="1"/>
      </contour>
    </TTGlyph>
    <TTGlyph name="Zacute" xMin="72" yMin="0" xMax="1265" yMax="2019">
      <component glyphName="Z" x="0" y="0" flags="0x1204"/>
      <component glyphName="acute.cap" x="399" y="0" flags="0x1004"/>
    </TTGlyph>
    <TTGlyph name="Zcaron" xMin="72" yMin="0" xMax="1265" yMax="2018">
      <component glyphName="Z" x="0" y="0" flags="0x1204"/>
      <component glyphName="caron.cap" x="399" y="0" flags="0x1004"/>
    </TTGlyph>
    <TTGlyph name="Zdotaccent" xMin="72" yMin="0" xMax="1265" yMax="1875">
      <component glyphName="Z" x="0" y="0" flags="0x1204"/>
      <component glyphName="dotaccent.cap" x="400" y="0" flags="0x1004"/>
    </TTGlyph>
    <TTGlyph name="a" xMin="79" yMin="-36" xMax="1006" yMax="1048">
      <contour>
        <pt x="863" y="144" on="1"/>
        <pt x="885" y="144" on="0"/>
        <pt x="995" y="155" on="1"/>
        <pt x="1006" y="141" on="1"/>
        <pt x="983" y="59" on="1"/>
        <pt x="707" y="-36" on="1"/>
        <pt x="693" y="-21" on="1"/>
        <pt x="675" y="115" on="1"/>
        <pt x="615" y="66" on="1"/>
        <pt x="489" y="-36" on="0"/>
        <pt x="327" y="-36" on="0"/>
        <pt x="202" y="21" on="0"/>
        <pt x="160" y="67" on="1"/>
        <pt x="79" y="157" on="0"/>
        <pt x="79" y="285" on="1"/>
        <pt x="79" y="396" on="0"/>
        <pt x="138" y="448" on="1"/>
        <pt x="194" y="499" on="0"/>
        <pt x="487" y="544" on="0"/>
        <pt x="656" y="566" on="0"/>
        <pt x="666" y="568" on="1"/>
        <pt x="666" y="654" on="1"/>
        <pt x="666" y="923" on="0"/>
        <pt x="462" y="923" on="1"/>
        <pt x="361" y="923" on="0"/>
        <pt x="194" y="860" on="1"/>
        <pt x="154" y="889" on="0"/>
        <pt x="154" y="946" on="1"/>
        <pt x="362" y="1048" on="0"/>
        <pt x="517" y="1048" on="1"/>
        <pt x="826" y="1048" on="0"/>
        <pt x="826" y="692" on="1"/>
        <pt x="826" y="189" on="1"/>
        <pt x="826" y="144" on="0"/>
      </contour>
      <contour>
        <pt x="257" y="310" on="1"/>
        <pt x="257" y="180" on="0"/>
        <pt x="364" y="125" on="1"/>
        <pt x="397" y="108" on="0"/>
        <pt x="466" y="108" on="0"/>
        <pt x="529" y="128" on="0"/>
        <pt x="590" y="156" on="0"/>
        <pt x="618" y="172" on="1"/>
        <pt x="666" y="202" on="1"/>
        <pt x="666" y="447" on="1"/>
        <pt x="491" y="447" on="0"/>
        <pt x="257" y="404" on="0"/>
      </contour>
    </TTGlyph>
    <TTGlyph name="aacute" xMin="79" yMin="-36" xMax="1006" yMax="1589">
      <component glyphName="a" x="0" y="0" flags="0x1204"/>
      <component glyphName="acute" x="212" y="0" flags="0x1004"/>
    </TTGlyph>
    <TTGlyph name="abreve" xMin="79" yMin="-36" xMax="1006" yMax="1518">
      <component glyphName="a" x="0" y="0" flags="0x1204"/>
      <component glyphName="breve" x="106" y="0" flags="0x1004"/>
    </TTGlyph>
    <TTGlyph name="acircumflex" xMin="79" yMin="-36" xMax="1006" yMax="1621">
      <component glyphName="a" x="0" y="0" flags="0x1204"/>
      <component glyphName="circumflex" x="29" y="0" flags="0x1004"/>
    </TTGlyph>
    <TTGlyph name="acute" xMin="183" yMin="1180" xMax="584" yMax="1589">
      <contour>
        <pt x="268" y="1180" on="1"/>
        <pt x="207" y="1190" on="0"/>
        <pt x="183" y="1256" on="1"/>
        <pt x="357" y="1412" on="0"/>
        <pt x="454" y="1589" on="1"/>
        <pt x="544" y="1564" on="0"/>
        <pt x="584" y="1479" on="1"/>
        <pt x="503" y="1357" on="0"/>
        <pt x="362" y="1246" on="1"/>
        <pt x="317" y="1210" on="0"/>
      </contour>
    </TTGlyph>
    <TTGlyph name="acute.cap" xMin="76" yMin="1609" xMax="476" yMax="2019">
      <contour>
        <pt x="160" y="1609" on="1"/>
        <pt x="130" y="1615" on="0"/>
        <pt x="90" y="1647" on="0"/>
        <pt x="76" y="1685" on="1"/>
        <pt x="196" y="1793" on="0"/>
        <pt x="292" y="1932" on="1"/>
        <pt x="323" y="1976" on="0"/>
        <pt x="346" y="2019" on="1"/>
        <pt x="436" y="1994" on="0"/>
        <pt x="476" y="1909" on="1"/>
        <pt x="393" y="1785" on="0"/>
        <pt x="254" y="1675" on="1"/>
        <pt x="209" y="1639" on="0"/>
      </contour>
    </TTGlyph>
    <TTGlyph name="adieresis" xMin="79" yMin="-36" xMax="1006" yMax="1446">
      <component glyphName="a" x="0" y="0" flags="0x1204"/>
      <component glyphName="dieresis" x="88" y="0" flags="0x1004"/>
    </TTGlyph>
    <TTGlyph name="ae" xMin="125" yMin="-36" xMax="1578" yMax="1048">
      <contour>
        <pt x="1501" y="227" on="1"/>
        <pt x="1552" y="205" on="0"/>
        <pt x="1557" y="153" on="1"/>
        <pt x="1404" y="8" on="0"/>
        <pt x="1250" y="-28" on="1"/>
        <pt x="1215" y="-36" on="0"/>
        <pt x="1115" y="-36" on="0"/>
        <pt x="999" y="-4" on="0"/>
        <pt x="950" y="25" on="1"/>
        <pt x="851" y="83" on="0"/>
        <pt x="789" y="182" on="1"/>
        <pt x="760" y="153" on="1"/>
        <pt x="576" y="-36" on="0"/>
        <pt x="459" y="-36" on="1"/>
        <pt x="299" y="-36" on="0"/>
        <pt x="206" y="67" on="1"/>
        <pt x="125" y="157" on="0"/>
        <pt x="125" y="285" on="1"/>
        <pt x="125" y="396" on="0"/>
        <pt x="184" y="448" on="1"/>
        <pt x="240" y="499" on="0"/>
        <pt x="534" y="544" on="0"/>
        <pt x="702" y="566" on="0"/>
        <pt x="712" y="568" on="1"/>
        <pt x="712" y="654" on="1"/>
        <pt x="712" y="923" on="0"/>
        <pt x="508" y="923" on="1"/>
        <pt x="407" y="923" on="0"/>
        <pt x="240" y="860" on="1"/>
        <pt x="200" y="889" on="0"/>
        <pt x="200" y="946" on="1"/>
        <pt x="408" y="1048" on="0"/>
        <pt x="549" y="1048" on="1"/>
        <pt x="791" y="1048" on="0"/>
        <pt x="848" y="869" on="1"/>
        <pt x="920" y="953" on="0"/>
        <pt x="1114" y="1048" on="0"/>
        <pt x="1313" y="1048" on="0"/>
        <pt x="1446" y="981" on="0"/>
        <pt x="1490" y="924" on="1"/>
        <pt x="1578" y="812" on="0"/>
        <pt x="1578" y="638" on="1"/>
        <pt x="1578" y="589" on="0"/>
        <pt x="1569" y="553" on="1"/>
        <pt x="1559" y="530" on="0"/>
        <pt x="1157" y="530" on="1"/>
        <pt x="1024" y="530" on="1"/>
        <pt x="954" y="530" on="0"/>
        <pt x="876" y="532" on="1"/>
        <pt x="878" y="342" on="0"/>
        <pt x="1000" y="224" on="1"/>
        <pt x="1108" y="120" on="0"/>
        <pt x="1380" y="120" on="0"/>
      </contour>
      <contour>
        <pt x="959" y="624" on="1"/>
        <pt x="1239" y="624" on="0"/>
        <pt x="1397" y="643" on="1"/>
        <pt x="1397" y="750" on="0"/>
        <pt x="1332" y="840" on="1"/>
        <pt x="1263" y="937" on="0"/>
        <pt x="1166" y="937" on="1"/>
        <pt x="1060" y="937" on="0"/>
        <pt x="983" y="856" on="1"/>
        <pt x="900" y="771" on="0"/>
        <pt x="881" y="624" on="1"/>
      </contour>
      <contour>
        <pt x="751" y="243" on="1"/>
        <pt x="712" y="329" on="0"/>
        <pt x="712" y="447" on="1"/>
        <pt x="555" y="447" on="0"/>
        <pt x="429" y="429" on="1"/>
        <pt x="364" y="416" on="0"/>
        <pt x="304" y="358" on="0"/>
        <pt x="304" y="261" on="0"/>
        <pt x="330" y="195" on="0"/>
        <pt x="354" y="168" on="1"/>
        <pt x="407" y="108" on="0"/>
        <pt x="483" y="108" on="1"/>
        <pt x="568" y="108" on="0"/>
        <pt x="694" y="198" on="1"/>
        <pt x="727" y="222" on="0"/>
      </contour>
    </TTGlyph>
    <TTGlyph name="aeacute" xMin="125" yMin="-36" xMax="1578" yMax="1589">
      <component glyphName="ae" x="0" y="0" flags="0x1204"/>
      <component glyphName="acute" x="583" y="0" flags="0x1004"/>
    </TTGlyph>
    <TTGlyph name="agrave" xMin="79" yMin="-36" xMax="1006" yMax="1589">
      <component glyphName="a" x="0" y="0" flags="0x1204"/>
      <component glyphName="grave" x="212" y="0" flags="0x1004"/>
    </TTGlyph>
    <TTGlyph name="amacron" xMin="79" yMin="-36" xMax="1006" yMax="1326">
      <component glyphName="a" x="0" y="0" flags="0x1204"/>
      <component glyphName="macron" x="140" y="0" flags="0x1004"/>
    </TTGlyph>
    <TTGlyph name="ampersand" xMin="128" yMin="-49" xMax="1446" yMax="1508">
      <contour>
        <pt x="1083" y="107" on="1"/>
        <pt x="896" y="-36" on="0"/>
        <pt x="655" y="-36" on="1"/>
        <pt x="406" y="-36" on="0"/>
        <pt x="268" y="69" on="1"/>
        <pt x="128" y="174" on="0"/>
        <pt x="128" y="358" on="1"/>
        <pt x="128" y="487" on="0"/>
        <pt x="206" y="581" on="1"/>
        <pt x="262" y="648" on="0"/>
        <pt x="431" y="761" on="1"/>
        <pt x="283" y="979" on="0"/>
        <pt x="283" y="1135" on="1"/>
        <pt x="283" y="1307" on="0"/>
        <pt x="396" y="1412" on="1"/>
        <pt x="497" y="1508" on="0"/>
        <pt x="646" y="1508" on="1"/>
        <pt x="789" y="1508" on="0"/>
        <pt x="872" y="1416" on="1"/>
        <pt x="949" y="1329" on="0"/>
        <pt x="949" y="1189" on="1"/>
        <pt x="949" y="1016" on="0"/>
        <pt x="756" y="854" on="1"/>
        <pt x="701" y="808" on="0"/>
        <pt x="641" y="771" on="1"/>
        <pt x="813" y="553" on="0"/>
        <pt x="1098" y="337" on="1"/>
        <pt x="1196" y="494" on="0"/>
        <pt x="1239" y="685" on="1"/>
        <pt x="1313" y="675" on="0"/>
        <pt x="1361" y="616" on="1"/>
        <pt x="1382" y="590" on="0"/>
        <pt x="1394" y="560" on="1"/>
        <pt x="1376" y="486" on="0"/>
        <pt x="1269" y="302" on="0"/>
        <pt x="1224" y="246" on="1"/>
        <pt x="1373" y="149" on="0"/>
        <pt x="1446" y="106" on="1"/>
        <pt x="1424" y="39" on="0"/>
        <pt x="1344" y="-37" on="0"/>
        <pt x="1300" y="-49" on="1"/>
        <pt x="1160" y="48" on="0"/>
      </contour>
      <contour>
        <pt x="589" y="841" on="1"/>
        <pt x="677" y="925" on="0"/>
        <pt x="707" y="981" on="1"/>
        <pt x="756" y="1075" on="0"/>
        <pt x="756" y="1217" on="0"/>
        <pt x="733" y="1302" on="0"/>
        <pt x="712" y="1333" on="1"/>
        <pt x="665" y="1400" on="0"/>
        <pt x="585" y="1400" on="1"/>
        <pt x="536" y="1400" on="0"/>
        <pt x="506" y="1367" on="1"/>
        <pt x="448" y="1303" on="0"/>
        <pt x="448" y="1212" on="1"/>
        <pt x="448" y="1046" on="0"/>
      </contour>
      <contour>
        <pt x="485" y="688" on="1"/>
        <pt x="326" y="577" on="0"/>
        <pt x="326" y="393" on="1"/>
        <pt x="326" y="264" on="0"/>
        <pt x="415" y="174" on="1"/>
        <pt x="511" y="76" on="0"/>
        <pt x="677" y="76" on="1"/>
        <pt x="844" y="76" on="0"/>
        <pt x="977" y="193" on="1"/>
        <pt x="846" y="306" on="1"/>
        <pt x="624" y="505" on="0"/>
      </contour>
    </TTGlyph>
    <TTGlyph name="aogonek" xMin="79" yMin="-488" xMax="1006" yMax="1048">
      <contour>
        <pt x="675" y="128" on="1"/>
        <pt x="518" y="-36" on="0"/>
        <pt x="410" y="-36" on="1"/>
        <pt x="250" y="-36" on="0"/>
        <pt x="160" y="67" on="1"/>
        <pt x="79" y="158" on="0"/>
        <pt x="79" y="285" on="1"/>
        <pt x="79" y="396" on="0"/>
        <pt x="138" y="448" on="1"/>
        <pt x="194" y="499" on="0"/>
        <pt x="487" y="544" on="0"/>
        <pt x="656" y="566" on="0"/>
        <pt x="666" y="568" on="1"/>
        <pt x="666" y="654" on="1"/>
        <pt x="666" y="923" on="0"/>
        <pt x="462" y="923" on="1"/>
        <pt x="361" y="923" on="0"/>
        <pt x="194" y="860" on="1"/>
        <pt x="154" y="889" on="0"/>
        <pt x="154" y="946" on="1"/>
        <pt x="362" y="1048" on="0"/>
        <pt x="517" y="1048" on="1"/>
        <pt x="826" y="1048" on="0"/>
        <pt x="826" y="692" on="1"/>
        <pt x="826" y="189" on="1"/>
        <pt x="826" y="144" on="0"/>
        <pt x="863" y="144" on="1"/>
        <pt x="885" y="144" on="0"/>
        <pt x="995" y="155" on="1"/>
        <pt x="1006" y="141" on="1"/>
        <pt x="983" y="59" on="1"/>
        <pt x="944" y="45" on="1"/>
        <pt x="750" y="-27" on="0"/>
        <pt x="725" y="-192" on="1"/>
        <pt x="718" y="-238" on="0"/>
        <pt x="718" y="-281" on="1"/>
        <pt x="718" y="-360" on="0"/>
        <pt x="801" y="-360" on="1"/>
        <pt x="839" y="-360" on="0"/>
        <pt x="937" y="-306" on="0"/>
        <pt x="938" y="-306" on="1"/>
        <pt x="945" y="-306" on="0"/>
        <pt x="957" y="-316" on="1"/>
        <pt x="983" y="-339" on="0"/>
        <pt x="983" y="-367" on="1"/>
        <pt x="916" y="-434" on="0"/>
        <pt x="777" y="-488" on="0"/>
        <pt x="685" y="-488" on="0"/>
        <pt x="623" y="-461" on="0"/>
        <pt x="601" y="-438" on="1"/>
        <pt x="556" y="-389" on="0"/>
        <pt x="556" y="-313" on="1"/>
        <pt x="556" y="-164" on="0"/>
        <pt x="696" y="-24" on="1"/>
        <pt x="693" y="-21" on="1"/>
      </contour>
      <contour>
        <pt x="666" y="216" on="1"/>
        <pt x="666" y="447" on="1"/>
        <pt x="491" y="447" on="0"/>
        <pt x="317" y="416" on="0"/>
        <pt x="257" y="358" on="0"/>
        <pt x="257" y="261" on="0"/>
        <pt x="283" y="195" on="0"/>
        <pt x="307" y="168" on="1"/>
        <pt x="362" y="108" on="0"/>
        <pt x="522" y="108" on="0"/>
      </contour>
    </TTGlyph>
    <TTGlyph name="approxequal" xMin="131" yMin="264" xMax="1062" yMax="850">
      <contour>
        <pt x="404" y="732" on="1"/>
        <pt x="316" y="732" on="0"/>
        <pt x="190" y="606" on="1"/>
        <pt x="154" y="617" on="0"/>
        <pt x="136" y="659" on="1"/>
        <pt x="132" y="670" on="0"/>
        <pt x="131" y="679" on="1"/>
        <pt x="280" y="850" on="0"/>
        <pt x="446" y="850" on="1"/>
        <pt x="495" y="850" on="0"/>
        <pt x="582" y="811" on="0"/>
        <pt x="664" y="765" on="0"/>
        <pt x="742" y="726" on="0"/>
        <pt x="783" y="726" on="1"/>
        <pt x="897" y="726" on="0"/>
        <pt x="1002" y="849" on="1"/>
        <pt x="1052" y="830" on="0"/>
        <pt x="1062" y="776" on="1"/>
        <pt x="935" y="607" on="0"/>
        <pt x="752" y="607" on="1"/>
        <pt x="699" y="607" on="0"/>
        <pt x="612" y="646" on="0"/>
        <pt x="532" y="693" on="0"/>
        <pt x="451" y="732" on="0"/>
      </contour>
      <contour>
        <pt x="404" y="390" on="1"/>
        <pt x="316" y="390" on="0"/>
        <pt x="190" y="264" on="1"/>
        <pt x="154" y="275" on="0"/>
        <pt x="136" y="317" on="1"/>
        <pt x="132" y="328" on="0"/>
        <pt x="131" y="337" on="1"/>
        <pt x="280" y="508" on="0"/>
        <pt x="446" y="508" on="1"/>
        <pt x="495" y="508" on="0"/>
        <pt x="582" y="469" on="0"/>
        <pt x="664" y="423" on="0"/>
        <pt x="742" y="384" on="0"/>
        <pt x="783" y="384" on="1"/>
        <pt x="897" y="384" on="0"/>
        <pt x="1002" y="507" on="1"/>
        <pt x="1052" y="488" on="0"/>
        <pt x="1062" y="434" on="1"/>
        <pt x="935" y="265" on="0"/>
        <pt x="752" y="265" on="1"/>
        <pt x="699" y="265" on="0"/>
        <pt x="612" y="304" on="0"/>
        <pt x="532" y="351" on="0"/>
        <pt x="451" y="390" on="0"/>
      </contour>
    </TTGlyph>
    <TTGlyph name="aring" xMin="79" yMin="-36" xMax="1006" yMax="1663">
      <component glyphName="a" x="0" y="0" flags="0x1204"/>
      <component glyphName="ring" x="187" y="0" flags="0x1004"/>
    </TTGlyph>
    <TTGlyph name="asciicircum" xMin="72" yMin="76" xMax="1114" yMax="1221">
      <contour>
        <pt x="539" y="1171" on="1"/>
        <pt x="585" y="1221" on="0"/>
        <pt x="644" y="1209" on="1"/>
        <pt x="1114" y="174" on="1"/>
        <pt x="1084" y="88" on="0"/>
        <pt x="1028" y="80" on="1"/>
        <pt x="1003" y="76" on="0"/>
        <pt x="978" y="88" on="1"/>
        <pt x="596" y="929" on="1"/>
        <pt x="205" y="88" on="1"/>
        <pt x="139" y="101" on="0"/>
        <pt x="99" y="144" on="1"/>
        <pt x="81" y="162" on="0"/>
        <pt x="72" y="183" on="1"/>
      </contour>
    </TTGlyph>
    <TTGlyph name="asciitilde" xMin="132" yMin="450" xMax="1063" yMax="694">
      <contour>
        <pt x="405" y="576" on="1"/>
        <pt x="317" y="576" on="0"/>
        <pt x="191" y="450" on="1"/>
        <pt x="155" y="461" on="0"/>
        <pt x="138" y="503" on="1"/>
        <pt x="133" y="514" on="0"/>
        <pt x="132" y="523" on="1"/>
        <pt x="281" y="694" on="0"/>
        <pt x="447" y="694" on="1"/>
        <pt x="496" y="694" on="0"/>
        <pt x="583" y="655" on="0"/>
        <pt x="665" y="609" on="0"/>
        <pt x="743" y="570" on="0"/>
        <pt x="784" y="570" on="1"/>
        <pt x="898" y="570" on="0"/>
        <pt x="1003" y="693" on="1"/>
        <pt x="1053" y="674" on="0"/>
        <pt x="1063" y="620" on="1"/>
        <pt x="936" y="451" on="0"/>
        <pt x="753" y="451" on="1"/>
        <pt x="700" y="451" on="0"/>
        <pt x="613" y="490" on="0"/>
        <pt x="533" y="537" on="0"/>
        <pt x="452" y="576" on="0"/>
      </contour>
    </TTGlyph>
    <TTGlyph name="asterisk" xMin="157" yMin="926" xMax="869" yMax="1647">
      <contour>
        <pt x="860" y="1324" on="1"/>
        <pt x="869" y="1304" on="0"/>
        <pt x="869" y="1238" on="0"/>
        <pt x="860" y="1213" on="1"/>
        <pt x="591" y="1222" on="1"/>
        <pt x="638" y="961" on="1"/>
        <pt x="604" y="929" on="0"/>
        <pt x="532" y="926" on="1"/>
        <pt x="457" y="1178" on="1"/>
        <pt x="226" y="1060" on="1"/>
        <pt x="177" y="1086" on="0"/>
        <pt x="157" y="1149" on="1"/>
        <pt x="372" y="1295" on="1"/>
        <pt x="190" y="1481" on="1"/>
        <pt x="200" y="1530" on="0"/>
        <pt x="254" y="1571" on="1"/>
        <pt x="457" y="1404" on="1"/>
        <pt x="581" y="1644" on="1"/>
        <pt x="598" y="1647" on="1"/>
        <pt x="639" y="1647" on="0"/>
        <pt x="687" y="1613" on="1"/>
        <pt x="591" y="1366" on="1"/>
      </contour>
    </TTGlyph>
    <TTGlyph name="at" xMin="173" yMin="-459" xMax="1875" yMax="1423">
      <contour>
        <pt x="1365" y="-344" on="1"/>
        <pt x="1171" y="-459" on="0"/>
        <pt x="924" y="-459" on="1"/>
        <pt x="595" y="-459" on="0"/>
        <pt x="382" y="-239" on="1"/>
        <pt x="173" y="-22" on="0"/>
        <pt x="173" y="308" on="1"/>
        <pt x="173" y="606" on="0"/>
        <pt x="318" y="866" on="1"/>
        <pt x="457" y="1118" on="0"/>
        <pt x="696" y="1268" on="1"/>
        <pt x="940" y="1423" on="0"/>
        <pt x="1223" y="1423" on="1"/>
        <pt x="1519" y="1423" on="0"/>
        <pt x="1698" y="1231" on="1"/>
        <pt x="1875" y="1042" on="0"/>
        <pt x="1875" y="737" on="1"/>
        <pt x="1875" y="427" on="0"/>
        <pt x="1700" y="198" on="1"/>
        <pt x="1586" y="50" on="0"/>
        <pt x="1427" y="-12" on="1"/>
        <pt x="1347" y="-43" on="0"/>
        <pt x="1259" y="-45" on="1"/>
        <pt x="1230" y="-29" on="1"/>
        <pt x="1164" y="177" on="1"/>
        <pt x="978" y="-36" on="1"/>
        <pt x="804" y="-36" on="0"/>
        <pt x="700" y="72" on="1"/>
        <pt x="603" y="173" on="0"/>
        <pt x="603" y="325" on="1"/>
        <pt x="603" y="519" on="0"/>
        <pt x="694" y="696" on="1"/>
        <pt x="775" y="853" on="0"/>
        <pt x="902" y="952" on="1"/>
        <pt x="1024" y="1048" on="0"/>
        <pt x="1113" y="1048" on="1"/>
        <pt x="1302" y="1048" on="0"/>
        <pt x="1403" y="977" on="1"/>
        <pt x="1301" y="236" on="1"/>
        <pt x="1365" y="78" on="1"/>
        <pt x="1421" y="78" on="0"/>
        <pt x="1545" y="171" on="0"/>
        <pt x="1631" y="270" on="0"/>
        <pt x="1666" y="338" on="1"/>
        <pt x="1744" y="493" on="0"/>
        <pt x="1744" y="842" on="0"/>
        <pt x="1664" y="1074" on="0"/>
        <pt x="1586" y="1152" on="1"/>
        <pt x="1430" y="1310" on="0"/>
        <pt x="1133" y="1310" on="1"/>
        <pt x="907" y="1310" on="0"/>
        <pt x="713" y="1177" on="1"/>
        <pt x="526" y="1049" on="0"/>
        <pt x="416" y="836" on="1"/>
        <pt x="304" y="616" on="0"/>
        <pt x="304" y="373" on="1"/>
        <pt x="304" y="40" on="0"/>
        <pt x="472" y="-152" on="1"/>
        <pt x="653" y="-360" on="0"/>
        <pt x="994" y="-360" on="1"/>
        <pt x="1112" y="-360" on="0"/>
        <pt x="1234" y="-316" on="1"/>
        <pt x="1289" y="-297" on="0"/>
        <pt x="1334" y="-271" on="1"/>
        <pt x="1365" y="-314" on="0"/>
      </contour>
      <contour>
        <pt x="1225" y="862" on="1"/>
        <pt x="1161" y="930" on="0"/>
        <pt x="1066" y="930" on="1"/>
        <pt x="848" y="799" on="0"/>
        <pt x="795" y="501" on="1"/>
        <pt x="783" y="434" on="0"/>
        <pt x="783" y="247" on="0"/>
        <pt x="883" y="125" on="0"/>
        <pt x="980" y="125" on="1"/>
        <pt x="1155" y="297" on="1"/>
      </contour>
    </TTGlyph>
    <TTGlyph name="atilde" xMin="79" yMin="-36" xMax="1006" yMax="1498">
      <component glyphName="a" x="0" y="0" flags="0x1204"/>
      <component glyphName="tilde" x="41" y="0" flags="0x1004"/>
    </TTGlyph>
    <TTGlyph name="b" xMin="1" yMin="-36" xMax="1076" yMax="1636">
      <contour>
        <pt x="554" y="-36" on="1"/>
        <pt x="369" y="-36" on="0"/>
        <pt x="168" y="59" on="1"/>
        <pt x="168" y="1416" on="1"/>
        <pt x="8" y="1456" on="1"/>
        <pt x="1" y="1470" on="1"/>
        <pt x="8" y="1524" on="1"/>
        <pt x="311" y="1636" on="1"/>
        <pt x="327" y="1627" on="1"/>
        <pt x="327" y="923" on="1"/>
        <pt x="497" y="1048" on="0"/>
        <pt x="731" y="1048" on="0"/>
        <pt x="896" y="973" on="0"/>
        <pt x="954" y="906" on="1"/>
        <pt x="1076" y="767" on="0"/>
        <pt x="1076" y="549" on="1"/>
        <pt x="1076" y="306" on="0"/>
        <pt x="932" y="137" on="1"/>
        <pt x="783" y="-36" on="0"/>
      </contour>
      <contour>
        <pt x="327" y="834" on="1"/>
        <pt x="327" y="207" on="1"/>
        <pt x="389" y="131" on="0"/>
        <pt x="498" y="92" on="1"/>
        <pt x="544" y="76" on="0"/>
        <pt x="667" y="76" on="0"/>
        <pt x="780" y="136" on="0"/>
        <pt x="821" y="190" on="1"/>
        <pt x="909" y="306" on="0"/>
        <pt x="909" y="485" on="1"/>
        <pt x="909" y="680" on="0"/>
        <pt x="814" y="789" on="1"/>
        <pt x="721" y="895" on="0"/>
        <pt x="437" y="895" on="0"/>
      </contour>
    </TTGlyph>
    <TTGlyph name="backslash" xMin="84" yMin="-162" xMax="772" yMax="1607">
      <contour>
        <pt x="84" y="1571" on="1"/>
        <pt x="125" y="1607" on="0"/>
        <pt x="185" y="1607" on="1"/>
        <pt x="772" y="-128" on="1"/>
        <pt x="711" y="-162" on="0"/>
        <pt x="673" y="-162" on="1"/>
      </contour>
    </TTGlyph>
    <TTGlyph name="bar" xMin="197" yMin="-471" xMax="314" yMax="1766">
      <contour>
        <pt x="197" y="1766" on="1"/>
        <pt x="314" y="1766" on="1"/>
        <pt x="314" y="-471" on="1"/>
        <pt x="197" y="-471" on="1"/>
      </contour>
    </TTGlyph>
    <TTGlyph name="braceleft" xMin="141" yMin="-146" xMax="482" yMax="1569">
      <contour>
        <pt x="245" y="706" on="1"/>
        <pt x="415" y="625" on="0"/>
        <pt x="415" y="485" on="1"/>
        <pt x="415" y="415" on="0"/>
        <pt x="401" y="344" on="1"/>
        <pt x="374" y="207" on="0"/>
        <pt x="374" y="122" on="0"/>
        <pt x="396" y="39" on="0"/>
        <pt x="412" y="6" on="1"/>
        <pt x="446" y="-62" on="0"/>
        <pt x="482" y="-85" on="1"/>
        <pt x="469" y="-135" on="0"/>
        <pt x="435" y="-146" on="1"/>
        <pt x="351" y="-104" on="0"/>
        <pt x="284" y="-19" on="1"/>
        <pt x="208" y="78" on="0"/>
        <pt x="208" y="177" on="1"/>
        <pt x="208" y="236" on="0"/>
        <pt x="226" y="313" on="1"/>
        <pt x="262" y="462" on="0"/>
        <pt x="262" y="549" on="0"/>
        <pt x="244" y="576" on="1"/>
        <pt x="211" y="627" on="0"/>
        <pt x="149" y="681" on="1"/>
        <pt x="141" y="696" on="0"/>
        <pt x="141" y="710" on="1"/>
        <pt x="141" y="726" on="0"/>
        <pt x="149" y="742" on="1"/>
        <pt x="262" y="837" on="0"/>
        <pt x="262" y="946" on="0"/>
        <pt x="245" y="1032" on="0"/>
        <pt x="235" y="1074" on="1"/>
        <pt x="208" y="1187" on="0"/>
        <pt x="208" y="1299" on="0"/>
        <pt x="251" y="1399" on="0"/>
        <pt x="284" y="1442" on="1"/>
        <pt x="347" y="1523" on="0"/>
        <pt x="435" y="1569" on="1"/>
        <pt x="450" y="1564" on="0"/>
        <pt x="476" y="1531" on="0"/>
        <pt x="478" y="1508" on="1"/>
        <pt x="419" y="1463" on="0"/>
        <pt x="386" y="1342" on="1"/>
        <pt x="374" y="1301" on="0"/>
        <pt x="374" y="1220" on="0"/>
        <pt x="380" y="1185" on="1"/>
        <pt x="394" y="1112" on="1"/>
        <pt x="415" y="1006" on="0"/>
        <pt x="415" y="884" on="0"/>
        <pt x="376" y="812" on="0"/>
        <pt x="322" y="763" on="0"/>
        <pt x="293" y="748" on="1"/>
        <pt x="245" y="721" on="1"/>
      </contour>
    </TTGlyph>
    <TTGlyph name="braceright" xMin="231" yMin="-146" xMax="572" yMax="1569">
      <component glyphName="braceleft" x="713" y="0" scalex="-0.999938964844" scaley="1.0" flags="0x1004"/>
    </TTGlyph>
    <TTGlyph name="bracketleft" xMin="185" yMin="-299" xMax="498" yMax="1472">
      <contour>
        <pt x="185" y="1472" on="1"/>
        <pt x="486" y="1472" on="1"/>
        <pt x="493" y="1458" on="1"/>
        <pt x="472" y="1375" on="1"/>
        <pt x="345" y="1355" on="1"/>
        <pt x="345" y="-182" on="1"/>
        <pt x="488" y="-205" on="1"/>
        <pt x="498" y="-224" on="1"/>
        <pt x="472" y="-299" on="1"/>
        <pt x="185" y="-299" on="1"/>
      </contour>
    </TTGlyph>
    <TTGlyph name="bracketright" xMin="185" yMin="-299" xMax="498" yMax="1472">
      <contour>
        <pt x="338" y="-182" on="1"/>
        <pt x="338" y="1355" on="1"/>
        <pt x="194" y="1378" on="1"/>
        <pt x="185" y="1396" on="1"/>
        <pt x="210" y="1472" on="1"/>
        <pt x="498" y="1472" on="1"/>
        <pt x="498" y="-299" on="1"/>
        <pt x="196" y="-299" on="1"/>
        <pt x="189" y="-285" on="1"/>
        <pt x="210" y="-202" on="1"/>
      </contour>
    </TTGlyph>
    <TTGlyph name="breve" xMin="78" yMin="1211" xMax="669" yMax="1518">
      <contour>
        <pt x="370" y="1211" on="1"/>
        <pt x="307" y="1211" on="0"/>
        <pt x="207" y="1257" on="0"/>
        <pt x="171" y="1296" on="1"/>
        <pt x="105" y="1366" on="0"/>
        <pt x="78" y="1490" on="1"/>
        <pt x="112" y="1518" on="0"/>
        <pt x="160" y="1515" on="1"/>
        <pt x="196" y="1388" on="0"/>
        <pt x="298" y="1348" on="1"/>
        <pt x="333" y="1335" on="0"/>
        <pt x="375" y="1335" on="1"/>
        <pt x="542" y="1335" on="0"/>
        <pt x="593" y="1515" on="1"/>
        <pt x="642" y="1517" on="0"/>
        <pt x="669" y="1486" on="1"/>
        <pt x="650" y="1383" on="0"/>
        <pt x="572" y="1301" on="1"/>
        <pt x="486" y="1211" on="0"/>
      </contour>
    </TTGlyph>
    <TTGlyph name="breve.cap" xMin="-18" yMin="1670" xMax="573" yMax="1980">
      <contour>
        <pt x="274" y="1670" on="1"/>
        <pt x="211" y="1670" on="0"/>
        <pt x="111" y="1716" on="0"/>
        <pt x="75" y="1755" on="1"/>
        <pt x="9" y="1827" on="0"/>
        <pt x="-18" y="1950" on="1"/>
        <pt x="17" y="1980" on="0"/>
        <pt x="63" y="1973" on="1"/>
        <pt x="98" y="1849" on="0"/>
        <pt x="202" y="1808" on="1"/>
        <pt x="236" y="1795" on="0"/>
        <pt x="278" y="1795" on="1"/>
        <pt x="444" y="1795" on="0"/>
        <pt x="497" y="1973" on="1"/>
        <pt x="550" y="1976" on="0"/>
        <pt x="573" y="1946" on="1"/>
        <pt x="553" y="1841" on="0"/>
        <pt x="476" y="1760" on="1"/>
        <pt x="389" y="1670" on="0"/>
      </contour>
    </TTGlyph>
    <TTGlyph name="brokenbar" xMin="197" yMin="-471" xMax="314" yMax="1766">
      <contour>
        <pt x="197" y="1766" on="1"/>
        <pt x="314" y="1766" on="1"/>
        <pt x="314" y="746" on="1"/>
        <pt x="197" y="746" on="1"/>
      </contour>
      <contour>
        <pt x="197" y="596" on="1"/>
        <pt x="314" y="596" on="1"/>
        <pt x="314" y="-471" on="1"/>
        <pt x="197" y="-471" on="1"/>
      </contour>
    </TTGlyph>
    <TTGlyph name="bullet" xMin="63" yMin="436" xMax="448" yMax="822">
      <contour>
        <pt x="256" y="436" on="1"/>
        <pt x="176" y="436" on="0"/>
        <pt x="63" y="549" on="0"/>
        <pt x="63" y="629" on="1"/>
        <pt x="63" y="710" on="0"/>
        <pt x="120" y="765" on="1"/>
        <pt x="178" y="822" on="0"/>
        <pt x="256" y="822" on="1"/>
        <pt x="335" y="822" on="0"/>
        <pt x="392" y="765" on="1"/>
        <pt x="448" y="709" on="0"/>
        <pt x="448" y="629" on="1"/>
        <pt x="448" y="550" on="0"/>
        <pt x="392" y="492" on="1"/>
        <pt x="337" y="436" on="0"/>
      </contour>
    </TTGlyph>
    <TTGlyph name="c" xMin="102" yMin="-36" xMax="949" yMax="1048">
      <contour>
        <pt x="829" y="820" on="1"/>
        <pt x="692" y="935" on="0"/>
        <pt x="547" y="935" on="1"/>
        <pt x="434" y="935" on="0"/>
        <pt x="351" y="817" on="1"/>
        <pt x="269" y="700" on="0"/>
        <pt x="269" y="537" on="1"/>
        <pt x="269" y="345" on="0"/>
        <pt x="390" y="226" on="1"/>
        <pt x="497" y="120" on="0"/>
        <pt x="635" y="120" on="1"/>
        <pt x="790" y="120" on="0"/>
        <pt x="893" y="227" on="1"/>
        <pt x="949" y="202" on="0"/>
        <pt x="949" y="153" on="1"/>
        <pt x="794" y="8" on="0"/>
        <pt x="653" y="-28" on="1"/>
        <pt x="622" y="-36" on="0"/>
        <pt x="592" y="-36" on="1"/>
        <pt x="366" y="-36" on="0"/>
        <pt x="231" y="112" on="1"/>
        <pt x="102" y="253" on="0"/>
        <pt x="102" y="474" on="1"/>
        <pt x="102" y="712" on="0"/>
        <pt x="264" y="880" on="1"/>
        <pt x="426" y="1048" on="0"/>
        <pt x="653" y="1048" on="1"/>
        <pt x="823" y="1048" on="0"/>
        <pt x="916" y="980" on="1"/>
        <pt x="911" y="929" on="0"/>
        <pt x="859" y="844" on="0"/>
      </contour>
    </TTGlyph>
    <TTGlyph name="cacute" xMin="102" yMin="-36" xMax="949" yMax="1589">
      <component glyphName="c" x="0" y="0" flags="0x1204"/>
      <component glyphName="acute" x="318" y="0" flags="0x1004"/>
    </TTGlyph>
    <TTGlyph name="caron" xMin="97" yMin="1180" xMax="768" yMax="1600">
      <contour>
        <pt x="358" y="1187" on="1"/>
        <pt x="350" y="1201" on="0"/>
        <pt x="332" y="1226" on="1"/>
        <pt x="228" y="1370" on="0"/>
        <pt x="196" y="1409" on="1"/>
        <pt x="196" y="1409" on="0"/>
        <pt x="140" y="1478" on="1"/>
        <pt x="116" y="1507" on="0"/>
        <pt x="97" y="1526" on="1"/>
        <pt x="116" y="1561" on="0"/>
        <pt x="146" y="1588" on="0"/>
        <pt x="167" y="1597" on="1"/>
        <pt x="244" y="1545" on="0"/>
        <pt x="362" y="1402" on="1"/>
        <pt x="362" y="1402" on="0"/>
        <pt x="416" y="1337" on="1"/>
        <pt x="443" y="1337" on="1"/>
        <pt x="565" y="1483" on="0"/>
        <pt x="663" y="1577" on="0"/>
        <pt x="695" y="1600" on="1"/>
        <pt x="740" y="1580" on="0"/>
        <pt x="762" y="1546" on="0"/>
        <pt x="768" y="1531" on="1"/>
        <pt x="518" y="1221" on="0"/>
        <pt x="499" y="1187" on="1"/>
        <pt x="464" y="1180" on="0"/>
        <pt x="387" y="1180" on="0"/>
      </contour>
    </TTGlyph>
    <TTGlyph name="caron.cap" xMin="-59" yMin="1601" xMax="612" yMax="2018">
      <contour>
        <pt x="-59" y="1945" on="1"/>
        <pt x="-27" y="2001" on="0"/>
        <pt x="11" y="2016" on="1"/>
        <pt x="88" y="1966" on="0"/>
        <pt x="207" y="1822" on="1"/>
        <pt x="261" y="1757" on="1"/>
        <pt x="287" y="1757" on="1"/>
        <pt x="340" y="1820" on="1"/>
        <pt x="454" y="1957" on="0"/>
        <pt x="539" y="2018" on="1"/>
        <pt x="571" y="2006" on="0"/>
        <pt x="600" y="1980" on="0"/>
        <pt x="612" y="1951" on="1"/>
        <pt x="363" y="1640" on="0"/>
        <pt x="344" y="1607" on="1"/>
        <pt x="320" y="1601" on="0"/>
        <pt x="286" y="1601" on="1"/>
        <pt x="222" y="1601" on="0"/>
        <pt x="202" y="1607" on="1"/>
        <pt x="194" y="1620" on="0"/>
        <pt x="176" y="1645" on="1"/>
        <pt x="117" y="1730" on="0"/>
        <pt x="89" y="1766" on="1"/>
        <pt x="-16" y="1897" on="1"/>
        <pt x="-40" y="1926" on="0"/>
      </contour>
    </TTGlyph>
    <TTGlyph name="ccaron" xMin="102" yMin="-36" xMax="949" yMax="1600">
      <component glyphName="c" x="0" y="0" flags="0x1204"/>
      <component glyphName="caron" x="154" y="0" flags="0x1004"/>
    </TTGlyph>
    <TTGlyph name="ccedilla" xMin="102" yMin="-530" xMax="949" yMax="1048">
      <contour>
        <pt x="469" y="-218" on="1"/>
        <pt x="444" y="-204" on="0"/>
        <pt x="423" y="-163" on="1"/>
        <pt x="481" y="-26" on="1"/>
        <pt x="302" y="9" on="0"/>
        <pt x="200" y="148" on="1"/>
        <pt x="102" y="282" on="0"/>
        <pt x="102" y="474" on="1"/>
        <pt x="102" y="712" on="0"/>
        <pt x="264" y="880" on="1"/>
        <pt x="426" y="1048" on="0"/>
        <pt x="653" y="1048" on="1"/>
        <pt x="823" y="1048" on="0"/>
        <pt x="916" y="980" on="1"/>
        <pt x="911" y="929" on="0"/>
        <pt x="859" y="844" on="0"/>
        <pt x="829" y="820" on="1"/>
        <pt x="692" y="935" on="0"/>
        <pt x="547" y="935" on="1"/>
        <pt x="434" y="935" on="0"/>
        <pt x="351" y="817" on="1"/>
        <pt x="269" y="700" on="0"/>
        <pt x="269" y="537" on="1"/>
        <pt x="269" y="345" on="0"/>
        <pt x="390" y="226" on="1"/>
        <pt x="497" y="120" on="0"/>
        <pt x="635" y="120" on="1"/>
        <pt x="790" y="120" on="0"/>
        <pt x="893" y="227" on="1"/>
        <pt x="949" y="202" on="0"/>
        <pt x="949" y="153" on="1"/>
        <pt x="775" y="-7" on="0"/>
        <pt x="634" y="-32" on="1"/>
        <pt x="603" y="-121" on="1"/>
        <pt x="652" y="-103" on="0"/>
        <pt x="689" y="-106" on="1"/>
        <pt x="762" y="-111" on="0"/>
        <pt x="837" y="-210" on="0"/>
        <pt x="829" y="-342" on="0"/>
        <pt x="762" y="-429" on="0"/>
        <pt x="710" y="-462" on="1"/>
        <pt x="602" y="-530" on="0"/>
        <pt x="461" y="-530" on="1"/>
        <pt x="450" y="-517" on="0"/>
        <pt x="449" y="-461" on="0"/>
        <pt x="451" y="-442" on="1"/>
        <pt x="550" y="-438" on="0"/>
        <pt x="606" y="-398" on="1"/>
        <pt x="684" y="-345" on="0"/>
        <pt x="664" y="-255" on="1"/>
        <pt x="648" y="-186" on="0"/>
        <pt x="503" y="-186" on="0"/>
      </contour>
    </TTGlyph>
    <TTGlyph name="ccircumflex" xMin="102" yMin="-36" xMax="949" yMax="1621">
      <component glyphName="c" x="0" y="0" flags="0x1204"/>
      <component glyphName="circumflex" x="135" y="0" flags="0x1004"/>
    </TTGlyph>
    <TTGlyph name="cdotaccent" xMin="102" yMin="-36" xMax="949" yMax="1364">
      <component glyphName="c" x="0" y="0" flags="0x1204"/>
      <component glyphName="period" x="331" y="1148" flags="0x1004"/>
    </TTGlyph>
    <TTGlyph name="cedilla" xMin="119" yMin="-530" xMax="533" yMax="17">
      <contour>
        <pt x="165" y="-218" on="1"/>
        <pt x="140" y="-204" on="0"/>
        <pt x="119" y="-163" on="1"/>
        <pt x="196" y="17" on="1"/>
        <pt x="342" y="3" on="1"/>
        <pt x="299" y="-121" on="1"/>
        <pt x="348" y="-103" on="0"/>
        <pt x="385" y="-106" on="1"/>
        <pt x="458" y="-111" on="0"/>
        <pt x="533" y="-210" on="0"/>
        <pt x="525" y="-342" on="0"/>
        <pt x="458" y="-429" on="0"/>
        <pt x="406" y="-462" on="1"/>
        <pt x="298" y="-530" on="0"/>
        <pt x="157" y="-530" on="1"/>
        <pt x="146" y="-517" on="0"/>
        <pt x="145" y="-461" on="0"/>
        <pt x="147" y="-442" on="1"/>
        <pt x="246" y="-438" on="0"/>
        <pt x="302" y="-398" on="1"/>
        <pt x="380" y="-345" on="0"/>
        <pt x="360" y="-255" on="1"/>
        <pt x="344" y="-186" on="0"/>
        <pt x="199" y="-186" on="0"/>
      </contour>
    </TTGlyph>
    <TTGlyph name="cedilla.cap" xMin="119" yMin="-530" xMax="533" yMax="17">
      <contour>
        <pt x="165" y="-218" on="1"/>
        <pt x="140" y="-204" on="0"/>
        <pt x="119" y="-163" on="1"/>
        <pt x="196" y="17" on="1"/>
        <pt x="342" y="3" on="1"/>
        <pt x="299" y="-121" on="1"/>
        <pt x="348" y="-103" on="0"/>
        <pt x="385" y="-106" on="1"/>
        <pt x="458" y="-111" on="0"/>
        <pt x="533" y="-210" on="0"/>
        <pt x="525" y="-342" on="0"/>
        <pt x="458" y="-429" on="0"/>
        <pt x="406" y="-462" on="1"/>
        <pt x="298" y="-530" on="0"/>
        <pt x="157" y="-530" on="1"/>
        <pt x="146" y="-517" on="0"/>
        <pt x="145" y="-461" on="0"/>
        <pt x="147" y="-442" on="1"/>
        <pt x="246" y="-438" on="0"/>
        <pt x="302" y="-398" on="1"/>
        <pt x="380" y="-345" on="0"/>
        <pt x="360" y="-255" on="1"/>
        <pt x="344" y="-186" on="0"/>
        <pt x="199" y="-186" on="0"/>
      </contour>
    </TTGlyph>
    <TTGlyph name="cent" xMin="87" yMin="-319" xMax="936" yMax="1341">
      <contour>
        <pt x="584" y="122" on="1"/>
        <pt x="604" y="120" on="0"/>
        <pt x="644" y="120" on="1"/>
        <pt x="725" y="120" on="0"/>
        <pt x="812" y="173" on="1"/>
        <pt x="851" y="197" on="0"/>
        <pt x="879" y="227" on="1"/>
        <pt x="936" y="202" on="0"/>
        <pt x="936" y="153" on="1"/>
        <pt x="780" y="11" on="0"/>
        <pt x="641" y="-28" on="1"/>
        <pt x="610" y="-36" on="0"/>
        <pt x="580" y="-36" on="1"/>
        <pt x="574" y="-308" on="1"/>
        <pt x="514" y="-319" on="0"/>
        <pt x="466" y="-304" on="1"/>
        <pt x="478" y="-28" on="1"/>
        <pt x="297" y="3" on="0"/>
        <pt x="190" y="144" on="1"/>
        <pt x="87" y="279" on="0"/>
        <pt x="87" y="474" on="1"/>
        <pt x="87" y="677" on="0"/>
        <pt x="210" y="835" on="1"/>
        <pt x="329" y="989" on="0"/>
        <pt x="516" y="1034" on="1"/>
        <pt x="523" y="1326" on="1"/>
        <pt x="577" y="1341" on="0"/>
        <pt x="631" y="1321" on="1"/>
        <pt x="618" y="1047" on="1"/>
        <pt x="623" y="1048" on="0"/>
        <pt x="628" y="1048" on="1"/>
        <pt x="639" y="1048" on="1"/>
        <pt x="809" y="1048" on="0"/>
        <pt x="902" y="980" on="1"/>
        <pt x="897" y="929" on="0"/>
        <pt x="845" y="844" on="0"/>
        <pt x="815" y="820" on="1"/>
        <pt x="728" y="897" on="0"/>
        <pt x="612" y="925" on="1"/>
        <pt x="594" y="558" on="1"/>
      </contour>
      <contour>
        <pt x="507" y="584" on="1"/>
        <pt x="514" y="934" on="1"/>
        <pt x="406" y="924" on="0"/>
        <pt x="331" y="808" on="1"/>
        <pt x="255" y="691" on="0"/>
        <pt x="255" y="537" on="1"/>
        <pt x="255" y="396" on="0"/>
        <pt x="324" y="288" on="1"/>
        <pt x="384" y="195" on="0"/>
        <pt x="487" y="149" on="1"/>
      </contour>
    </TTGlyph>
    <TTGlyph name="circumflex" xMin="82" yMin="1180" xMax="797" yMax="1621">
      <contour>
        <pt x="149" y="1180" on="1"/>
        <pt x="120" y="1191" on="0"/>
        <pt x="92" y="1233" on="0"/>
        <pt x="82" y="1251" on="1"/>
        <pt x="96" y="1263" on="0"/>
        <pt x="122" y="1292" on="1"/>
        <pt x="200" y="1380" on="0"/>
        <pt x="238" y="1428" on="1"/>
        <pt x="352" y="1572" on="1"/>
        <pt x="372" y="1598" on="0"/>
        <pt x="377" y="1606" on="1"/>
        <pt x="447" y="1621" on="0"/>
        <pt x="518" y="1606" on="1"/>
        <pt x="526" y="1592" on="0"/>
        <pt x="548" y="1562" on="1"/>
        <pt x="781" y="1267" on="0"/>
        <pt x="797" y="1248" on="1"/>
        <pt x="780" y="1206" on="0"/>
        <pt x="751" y="1192" on="1"/>
        <pt x="740" y="1186" on="0"/>
        <pt x="724" y="1180" on="1"/>
        <pt x="665" y="1222" on="0"/>
        <pt x="607" y="1286" on="1"/>
        <pt x="499" y="1408" on="0"/>
        <pt x="462" y="1455" on="1"/>
        <pt x="437" y="1455" on="1"/>
        <pt x="413" y="1427" on="0"/>
        <pt x="376" y="1388" on="1"/>
        <pt x="300" y="1309" on="1"/>
        <pt x="206" y="1215" on="0"/>
      </contour>
    </TTGlyph>
    <TTGlyph name="circumflex.cap" xMin="-81" yMin="1577" xMax="634" yMax="2017">
      <contour>
        <pt x="-14" y="1577" on="1"/>
        <pt x="-44" y="1588" on="0"/>
        <pt x="-71" y="1631" on="0"/>
        <pt x="-81" y="1649" on="1"/>
        <pt x="-67" y="1661" on="0"/>
        <pt x="-40" y="1690" on="1"/>
        <pt x="37" y="1778" on="0"/>
        <pt x="75" y="1826" on="1"/>
        <pt x="189" y="1970" on="1"/>
        <pt x="209" y="1996" on="0"/>
        <pt x="214" y="2004" on="1"/>
        <pt x="284" y="2017" on="0"/>
        <pt x="355" y="2004" on="1"/>
        <pt x="363" y="1990" on="0"/>
        <pt x="386" y="1960" on="1"/>
        <pt x="607" y="1678" on="1"/>
        <pt x="628" y="1652" on="0"/>
        <pt x="634" y="1646" on="1"/>
        <pt x="617" y="1605" on="0"/>
        <pt x="588" y="1589" on="1"/>
        <pt x="576" y="1583" on="0"/>
        <pt x="560" y="1577" on="1"/>
        <pt x="479" y="1635" on="0"/>
        <pt x="354" y="1786" on="1"/>
        <pt x="299" y="1853" on="1"/>
        <pt x="274" y="1853" on="1"/>
        <pt x="250" y="1824" on="0"/>
        <pt x="214" y="1785" on="1"/>
        <pt x="136" y="1706" on="1"/>
        <pt x="38" y="1609" on="0"/>
      </contour>
    </TTGlyph>
    <TTGlyph name="colon" xMin="133" yMin="-21" xMax="378" yMax="883">
      <contour>
        <pt x="324" y="668" on="0"/>
        <pt x="278" y="645" on="0"/>
        <pt x="233" y="645" on="0"/>
        <pt x="190" y="664" on="0"/>
        <pt x="172" y="680" on="1"/>
        <pt x="133" y="716" on="0"/>
        <pt x="133" y="782" on="0"/>
        <pt x="151" y="826" on="0"/>
        <pt x="167" y="844" on="1"/>
        <pt x="203" y="883" on="0"/>
        <pt x="271" y="883" on="0"/>
        <pt x="317" y="865" on="0"/>
        <pt x="336" y="850" on="1"/>
        <pt x="378" y="814" on="0"/>
        <pt x="378" y="749" on="0"/>
        <pt x="358" y="705" on="0"/>
      </contour>
      <contour>
        <pt x="155" y="29" on="0"/>
        <pt x="133" y="71" on="0"/>
        <pt x="133" y="115" on="0"/>
        <pt x="151" y="159" on="0"/>
        <pt x="167" y="176" on="1"/>
        <pt x="203" y="216" on="0"/>
        <pt x="271" y="216" on="0"/>
        <pt x="317" y="198" on="0"/>
        <pt x="336" y="182" on="1"/>
        <pt x="378" y="147" on="0"/>
        <pt x="378" y="82" on="0"/>
        <pt x="358" y="38" on="0"/>
        <pt x="341" y="20" on="1"/>
        <pt x="302" y="-21" on="0"/>
        <pt x="253" y="-21" on="1"/>
        <pt x="211" y="-21" on="0"/>
      </contour>
    </TTGlyph>
    <TTGlyph name="comma" xMin="122" yMin="-339" xMax="390" yMax="216">
      <contour>
        <pt x="158" y="48" on="1"/>
        <pt x="145" y="65" on="0"/>
        <pt x="145" y="113" on="0"/>
        <pt x="166" y="156" on="0"/>
        <pt x="183" y="174" on="1"/>
        <pt x="223" y="216" on="0"/>
        <pt x="287" y="216" on="0"/>
        <pt x="333" y="190" on="0"/>
        <pt x="351" y="170" on="1"/>
        <pt x="390" y="125" on="0"/>
        <pt x="390" y="25" on="0"/>
        <pt x="371" y="-66" on="0"/>
        <pt x="355" y="-104" on="1"/>
        <pt x="294" y="-252" on="0"/>
        <pt x="166" y="-339" on="1"/>
        <pt x="126" y="-330" on="0"/>
        <pt x="122" y="-288" on="1"/>
        <pt x="124" y="-288" on="0"/>
        <pt x="158" y="-250" on="0"/>
        <pt x="178" y="-222" on="1"/>
        <pt x="230" y="-147" on="0"/>
        <pt x="230" y="-54" on="0"/>
        <pt x="203" y="-4" on="0"/>
        <pt x="188" y="14" on="1"/>
      </contour>
    </TTGlyph>
    <TTGlyph name="commaaccent" xMin="219" yMin="-534" xMax="464" yMax="-63">
      <contour>
        <pt x="219" y="-181" on="1"/>
        <pt x="219" y="-144" on="0"/>
        <pt x="247" y="-121" on="1"/>
        <pt x="317" y="-63" on="0"/>
        <pt x="385" y="-92" on="1"/>
        <pt x="433" y="-111" on="0"/>
        <pt x="454" y="-155" on="1"/>
        <pt x="464" y="-177" on="0"/>
        <pt x="464" y="-249" on="0"/>
        <pt x="447" y="-329" on="0"/>
        <pt x="434" y="-362" on="1"/>
        <pt x="384" y="-481" on="0"/>
        <pt x="270" y="-534" on="1"/>
        <pt x="240" y="-526" on="0"/>
        <pt x="226" y="-494" on="0"/>
        <pt x="225" y="-482" on="1"/>
        <pt x="234" y="-482" on="0"/>
        <pt x="254" y="-449" on="1"/>
        <pt x="294" y="-383" on="0"/>
        <pt x="294" y="-311" on="0"/>
        <pt x="283" y="-275" on="0"/>
        <pt x="266" y="-252" on="0"/>
        <pt x="247" y="-238" on="0"/>
        <pt x="238" y="-230" on="1"/>
        <pt x="219" y="-212" on="0"/>
      </contour>
    </TTGlyph>
    <TTGlyph name="commaaccent.cap" xMin="208" yMin="-529" xMax="453" yMax="-72">
      <contour>
        <pt x="235" y="-227" on="0"/>
        <pt x="208" y="-200" on="0"/>
        <pt x="208" y="-152" on="0"/>
        <pt x="230" y="-116" on="0"/>
        <pt x="247" y="-102" on="1"/>
        <pt x="283" y="-72" on="0"/>
        <pt x="351" y="-72" on="0"/>
        <pt x="397" y="-91" on="0"/>
        <pt x="414" y="-107" on="1"/>
        <pt x="453" y="-142" on="0"/>
        <pt x="453" y="-239" on="0"/>
        <pt x="437" y="-320" on="0"/>
        <pt x="424" y="-353" on="1"/>
        <pt x="376" y="-475" on="0"/>
        <pt x="270" y="-529" on="1"/>
        <pt x="240" y="-521" on="0"/>
        <pt x="226" y="-489" on="0"/>
        <pt x="225" y="-477" on="1"/>
        <pt x="234" y="-477" on="0"/>
        <pt x="254" y="-446" on="1"/>
        <pt x="294" y="-383" on="0"/>
        <pt x="294" y="-296" on="0"/>
        <pt x="267" y="-254" on="0"/>
      </contour>
    </TTGlyph>
    <TTGlyph name="copyright" xMin="78" yMin="-36" xMax="1625" yMax="1508">
      <contour>
        <pt x="131" y="433" on="0"/>
        <pt x="78" y="629" on="0"/>
        <pt x="78" y="894" on="0"/>
        <pt x="195" y="1175" on="0"/>
        <pt x="402" y="1386" on="0"/>
        <pt x="686" y="1508" on="0"/>
        <pt x="965" y="1508" on="0"/>
        <pt x="1166" y="1452" on="0"/>
        <pt x="1337" y="1351" on="0"/>
        <pt x="1475" y="1210" on="0"/>
        <pt x="1524" y="1124" on="1"/>
        <pt x="1625" y="947" on="0"/>
        <pt x="1625" y="735" on="1"/>
        <pt x="1625" y="415" on="0"/>
        <pt x="1406" y="192" on="1"/>
        <pt x="1265" y="48" on="0"/>
        <pt x="1066" y="-8" on="1"/>
        <pt x="965" y="-36" on="0"/>
        <pt x="742" y="-36" on="0"/>
        <pt x="540" y="20" on="0"/>
        <pt x="368" y="121" on="0"/>
        <pt x="229" y="262" on="0"/>
      </contour>
      <contour>
        <pt x="202" y="735" on="1"/>
        <pt x="202" y="449" on="0"/>
        <pt x="392" y="256" on="1"/>
        <pt x="581" y="63" on="0"/>
        <pt x="854" y="63" on="1"/>
        <pt x="991" y="63" on="0"/>
        <pt x="1230" y="166" on="0"/>
        <pt x="1318" y="256" on="1"/>
        <pt x="1508" y="449" on="0"/>
        <pt x="1508" y="735" on="1"/>
        <pt x="1508" y="1022" on="0"/>
        <pt x="1318" y="1216" on="1"/>
        <pt x="1230" y="1306" on="0"/>
        <pt x="991" y="1409" on="0"/>
        <pt x="854" y="1409" on="1"/>
        <pt x="581" y="1409" on="0"/>
        <pt x="392" y="1216" on="1"/>
        <pt x="202" y="1022" on="0"/>
      </contour>
      <contour>
        <pt x="1178" y="377" on="1"/>
        <pt x="1047" y="299" on="0"/>
        <pt x="852" y="299" on="1"/>
        <pt x="663" y="299" on="0"/>
        <pt x="544" y="422" on="1"/>
        <pt x="431" y="539" on="0"/>
        <pt x="431" y="711" on="1"/>
        <pt x="431" y="910" on="0"/>
        <pt x="558" y="1044" on="1"/>
        <pt x="688" y="1182" on="0"/>
        <pt x="885" y="1182" on="1"/>
        <pt x="1056" y="1182" on="0"/>
        <pt x="1178" y="1121" on="1"/>
        <pt x="1133" y="937" on="1"/>
        <pt x="1107" y="937" on="0"/>
        <pt x="1088" y="944" on="1"/>
        <pt x="1088" y="1008" on="0"/>
        <pt x="1079" y="1041" on="1"/>
        <pt x="1007" y="1102" on="0"/>
        <pt x="848" y="1102" on="1"/>
        <pt x="737" y="1102" on="0"/>
        <pt x="660" y="1011" on="1"/>
        <pt x="577" y="914" on="0"/>
        <pt x="577" y="756" on="1"/>
        <pt x="577" y="579" on="0"/>
        <pt x="678" y="471" on="1"/>
        <pt x="768" y="375" on="0"/>
        <pt x="897" y="375" on="1"/>
        <pt x="973" y="375" on="0"/>
        <pt x="1068" y="425" on="0"/>
        <pt x="1092" y="445" on="1"/>
        <pt x="1094" y="456" on="0"/>
        <pt x="1095" y="474" on="1"/>
        <pt x="1097" y="507" on="1"/>
        <pt x="1098" y="525" on="0"/>
        <pt x="1099" y="546" on="1"/>
        <pt x="1126" y="555" on="0"/>
        <pt x="1149" y="555" on="1"/>
      </contour>
    </TTGlyph>
    <TTGlyph name="currency" xMin="115" yMin="-61" xMax="1246" yMax="1069">
      <contour>
        <pt x="961" y="158" on="1"/>
        <pt x="838" y="52" on="0"/>
        <pt x="514" y="52" on="0"/>
        <pt x="400" y="158" on="1"/>
        <pt x="348" y="93" on="0"/>
        <pt x="321" y="61" on="1"/>
        <pt x="266" y="-2" on="1"/>
        <pt x="238" y="-33" on="0"/>
        <pt x="210" y="-61" on="1"/>
        <pt x="182" y="-40" on="1"/>
        <pt x="141" y="-8" on="0"/>
        <pt x="115" y="33" on="1"/>
        <pt x="145" y="63" on="0"/>
        <pt x="178" y="92" on="1"/>
        <pt x="261" y="165" on="0"/>
        <pt x="292" y="190" on="1"/>
        <pt x="340" y="228" on="1"/>
        <pt x="264" y="341" on="0"/>
        <pt x="264" y="646" on="0"/>
        <pt x="352" y="770" on="1"/>
        <pt x="338" y="780" on="0"/>
        <pt x="312" y="801" on="1"/>
        <pt x="184" y="910" on="1"/>
        <pt x="148" y="942" on="0"/>
        <pt x="115" y="975" on="1"/>
        <pt x="136" y="1002" on="1"/>
        <pt x="164" y="1040" on="0"/>
        <pt x="210" y="1069" on="1"/>
        <pt x="241" y="1038" on="0"/>
        <pt x="272" y="1004" on="1"/>
        <pt x="352" y="912" on="0"/>
        <pt x="375" y="882" on="1"/>
        <pt x="410" y="838" on="1"/>
        <pt x="539" y="961" on="0"/>
        <pt x="868" y="961" on="0"/>
        <pt x="975" y="869" on="1"/>
        <pt x="1096" y="1013" on="0"/>
        <pt x="1152" y="1069" on="1"/>
        <pt x="1180" y="1048" on="1"/>
        <pt x="1207" y="1027" on="0"/>
        <pt x="1224" y="1005" on="1"/>
        <pt x="1246" y="975" on="1"/>
        <pt x="1176" y="908" on="0"/>
        <pt x="1143" y="880" on="1"/>
        <pt x="1065" y="814" on="0"/>
        <pt x="1042" y="796" on="1"/>
        <pt x="1123" y="680" on="0"/>
        <pt x="1123" y="351" on="0"/>
        <pt x="1024" y="225" on="1"/>
        <pt x="1182" y="97" on="0"/>
        <pt x="1246" y="33" on="1"/>
        <pt x="1224" y="6" on="1"/>
        <pt x="1202" y="-24" on="0"/>
        <pt x="1180" y="-40" on="1"/>
        <pt x="1152" y="-61" on="1"/>
        <pt x="1123" y="-33" on="0"/>
        <pt x="1095" y="-2" on="1"/>
        <pt x="1042" y="59" on="1"/>
        <pt x="1016" y="88" on="0"/>
        <pt x="996" y="114" on="1"/>
      </contour>
      <contour>
        <pt x="446" y="678" on="1"/>
        <pt x="428" y="619" on="0"/>
        <pt x="428" y="457" on="0"/>
        <pt x="479" y="319" on="0"/>
        <pt x="520" y="268" on="1"/>
        <pt x="606" y="162" on="0"/>
        <pt x="713" y="162" on="1"/>
        <pt x="889" y="162" on="0"/>
        <pt x="940" y="328" on="1"/>
        <pt x="958" y="387" on="0"/>
        <pt x="958" y="555" on="0"/>
        <pt x="906" y="696" on="0"/>
        <pt x="866" y="746" on="1"/>
        <pt x="781" y="850" on="0"/>
        <pt x="680" y="850" on="1"/>
        <pt x="497" y="850" on="0"/>
      </contour>
    </TTGlyph>
    <TTGlyph name="d" xMin="105" yMin="-36" xMax="1196" yMax="1636">
      <contour>
        <pt x="634" y="1048" on="1"/>
        <pt x="755" y="1048" on="0"/>
        <pt x="861" y="1005" on="1"/>
        <pt x="861" y="1416" on="1"/>
        <pt x="694" y="1456" on="1"/>
        <pt x="683" y="1470" on="1"/>
        <pt x="694" y="1524" on="1"/>
        <pt x="1004" y="1636" on="1"/>
        <pt x="1020" y="1627" on="1"/>
        <pt x="1020" y="200" on="1"/>
        <pt x="1020" y="179" on="0"/>
        <pt x="1035" y="155" on="0"/>
        <pt x="1067" y="155" on="0"/>
        <pt x="1109" y="159" on="0"/>
        <pt x="1132" y="162" on="1"/>
        <pt x="1184" y="167" on="1"/>
        <pt x="1196" y="153" on="1"/>
        <pt x="1172" y="70" on="1"/>
        <pt x="904" y="-23" on="1"/>
        <pt x="889" y="-9" on="1"/>
        <pt x="873" y="103" on="1"/>
        <pt x="764" y="13" on="0"/>
        <pt x="664" y="-23" on="1"/>
        <pt x="627" y="-36" on="0"/>
        <pt x="595" y="-36" on="1"/>
        <pt x="369" y="-36" on="0"/>
        <pt x="234" y="112" on="1"/>
        <pt x="105" y="253" on="0"/>
        <pt x="105" y="474" on="1"/>
        <pt x="105" y="717" on="0"/>
        <pt x="250" y="880" on="1"/>
        <pt x="400" y="1048" on="0"/>
      </contour>
      <contour>
        <pt x="861" y="191" on="1"/>
        <pt x="861" y="815" on="1"/>
        <pt x="800" y="885" on="0"/>
        <pt x="698" y="921" on="1"/>
        <pt x="652" y="937" on="0"/>
        <pt x="525" y="937" on="0"/>
        <pt x="406" y="880" on="0"/>
        <pt x="363" y="828" on="1"/>
        <pt x="273" y="719" on="0"/>
        <pt x="273" y="537" on="1"/>
        <pt x="273" y="345" on="0"/>
        <pt x="394" y="226" on="1"/>
        <pt x="501" y="120" on="0"/>
        <pt x="754" y="120" on="0"/>
      </contour>
    </TTGlyph>
    <TTGlyph name="dagger" xMin="179" yMin="-538" xMax="1021" yMax="1481">
      <contour>
        <pt x="179" y="850" on="1"/>
        <pt x="559" y="845" on="1"/>
        <pt x="528" y="902" on="1"/>
        <pt x="563" y="1458" on="1"/>
        <pt x="608" y="1481" on="0"/>
        <pt x="642" y="1474" on="1"/>
        <pt x="676" y="910" on="1"/>
        <pt x="642" y="841" on="1"/>
        <pt x="1021" y="850" on="1"/>
        <pt x="1012" y="652" on="1"/>
        <pt x="1003" y="650" on="0"/>
        <pt x="981" y="650" on="0"/>
        <pt x="965" y="661" on="1"/>
        <pt x="939" y="735" on="1"/>
        <pt x="642" y="770" on="1"/>
        <pt x="684" y="704" on="1"/>
        <pt x="648" y="-407" on="1"/>
        <pt x="648" y="-437" on="0"/>
        <pt x="616" y="-520" on="0"/>
        <pt x="604" y="-538" on="1"/>
        <pt x="569" y="-493" on="0"/>
        <pt x="556" y="-423" on="1"/>
        <pt x="554" y="-409" on="0"/>
        <pt x="554" y="-407" on="1"/>
        <pt x="521" y="699" on="1"/>
        <pt x="559" y="770" on="1"/>
        <pt x="262" y="735" on="1"/>
        <pt x="236" y="661" on="1"/>
        <pt x="220" y="650" on="0"/>
        <pt x="198" y="650" on="0"/>
        <pt x="188" y="652" on="1"/>
      </contour>
    </TTGlyph>
    <TTGlyph name="daggerdbl" xMin="179" yMin="-539" xMax="1021" yMax="1481">
      <contour>
        <pt x="179" y="850" on="1"/>
        <pt x="559" y="845" on="1"/>
        <pt x="528" y="902" on="1"/>
        <pt x="563" y="1458" on="1"/>
        <pt x="608" y="1481" on="0"/>
        <pt x="642" y="1474" on="1"/>
        <pt x="676" y="910" on="1"/>
        <pt x="642" y="841" on="1"/>
        <pt x="1019" y="850" on="1"/>
        <pt x="1010" y="652" on="1"/>
        <pt x="1001" y="650" on="0"/>
        <pt x="979" y="650" on="0"/>
        <pt x="963" y="661" on="1"/>
        <pt x="937" y="735" on="1"/>
        <pt x="642" y="770" on="1"/>
        <pt x="684" y="704" on="1"/>
        <pt x="602" y="501" on="1"/>
        <pt x="521" y="699" on="1"/>
        <pt x="559" y="770" on="1"/>
        <pt x="262" y="735" on="1"/>
        <pt x="236" y="661" on="1"/>
        <pt x="220" y="650" on="0"/>
        <pt x="198" y="650" on="0"/>
        <pt x="188" y="652" on="1"/>
      </contour>
      <contour>
        <pt x="190" y="278" on="1"/>
        <pt x="214" y="283" on="0"/>
        <pt x="238" y="268" on="1"/>
        <pt x="263" y="195" on="1"/>
        <pt x="563" y="160" on="1"/>
        <pt x="519" y="227" on="1"/>
        <pt x="602" y="429" on="1"/>
        <pt x="682" y="227" on="1"/>
        <pt x="644" y="160" on="1"/>
        <pt x="938" y="195" on="1"/>
        <pt x="963" y="268" on="1"/>
        <pt x="987" y="283" on="0"/>
        <pt x="1011" y="278" on="1"/>
        <pt x="1021" y="80" on="1"/>
        <pt x="642" y="100" on="1"/>
        <pt x="675" y="21" on="1"/>
        <pt x="638" y="-518" on="1"/>
        <pt x="584" y="-539" on="0"/>
        <pt x="560" y="-534" on="1"/>
        <pt x="524" y="21" on="1"/>
        <pt x="559" y="96" on="1"/>
        <pt x="180" y="80" on="1"/>
      </contour>
    </TTGlyph>
    <TTGlyph name="dcaron" xMin="105" yMin="-36" xMax="1387" yMax="1636">
      <component glyphName="d" x="0" y="0" flags="0x1004"/>
      <component glyphName="comma" x="997" y="1420" flags="0x1004"/>
    </TTGlyph>
    <TTGlyph name="dcroat" xMin="105" yMin="-36" xMax="1196" yMax="1636">
      <contour>
        <pt x="634" y="1048" on="1"/>
        <pt x="755" y="1048" on="0"/>
        <pt x="861" y="1005" on="1"/>
        <pt x="861" y="1168" on="1"/>
        <pt x="593" y="1168" on="1"/>
        <pt x="572" y="1230" on="0"/>
        <pt x="607" y="1286" on="1"/>
        <pt x="861" y="1286" on="1"/>
        <pt x="861" y="1416" on="1"/>
        <pt x="694" y="1456" on="1"/>
        <pt x="683" y="1470" on="1"/>
        <pt x="694" y="1524" on="1"/>
        <pt x="1004" y="1636" on="1"/>
        <pt x="1020" y="1627" on="1"/>
        <pt x="1020" y="1286" on="1"/>
        <pt x="1126" y="1286" on="1"/>
        <pt x="1139" y="1218" on="0"/>
        <pt x="1112" y="1168" on="1"/>
        <pt x="1020" y="1168" on="1"/>
        <pt x="1020" y="200" on="1"/>
        <pt x="1020" y="179" on="0"/>
        <pt x="1035" y="155" on="0"/>
        <pt x="1067" y="155" on="0"/>
        <pt x="1109" y="159" on="0"/>
        <pt x="1132" y="162" on="1"/>
        <pt x="1184" y="167" on="1"/>
        <pt x="1196" y="153" on="1"/>
        <pt x="1172" y="70" on="1"/>
        <pt x="904" y="-23" on="1"/>
        <pt x="889" y="-9" on="1"/>
        <pt x="873" y="103" on="1"/>
        <pt x="764" y="13" on="0"/>
        <pt x="664" y="-23" on="1"/>
        <pt x="627" y="-36" on="0"/>
        <pt x="595" y="-36" on="1"/>
        <pt x="369" y="-36" on="0"/>
        <pt x="234" y="112" on="1"/>
        <pt x="105" y="253" on="0"/>
        <pt x="105" y="474" on="1"/>
        <pt x="105" y="717" on="0"/>
        <pt x="250" y="880" on="1"/>
        <pt x="400" y="1048" on="0"/>
      </contour>
      <contour>
        <pt x="861" y="191" on="1"/>
        <pt x="861" y="815" on="1"/>
        <pt x="800" y="885" on="0"/>
        <pt x="698" y="921" on="1"/>
        <pt x="652" y="937" on="0"/>
        <pt x="525" y="937" on="0"/>
        <pt x="406" y="880" on="0"/>
        <pt x="363" y="828" on="1"/>
        <pt x="273" y="719" on="0"/>
        <pt x="273" y="537" on="1"/>
        <pt x="273" y="345" on="0"/>
        <pt x="394" y="226" on="1"/>
        <pt x="501" y="120" on="0"/>
        <pt x="754" y="120" on="0"/>
      </contour>
    </TTGlyph>
    <TTGlyph name="degree" xMin="172" yMin="1013" xMax="680" yMax="1508">
      <contour>
        <pt x="424" y="1013" on="1"/>
        <pt x="372" y="1013" on="0"/>
        <pt x="280" y="1052" on="0"/>
        <pt x="246" y="1086" on="1"/>
        <pt x="172" y="1158" on="0"/>
        <pt x="172" y="1260" on="1"/>
        <pt x="172" y="1360" on="0"/>
        <pt x="320" y="1508" on="0"/>
        <pt x="424" y="1508" on="1"/>
        <pt x="529" y="1508" on="0"/>
        <pt x="605" y="1434" on="1"/>
        <pt x="680" y="1361" on="0"/>
        <pt x="680" y="1260" on="1"/>
        <pt x="680" y="1157" on="0"/>
        <pt x="605" y="1086" on="1"/>
        <pt x="529" y="1013" on="0"/>
      </contour>
      <contour>
        <pt x="345" y="1124" on="0"/>
        <pt x="397" y="1102" on="0"/>
        <pt x="457" y="1102" on="0"/>
        <pt x="510" y="1127" on="0"/>
        <pt x="530" y="1148" on="1"/>
        <pt x="572" y="1195" on="0"/>
        <pt x="572" y="1260" on="1"/>
        <pt x="572" y="1325" on="0"/>
        <pt x="483" y="1418" on="0"/>
        <pt x="422" y="1418" on="1"/>
        <pt x="362" y="1418" on="0"/>
        <pt x="320" y="1370" on="1"/>
        <pt x="280" y="1325" on="0"/>
        <pt x="280" y="1224" on="0"/>
        <pt x="304" y="1166" on="0"/>
      </contour>
    </TTGlyph>
    <TTGlyph name="dieresis" xMin="60" yMin="1208" xMax="724" yMax="1446">
      <contour>
        <pt x="670" y="1231" on="0"/>
        <pt x="625" y="1208" on="0"/>
        <pt x="580" y="1208" on="0"/>
        <pt x="537" y="1227" on="0"/>
        <pt x="520" y="1242" on="1"/>
        <pt x="479" y="1278" on="0"/>
        <pt x="479" y="1344" on="0"/>
        <pt x="497" y="1388" on="0"/>
        <pt x="513" y="1406" on="1"/>
        <pt x="549" y="1446" on="0"/>
        <pt x="597" y="1446" on="1"/>
        <pt x="642" y="1446" on="0"/>
        <pt x="671" y="1422" on="1"/>
        <pt x="724" y="1377" on="0"/>
        <pt x="724" y="1333" on="1"/>
        <pt x="724" y="1288" on="0"/>
      </contour>
      <contour>
        <pt x="251" y="1231" on="0"/>
        <pt x="205" y="1208" on="0"/>
        <pt x="160" y="1208" on="0"/>
        <pt x="117" y="1227" on="0"/>
        <pt x="100" y="1242" on="1"/>
        <pt x="60" y="1277" on="0"/>
        <pt x="60" y="1344" on="0"/>
        <pt x="78" y="1388" on="0"/>
        <pt x="94" y="1406" on="1"/>
        <pt x="130" y="1446" on="0"/>
        <pt x="178" y="1446" on="1"/>
        <pt x="223" y="1446" on="0"/>
        <pt x="252" y="1422" on="1"/>
        <pt x="305" y="1377" on="0"/>
        <pt x="305" y="1333" on="1"/>
        <pt x="305" y="1288" on="0"/>
      </contour>
    </TTGlyph>
    <TTGlyph name="dieresis.cap" xMin="-36" yMin="1700" xMax="589" yMax="1939">
      <contour>
        <pt x="535" y="1723" on="0"/>
        <pt x="489" y="1700" on="0"/>
        <pt x="443" y="1700" on="0"/>
        <pt x="400" y="1719" on="0"/>
        <pt x="383" y="1736" on="1"/>
        <pt x="344" y="1773" on="0"/>
        <pt x="344" y="1838" on="0"/>
        <pt x="362" y="1881" on="0"/>
        <pt x="378" y="1899" on="1"/>
        <pt x="414" y="1939" on="0"/>
        <pt x="483" y="1939" on="0"/>
        <pt x="528" y="1921" on="0"/>
        <pt x="546" y="1906" on="1"/>
        <pt x="589" y="1870" on="0"/>
        <pt x="589" y="1805" on="0"/>
        <pt x="569" y="1760" on="0"/>
      </contour>
      <contour>
        <pt x="156" y="1723" on="0"/>
        <pt x="110" y="1700" on="0"/>
        <pt x="65" y="1700" on="0"/>
        <pt x="22" y="1719" on="0"/>
        <pt x="4" y="1736" on="1"/>
        <pt x="-36" y="1774" on="0"/>
        <pt x="-36" y="1838" on="0"/>
        <pt x="-18" y="1881" on="0"/>
        <pt x="-2" y="1899" on="1"/>
        <pt x="34" y="1939" on="0"/>
        <pt x="83" y="1939" on="1"/>
        <pt x="128" y="1939" on="0"/>
        <pt x="157" y="1914" on="1"/>
        <pt x="209" y="1869" on="0"/>
        <pt x="209" y="1826" on="1"/>
        <pt x="209" y="1782" on="0"/>
      </contour>
    </TTGlyph>
    <TTGlyph name="divide" xMin="142" yMin="130" xMax="1041" yMax="1034">
      <contour>
        <pt x="656" y="819" on="0"/>
        <pt x="610" y="796" on="0"/>
        <pt x="564" y="796" on="0"/>
        <pt x="521" y="815" on="0"/>
        <pt x="504" y="831" on="1"/>
        <pt x="465" y="868" on="0"/>
        <pt x="465" y="933" on="0"/>
        <pt x="483" y="976" on="0"/>
        <pt x="499" y="994" on="1"/>
        <pt x="535" y="1034" on="0"/>
        <pt x="603" y="1034" on="0"/>
        <pt x="648" y="1016" on="0"/>
        <pt x="667" y="1000" on="1"/>
        <pt x="710" y="965" on="0"/>
        <pt x="710" y="900" on="0"/>
        <pt x="690" y="856" on="0"/>
      </contour>
      <contour>
        <pt x="1041" y="593" on="0"/>
        <pt x="1041" y="566" on="0"/>
        <pt x="1032" y="532" on="1"/>
        <pt x="161" y="532" on="1"/>
        <pt x="142" y="579" on="0"/>
        <pt x="161" y="627" on="1"/>
        <pt x="1032" y="627" on="1"/>
      </contour>
      <contour>
        <pt x="487" y="180" on="0"/>
        <pt x="465" y="222" on="0"/>
        <pt x="465" y="266" on="0"/>
        <pt x="483" y="309" on="0"/>
        <pt x="499" y="327" on="1"/>
        <pt x="535" y="367" on="0"/>
        <pt x="603" y="367" on="0"/>
        <pt x="648" y="349" on="0"/>
        <pt x="667" y="334" on="1"/>
        <pt x="710" y="298" on="0"/>
        <pt x="710" y="233" on="0"/>
        <pt x="690" y="189" on="0"/>
        <pt x="673" y="171" on="1"/>
        <pt x="634" y="130" on="0"/>
        <pt x="584" y="130" on="1"/>
        <pt x="542" y="130" on="0"/>
      </contour>
    </TTGlyph>
    <TTGlyph name="dollar" xMin="134" yMin="-185" xMax="1082" yMax="1656">
      <contour>
        <pt x="204" y="407" on="1"/>
        <pt x="248" y="412" on="0"/>
        <pt x="283" y="393" on="1"/>
        <pt x="283" y="268" on="0"/>
        <pt x="294" y="224" on="1"/>
        <pt x="384" y="137" on="0"/>
        <pt x="528" y="100" on="1"/>
        <pt x="552" y="655" on="1"/>
        <pt x="367" y="747" on="0"/>
        <pt x="233" y="873" on="0"/>
        <pt x="166" y="1004" on="0"/>
        <pt x="166" y="1173" on="0"/>
        <pt x="227" y="1316" on="0"/>
        <pt x="282" y="1370" on="1"/>
        <pt x="395" y="1484" on="0"/>
        <pt x="574" y="1504" on="1"/>
        <pt x="578" y="1639" on="1"/>
        <pt x="635" y="1656" on="0"/>
        <pt x="687" y="1634" on="1"/>
        <pt x="681" y="1506" on="1"/>
        <pt x="811" y="1498" on="0"/>
        <pt x="1007" y="1420" on="0"/>
        <pt x="1056" y="1391" on="1"/>
        <pt x="985" y="1079" on="1"/>
        <pt x="951" y="1073" on="0"/>
        <pt x="908" y="1090" on="1"/>
        <pt x="908" y="1123" on="0"/>
        <pt x="904" y="1183" on="0"/>
        <pt x="900" y="1243" on="0"/>
        <pt x="895" y="1263" on="1"/>
        <pt x="802" y="1337" on="0"/>
        <pt x="674" y="1364" on="1"/>
        <pt x="649" y="845" on="1"/>
        <pt x="726" y="807" on="0"/>
        <pt x="880" y="723" on="0"/>
        <pt x="942" y="669" on="1"/>
        <pt x="1082" y="547" on="0"/>
        <pt x="1082" y="377" on="1"/>
        <pt x="1082" y="200" on="0"/>
        <pt x="957" y="90" on="1"/>
        <pt x="833" y="-20" on="0"/>
        <pt x="628" y="-34" on="1"/>
        <pt x="626" y="-173" on="1"/>
        <pt x="567" y="-185" on="0"/>
        <pt x="517" y="-167" on="1"/>
        <pt x="522" y="-35" on="1"/>
        <pt x="352" y="-27" on="0"/>
        <pt x="225" y="34" on="1"/>
        <pt x="170" y="61" on="0"/>
        <pt x="134" y="94" on="1"/>
      </contour>
      <contour>
        <pt x="571" y="1377" on="1"/>
        <pt x="564" y="1378" on="0"/>
        <pt x="558" y="1378" on="1"/>
        <pt x="545" y="1378" on="1"/>
        <pt x="442" y="1378" on="0"/>
        <pt x="384" y="1314" on="1"/>
        <pt x="331" y="1257" on="0"/>
        <pt x="331" y="1155" on="1"/>
        <pt x="331" y="1035" on="0"/>
        <pt x="470" y="944" on="1"/>
        <pt x="512" y="916" on="0"/>
        <pt x="560" y="891" on="1"/>
      </contour>
      <contour>
        <pt x="651" y="85" on="1"/>
        <pt x="833" y="85" on="0"/>
        <pt x="890" y="220" on="1"/>
        <pt x="911" y="268" on="0"/>
        <pt x="911" y="384" on="0"/>
        <pt x="868" y="461" on="0"/>
        <pt x="831" y="494" on="1"/>
        <pt x="775" y="543" on="0"/>
        <pt x="641" y="611" on="1"/>
        <pt x="631" y="85" on="1"/>
      </contour>
    </TTGlyph>
    <TTGlyph name="dotaccent" xMin="79" yMin="1127" xMax="324" yMax="1364">
      <component glyphName="period" x="-54" y="1148" flags="0x1004"/>
    </TTGlyph>
    <TTGlyph name="dotaccent.cap" xMin="153" yMin="1638" xMax="398" yMax="1875">
      <contour>
        <pt x="345" y="1661" on="0"/>
        <pt x="299" y="1638" on="0"/>
        <pt x="253" y="1638" on="0"/>
        <pt x="210" y="1657" on="0"/>
        <pt x="192" y="1672" on="1"/>
        <pt x="153" y="1707" on="0"/>
        <pt x="153" y="1774" on="0"/>
        <pt x="171" y="1817" on="0"/>
        <pt x="187" y="1835" on="1"/>
        <pt x="223" y="1875" on="0"/>
        <pt x="271" y="1875" on="1"/>
        <pt x="316" y="1875" on="0"/>
        <pt x="345" y="1850" on="1"/>
        <pt x="398" y="1806" on="0"/>
        <pt x="398" y="1762" on="1"/>
        <pt x="398" y="1719" on="0"/>
      </contour>
    </TTGlyph>
    <TTGlyph name="dotlessi" xMin="122" yMin="0" xMax="596" yMax="1029">
      <contour>
        <pt x="140" y="85" on="1"/>
        <pt x="272" y="128" on="1"/>
        <pt x="272" y="789" on="1"/>
        <pt x="133" y="848" on="1"/>
        <pt x="122" y="860" on="1"/>
        <pt x="133" y="914" on="1"/>
        <pt x="415" y="1029" on="1"/>
        <pt x="432" y="1020" on="1"/>
        <pt x="432" y="128" on="1"/>
        <pt x="592" y="94" on="1"/>
        <pt x="596" y="80" on="1"/>
        <pt x="585" y="0" on="1"/>
        <pt x="137" y="0" on="1"/>
        <pt x="130" y="9" on="1"/>
      </contour>
    </TTGlyph>
    <TTGlyph name="dotlessj" xMin="83" yMin="-535" xMax="450" yMax="1029">
      <contour>
        <pt x="290" y="789" on="1"/>
        <pt x="153" y="848" on="1"/>
        <pt x="144" y="860" on="1"/>
        <pt x="153" y="914" on="1"/>
        <pt x="434" y="1029" on="1"/>
        <pt x="450" y="1020" on="1"/>
        <pt x="450" y="-14" on="1"/>
        <pt x="450" y="-227" on="0"/>
        <pt x="333" y="-370" on="1"/>
        <pt x="256" y="-465" on="0"/>
        <pt x="116" y="-535" on="1"/>
        <pt x="86" y="-505" on="0"/>
        <pt x="83" y="-450" on="1"/>
        <pt x="162" y="-417" on="0"/>
        <pt x="222" y="-313" on="1"/>
        <pt x="290" y="-195" on="0"/>
        <pt x="290" y="-45" on="1"/>
      </contour>
    </TTGlyph>
    <TTGlyph name="e" xMin="80" yMin="-36" xMax="948" yMax="1048">
      <contour>
        <pt x="871" y="227" on="1"/>
        <pt x="923" y="206" on="0"/>
        <pt x="928" y="153" on="1"/>
        <pt x="775" y="8" on="0"/>
        <pt x="620" y="-28" on="1"/>
        <pt x="586" y="-36" on="0"/>
        <pt x="551" y="-36" on="1"/>
        <pt x="341" y="-36" on="0"/>
        <pt x="210" y="112" on="1"/>
        <pt x="80" y="257" on="0"/>
        <pt x="80" y="474" on="1"/>
        <pt x="80" y="710" on="0"/>
        <pt x="235" y="880" on="1"/>
        <pt x="306" y="958" on="0"/>
        <pt x="492" y="1048" on="0"/>
        <pt x="683" y="1048" on="0"/>
        <pt x="816" y="981" on="0"/>
        <pt x="860" y="924" on="1"/>
        <pt x="948" y="812" on="0"/>
        <pt x="948" y="638" on="1"/>
        <pt x="948" y="589" on="0"/>
        <pt x="939" y="553" on="1"/>
        <pt x="928" y="528" on="0"/>
        <pt x="528" y="528" on="1"/>
        <pt x="395" y="528" on="0"/>
        <pt x="247" y="532" on="1"/>
        <pt x="249" y="341" on="0"/>
        <pt x="370" y="224" on="1"/>
        <pt x="478" y="120" on="0"/>
        <pt x="750" y="120" on="0"/>
      </contour>
      <contour>
        <pt x="330" y="624" on="1"/>
        <pt x="630" y="624" on="0"/>
        <pt x="768" y="643" on="1"/>
        <pt x="768" y="750" on="0"/>
        <pt x="704" y="840" on="1"/>
        <pt x="634" y="937" on="0"/>
        <pt x="537" y="937" on="1"/>
        <pt x="431" y="937" on="0"/>
        <pt x="354" y="858" on="1"/>
        <pt x="271" y="775" on="0"/>
        <pt x="252" y="624" on="1"/>
      </contour>
    </TTGlyph>
    <TTGlyph name="eacute" xMin="80" yMin="-36" xMax="948" yMax="1589">
      <component glyphName="e" x="0" y="0" flags="0x1204"/>
      <component glyphName="acute" x="300" y="0" flags="0x1004"/>
    </TTGlyph>
    <TTGlyph name="ebreve" xMin="80" yMin="-36" xMax="948" yMax="1518">
      <component glyphName="e" x="0" y="0" flags="0x1204"/>
      <component glyphName="breve" x="194" y="0" flags="0x1004"/>
    </TTGlyph>
    <TTGlyph name="ecaron" xMin="80" yMin="-36" xMax="948" yMax="1600">
      <component glyphName="e" x="0" y="0" flags="0x1204"/>
      <component glyphName="caron" x="136" y="0" flags="0x1004"/>
    </TTGlyph>
    <TTGlyph name="ecircumflex" xMin="80" yMin="-36" xMax="948" yMax="1621">
      <component glyphName="e" x="0" y="0" flags="0x1204"/>
      <component glyphName="circumflex" x="117" y="0" flags="0x1004"/>
    </TTGlyph>
    <TTGlyph name="edieresis" xMin="80" yMin="-36" xMax="948" yMax="1446">
      <component glyphName="e" x="0" y="0" flags="0x1204"/>
      <component glyphName="dieresis" x="176" y="0" flags="0x1004"/>
    </TTGlyph>
    <TTGlyph name="edotaccent" xMin="80" yMin="-36" xMax="948" yMax="1364">
      <component glyphName="e" x="0" y="0" flags="0x1204"/>
      <component glyphName="period" x="313" y="1148" flags="0x1004"/>
    </TTGlyph>
    <TTGlyph name="egrave" xMin="80" yMin="-36" xMax="948" yMax="1589">
      <component glyphName="e" x="0" y="0" flags="0x1204"/>
      <component glyphName="grave" x="300" y="0" flags="0x1004"/>
    </TTGlyph>
    <TTGlyph name="eight" xMin="132" yMin="-36" xMax="1064" yMax="1400">
      <contour>
        <pt x="132" y="313" on="1"/>
        <pt x="132" y="535" on="0"/>
        <pt x="422" y="711" on="1"/>
        <pt x="296" y="784" on="0"/>
        <pt x="251" y="836" on="1"/>
        <pt x="166" y="934" on="0"/>
        <pt x="166" y="1120" on="0"/>
        <pt x="236" y="1255" on="0"/>
        <pt x="296" y="1302" on="1"/>
        <pt x="423" y="1400" on="0"/>
        <pt x="615" y="1400" on="1"/>
        <pt x="797" y="1400" on="0"/>
        <pt x="904" y="1310" on="1"/>
        <pt x="1002" y="1226" on="0"/>
        <pt x="1002" y="1095" on="1"/>
        <pt x="1002" y="957" on="0"/>
        <pt x="828" y="820" on="1"/>
        <pt x="777" y="780" on="0"/>
        <pt x="719" y="742" on="1"/>
        <pt x="880" y="657" on="0"/>
        <pt x="1004" y="540" on="0"/>
        <pt x="1064" y="429" on="0"/>
        <pt x="1064" y="261" on="0"/>
        <pt x="990" y="113" on="0"/>
        <pt x="924" y="64" on="1"/>
        <pt x="791" y="-36" on="0"/>
        <pt x="573" y="-36" on="1"/>
        <pt x="367" y="-36" on="0"/>
        <pt x="246" y="68" on="1"/>
        <pt x="132" y="166" on="0"/>
      </contour>
      <contour>
        <pt x="620" y="793" on="1"/>
        <pt x="784" y="896" on="0"/>
        <pt x="812" y="1000" on="1"/>
        <pt x="822" y="1036" on="0"/>
        <pt x="822" y="1123" on="0"/>
        <pt x="787" y="1201" on="0"/>
        <pt x="755" y="1230" on="1"/>
        <pt x="685" y="1293" on="0"/>
        <pt x="575" y="1293" on="1"/>
        <pt x="397" y="1293" on="0"/>
        <pt x="342" y="1174" on="1"/>
        <pt x="324" y="1137" on="0"/>
        <pt x="324" y="1042" on="0"/>
        <pt x="374" y="958" on="0"/>
        <pt x="415" y="922" on="1"/>
        <pt x="475" y="869" on="0"/>
      </contour>
      <contour>
        <pt x="512" y="659" on="1"/>
        <pt x="317" y="538" on="0"/>
        <pt x="317" y="332" on="1"/>
        <pt x="317" y="224" on="0"/>
        <pt x="390" y="152" on="1"/>
        <pt x="473" y="70" on="0"/>
        <pt x="615" y="70" on="1"/>
        <pt x="726" y="70" on="0"/>
        <pt x="806" y="130" on="1"/>
        <pt x="899" y="200" on="0"/>
        <pt x="899" y="321" on="1"/>
        <pt x="899" y="444" on="0"/>
        <pt x="660" y="578" on="1"/>
      </contour>
    </TTGlyph>
    <TTGlyph name="ellipsis" xMin="133" yMin="-21" xMax="1402" yMax="236">
      <contour>
        <pt x="1179" y="29" on="0"/>
        <pt x="1157" y="71" on="0"/>
        <pt x="1157" y="115" on="0"/>
        <pt x="1175" y="159" on="0"/>
        <pt x="1191" y="176" on="1"/>
        <pt x="1245" y="236" on="0"/>
        <pt x="1318" y="207" on="1"/>
        <pt x="1365" y="188" on="0"/>
        <pt x="1402" y="126" on="0"/>
        <pt x="1402" y="82" on="0"/>
        <pt x="1382" y="38" on="0"/>
        <pt x="1364" y="20" on="1"/>
        <pt x="1325" y="-21" on="0"/>
        <pt x="1276" y="-21" on="1"/>
        <pt x="1234" y="-21" on="0"/>
      </contour>
      <contour>
        <pt x="667" y="29" on="0"/>
        <pt x="645" y="71" on="0"/>
        <pt x="645" y="115" on="0"/>
        <pt x="663" y="159" on="0"/>
        <pt x="679" y="176" on="1"/>
        <pt x="733" y="236" on="0"/>
        <pt x="806" y="207" on="1"/>
        <pt x="853" y="188" on="0"/>
        <pt x="890" y="126" on="0"/>
        <pt x="890" y="82" on="0"/>
        <pt x="870" y="38" on="0"/>
        <pt x="852" y="20" on="1"/>
        <pt x="813" y="-21" on="0"/>
        <pt x="764" y="-21" on="1"/>
        <pt x="722" y="-21" on="0"/>
      </contour>
      <contour>
        <pt x="155" y="29" on="0"/>
        <pt x="133" y="71" on="0"/>
        <pt x="133" y="115" on="0"/>
        <pt x="151" y="159" on="0"/>
        <pt x="167" y="176" on="1"/>
        <pt x="203" y="216" on="0"/>
        <pt x="271" y="216" on="0"/>
        <pt x="317" y="198" on="0"/>
        <pt x="336" y="182" on="1"/>
        <pt x="378" y="147" on="0"/>
        <pt x="378" y="82" on="0"/>
        <pt x="358" y="38" on="0"/>
        <pt x="340" y="20" on="1"/>
        <pt x="301" y="-21" on="0"/>
        <pt x="252" y="-21" on="1"/>
        <pt x="210" y="-21" on="0"/>
      </contour>
    </TTGlyph>
    <TTGlyph name="emacron" xMin="80" yMin="-36" xMax="948" yMax="1326">
      <component glyphName="e" x="0" y="0" flags="0x1204"/>
      <component glyphName="macron" x="228" y="0" flags="0x1004"/>
    </TTGlyph>
    <TTGlyph name="emdash" xMin="141" yMin="532" xMax="1554" yMax="627">
      <contour>
        <pt x="1554" y="593" on="0"/>
        <pt x="1554" y="566" on="0"/>
        <pt x="1545" y="532" on="1"/>
        <pt x="158" y="532" on="1"/>
        <pt x="141" y="579" on="0"/>
        <pt x="158" y="627" on="1"/>
        <pt x="1545" y="627" on="1"/>
      </contour>
    </TTGlyph>
    <TTGlyph name="endash" xMin="145" yMin="532" xMax="1042" yMax="627">
      <contour>
        <pt x="1042" y="597" on="0"/>
        <pt x="1042" y="562" on="0"/>
        <pt x="1034" y="532" on="1"/>
        <pt x="162" y="532" on="1"/>
        <pt x="145" y="579" on="0"/>
        <pt x="162" y="627" on="1"/>
        <pt x="1034" y="627" on="1"/>
      </contour>
    </TTGlyph>
    <TTGlyph name="eng" xMin="122" yMin="-535" xMax="1105" yMax="1048">
      <contour>
        <pt x="739" y="897" on="1"/>
        <pt x="600" y="897" on="0"/>
        <pt x="431" y="820" on="1"/>
        <pt x="431" y="128" on="1"/>
        <pt x="591" y="94" on="1"/>
        <pt x="595" y="80" on="1"/>
        <pt x="584" y="0" on="1"/>
        <pt x="136" y="0" on="1"/>
        <pt x="129" y="9" on="1"/>
        <pt x="139" y="85" on="1"/>
        <pt x="271" y="128" on="1"/>
        <pt x="271" y="796" on="1"/>
        <pt x="132" y="857" on="1"/>
        <pt x="122" y="869" on="1"/>
        <pt x="132" y="923" on="1"/>
        <pt x="395" y="1029" on="1"/>
        <pt x="412" y="1020" on="1"/>
        <pt x="412" y="897" on="1"/>
        <pt x="642" y="1048" on="0"/>
        <pt x="788" y="1048" on="1"/>
        <pt x="938" y="1048" on="0"/>
        <pt x="1022" y="956" on="1"/>
        <pt x="1105" y="866" on="0"/>
        <pt x="1105" y="706" on="1"/>
        <pt x="1105" y="-14" on="1"/>
        <pt x="1105" y="-373" on="0"/>
        <pt x="770" y="-535" on="1"/>
        <pt x="741" y="-508" on="0"/>
        <pt x="737" y="-450" on="1"/>
        <pt x="817" y="-416" on="0"/>
        <pt x="876" y="-313" on="1"/>
        <pt x="944" y="-195" on="0"/>
        <pt x="944" y="-45" on="1"/>
        <pt x="944" y="659" on="1"/>
        <pt x="944" y="897" on="0"/>
      </contour>
    </TTGlyph>
    <TTGlyph name="eogonek" xMin="80" yMin="-488" xMax="948" yMax="1048">
      <contour>
        <pt x="621" y="-281" on="1"/>
        <pt x="621" y="-360" on="0"/>
        <pt x="704" y="-360" on="1"/>
        <pt x="744" y="-360" on="0"/>
        <pt x="839" y="-306" on="0"/>
        <pt x="840" y="-306" on="1"/>
        <pt x="846" y="-306" on="0"/>
        <pt x="859" y="-316" on="1"/>
        <pt x="885" y="-338" on="0"/>
        <pt x="885" y="-367" on="1"/>
        <pt x="818" y="-434" on="0"/>
        <pt x="679" y="-488" on="0"/>
        <pt x="587" y="-488" on="0"/>
        <pt x="526" y="-461" on="0"/>
        <pt x="504" y="-436" on="1"/>
        <pt x="459" y="-386" on="0"/>
        <pt x="459" y="-304" on="1"/>
        <pt x="459" y="-179" on="0"/>
        <pt x="608" y="-30" on="1"/>
        <pt x="579" y="-36" on="0"/>
        <pt x="551" y="-36" on="1"/>
        <pt x="341" y="-36" on="0"/>
        <pt x="210" y="112" on="1"/>
        <pt x="80" y="257" on="0"/>
        <pt x="80" y="474" on="1"/>
        <pt x="80" y="710" on="0"/>
        <pt x="235" y="880" on="1"/>
        <pt x="306" y="958" on="0"/>
        <pt x="492" y="1048" on="0"/>
        <pt x="683" y="1048" on="0"/>
        <pt x="816" y="981" on="0"/>
        <pt x="860" y="924" on="1"/>
        <pt x="948" y="812" on="0"/>
        <pt x="948" y="638" on="1"/>
        <pt x="948" y="589" on="0"/>
        <pt x="939" y="553" on="1"/>
        <pt x="928" y="528" on="0"/>
        <pt x="528" y="528" on="1"/>
        <pt x="395" y="528" on="0"/>
        <pt x="247" y="532" on="1"/>
        <pt x="249" y="341" on="0"/>
        <pt x="370" y="224" on="1"/>
        <pt x="478" y="120" on="0"/>
        <pt x="750" y="120" on="0"/>
        <pt x="871" y="227" on="1"/>
        <pt x="923" y="206" on="0"/>
        <pt x="928" y="153" on="1"/>
        <pt x="902" y="127" on="0"/>
        <pt x="874" y="106" on="1"/>
        <pt x="822" y="67" on="1"/>
        <pt x="802" y="46" on="1"/>
        <pt x="680" y="-84" on="0"/>
        <pt x="635" y="-206" on="1"/>
        <pt x="621" y="-245" on="0"/>
      </contour>
      <contour>
        <pt x="330" y="624" on="1"/>
        <pt x="630" y="624" on="0"/>
        <pt x="768" y="643" on="1"/>
        <pt x="768" y="750" on="0"/>
        <pt x="704" y="840" on="1"/>
        <pt x="634" y="937" on="0"/>
        <pt x="537" y="937" on="1"/>
        <pt x="431" y="937" on="0"/>
        <pt x="354" y="858" on="1"/>
        <pt x="271" y="775" on="0"/>
        <pt x="252" y="624" on="1"/>
      </contour>
    </TTGlyph>
    <TTGlyph name="equal" xMin="144" yMin="357" xMax="1041" yMax="797">
      <contour>
        <pt x="1041" y="767" on="0"/>
        <pt x="1041" y="733" on="0"/>
        <pt x="1033" y="703" on="1"/>
        <pt x="161" y="703" on="1"/>
        <pt x="144" y="750" on="0"/>
        <pt x="161" y="797" on="1"/>
        <pt x="1033" y="797" on="1"/>
      </contour>
      <contour>
        <pt x="1033" y="451" on="1"/>
        <pt x="1041" y="421" on="0"/>
        <pt x="1041" y="387" on="0"/>
        <pt x="1033" y="357" on="1"/>
        <pt x="161" y="357" on="1"/>
        <pt x="144" y="403" on="0"/>
        <pt x="161" y="451" on="1"/>
      </contour>
    </TTGlyph>
    <TTGlyph name="eth" xMin="78" yMin="-36" xMax="1098" yMax="1562">
      <contour>
        <pt x="413" y="1562" on="1"/>
        <pt x="559" y="1488" on="0"/>
        <pt x="671" y="1402" on="1"/>
        <pt x="936" y="1535" on="1"/>
        <pt x="969" y="1508" on="0"/>
        <pt x="977" y="1451" on="1"/>
        <pt x="748" y="1333" on="1"/>
        <pt x="950" y="1139" on="0"/>
        <pt x="1043" y="853" on="1"/>
        <pt x="1098" y="684" on="0"/>
        <pt x="1098" y="381" on="0"/>
        <pt x="1018" y="184" on="0"/>
        <pt x="947" y="113" on="1"/>
        <pt x="798" y="-36" on="0"/>
        <pt x="568" y="-36" on="1"/>
        <pt x="351" y="-36" on="0"/>
        <pt x="212" y="117" on="1"/>
        <pt x="78" y="265" on="0"/>
        <pt x="78" y="485" on="1"/>
        <pt x="78" y="742" on="0"/>
        <pt x="237" y="882" on="1"/>
        <pt x="377" y="1006" on="0"/>
        <pt x="593" y="1006" on="1"/>
        <pt x="724" y="1006" on="0"/>
        <pt x="800" y="958" on="1"/>
        <pt x="715" y="1182" on="0"/>
        <pt x="628" y="1272" on="1"/>
        <pt x="364" y="1137" on="0"/>
        <pt x="364" y="1140" on="1"/>
        <pt x="327" y="1170" on="0"/>
        <pt x="323" y="1225" on="1"/>
        <pt x="555" y="1342" on="1"/>
        <pt x="446" y="1434" on="0"/>
        <pt x="354" y="1488" on="1"/>
        <pt x="357" y="1527" on="0"/>
        <pt x="386" y="1548" on="1"/>
        <pt x="398" y="1558" on="0"/>
      </contour>
      <contour>
        <pt x="258" y="546" on="1"/>
        <pt x="258" y="444" on="0"/>
        <pt x="322" y="272" on="0"/>
        <pt x="373" y="209" on="1"/>
        <pt x="481" y="76" on="0"/>
        <pt x="613" y="76" on="1"/>
        <pt x="832" y="76" on="0"/>
        <pt x="898" y="274" on="1"/>
        <pt x="920" y="342" on="0"/>
        <pt x="920" y="544" on="0"/>
        <pt x="874" y="714" on="0"/>
        <pt x="833" y="773" on="1"/>
        <pt x="748" y="895" on="0"/>
        <pt x="607" y="895" on="1"/>
        <pt x="258" y="895" on="0"/>
      </contour>
    </TTGlyph>
    <TTGlyph name="exclam" xMin="133" yMin="-21" xMax="378" yMax="1508">
      <contour>
        <pt x="156" y="1498" on="1"/>
        <pt x="208" y="1508" on="0"/>
        <pt x="285" y="1508" on="0"/>
        <pt x="345" y="1498" on="1"/>
        <pt x="340" y="1228" on="0"/>
        <pt x="317" y="801" on="0"/>
        <pt x="302" y="524" on="0"/>
        <pt x="291" y="344" on="1"/>
        <pt x="272" y="337" on="0"/>
        <pt x="251" y="337" on="1"/>
        <pt x="228" y="337" on="0"/>
        <pt x="210" y="344" on="1"/>
        <pt x="166" y="1011" on="0"/>
      </contour>
      <contour>
        <pt x="155" y="29" on="0"/>
        <pt x="133" y="71" on="0"/>
        <pt x="133" y="115" on="0"/>
        <pt x="151" y="159" on="0"/>
        <pt x="167" y="176" on="1"/>
        <pt x="203" y="216" on="0"/>
        <pt x="271" y="216" on="0"/>
        <pt x="317" y="198" on="0"/>
        <pt x="336" y="182" on="1"/>
        <pt x="378" y="147" on="0"/>
        <pt x="378" y="82" on="0"/>
        <pt x="358" y="38" on="0"/>
        <pt x="341" y="20" on="1"/>
        <pt x="302" y="-21" on="0"/>
        <pt x="253" y="-21" on="1"/>
        <pt x="211" y="-21" on="0"/>
      </contour>
    </TTGlyph>
    <TTGlyph name="exclamdown" xMin="133" yMin="-258" xMax="378" yMax="1271">
      <component glyphName="exclam" x="0" y="1250" scalex="1.0" scaley="-0.999938964844" flags="0x1004"/>
    </TTGlyph>
    <TTGlyph name="f" xMin="53" yMin="0" xMax="798" yMax="1636">
      <contour>
        <pt x="647" y="1015" on="1"/>
        <pt x="652" y="990" on="0"/>
        <pt x="652" y="930" on="0"/>
        <pt x="629" y="897" on="1"/>
        <pt x="375" y="897" on="1"/>
        <pt x="375" y="128" on="1"/>
        <pt x="586" y="94" on="1"/>
        <pt x="590" y="80" on="1"/>
        <pt x="578" y="0" on="1"/>
        <pt x="80" y="0" on="1"/>
        <pt x="73" y="9" on="1"/>
        <pt x="83" y="85" on="1"/>
        <pt x="215" y="128" on="1"/>
        <pt x="215" y="897" on="1"/>
        <pt x="57" y="897" on="1"/>
        <pt x="53" y="917" on="0"/>
        <pt x="53" y="932" on="1"/>
        <pt x="53" y="954" on="0"/>
        <pt x="67" y="971" on="1"/>
        <pt x="215" y="1013" on="1"/>
        <pt x="215" y="1161" on="1"/>
        <pt x="215" y="1366" on="0"/>
        <pt x="322" y="1496" on="1"/>
        <pt x="437" y="1636" on="0"/>
        <pt x="635" y="1636" on="1"/>
        <pt x="711" y="1636" on="0"/>
        <pt x="798" y="1602" on="1"/>
        <pt x="796" y="1553" on="0"/>
        <pt x="750" y="1471" on="0"/>
        <pt x="724" y="1451" on="1"/>
        <pt x="642" y="1519" on="0"/>
        <pt x="509" y="1519" on="1"/>
        <pt x="422" y="1519" on="0"/>
        <pt x="387" y="1348" on="1"/>
        <pt x="375" y="1289" on="0"/>
        <pt x="375" y="1206" on="1"/>
        <pt x="375" y="1005" on="1"/>
        <pt x="480" y="1005" on="0"/>
      </contour>
    </TTGlyph>
    <TTGlyph name="ff" xMin="53" yMin="0" xMax="1481" yMax="1636">
      <component glyphName="f" x="0" y="0" flags="0x1004"/>
      <component glyphName="f" x="683" y="0" flags="0x1004"/>
    </TTGlyph>
    <TTGlyph name="fi" xMin="53" yMin="0" xMax="1279" yMax="1636">
      <component glyphName="f" x="0" y="0" flags="0x1004"/>
      <component glyphName="i" x="683" y="0" flags="0x1004"/>
    </TTGlyph>
    <TTGlyph name="five" xMin="76" yMin="-377" xMax="947" yMax="1133">
      <contour>
        <pt x="238" y="492" on="1"/>
        <pt x="395" y="530" on="0"/>
        <pt x="526" y="530" on="1"/>
        <pt x="699" y="530" on="0"/>
        <pt x="821" y="422" on="1"/>
        <pt x="947" y="310" on="0"/>
        <pt x="947" y="145" on="1"/>
        <pt x="947" y="-105" on="0"/>
        <pt x="764" y="-248" on="1"/>
        <pt x="600" y="-377" on="0"/>
        <pt x="367" y="-377" on="1"/>
        <pt x="235" y="-377" on="0"/>
        <pt x="145" y="-310" on="1"/>
        <pt x="104" y="-281" on="0"/>
        <pt x="76" y="-243" on="1"/>
        <pt x="81" y="-157" on="0"/>
        <pt x="158" y="-101" on="1"/>
        <pt x="289" y="-271" on="0"/>
        <pt x="459" y="-271" on="1"/>
        <pt x="585" y="-271" on="0"/>
        <pt x="666" y="-170" on="1"/>
        <pt x="745" y="-70" on="0"/>
        <pt x="745" y="84" on="1"/>
        <pt x="745" y="317" on="0"/>
        <pt x="549" y="384" on="1"/>
        <pt x="484" y="407" on="0"/>
        <pt x="312" y="407" on="0"/>
        <pt x="172" y="379" on="1"/>
        <pt x="142" y="391" on="0"/>
        <pt x="132" y="429" on="1"/>
        <pt x="212" y="1048" on="1"/>
        <pt x="513" y="1034" on="0"/>
        <pt x="721" y="1034" on="0"/>
        <pt x="778" y="1037" on="0"/>
        <pt x="794" y="1041" on="1"/>
        <pt x="821" y="1047" on="0"/>
        <pt x="825" y="1065" on="1"/>
        <pt x="846" y="1133" on="1"/>
        <pt x="870" y="1133" on="1"/>
        <pt x="905" y="1133" on="0"/>
        <pt x="924" y="1121" on="1"/>
        <pt x="879" y="872" on="1"/>
        <pt x="849" y="867" on="0"/>
        <pt x="549" y="867" on="0"/>
        <pt x="306" y="890" on="1"/>
      </contour>
    </TTGlyph>
    <TTGlyph name="fl" xMin="53" yMin="0" xMax="1276" yMax="1636">
      <component glyphName="f" x="0" y="0" flags="0x1004"/>
      <component glyphName="l" x="683" y="0" flags="0x1004"/>
    </TTGlyph>
    <TTGlyph name="florin" xMin="-30" yMin="-346" xMax="1235" yMax="1636">
      <contour>
        <pt x="992" y="980" on="1"/>
        <pt x="992" y="932" on="0"/>
        <pt x="959" y="897" on="1"/>
        <pt x="736" y="897" on="1"/>
        <pt x="641" y="130" on="1"/>
        <pt x="616" y="-74" on="0"/>
        <pt x="478" y="-208" on="1"/>
        <pt x="336" y="-346" on="0"/>
        <pt x="127" y="-346" on="1"/>
        <pt x="44" y="-346" on="0"/>
        <pt x="-30" y="-311" on="1"/>
        <pt x="-12" y="-209" on="0"/>
        <pt x="62" y="-160" on="1"/>
        <pt x="134" y="-229" on="0"/>
        <pt x="266" y="-229" on="1"/>
        <pt x="409" y="-229" on="0"/>
        <pt x="450" y="85" on="1"/>
        <pt x="552" y="897" on="1"/>
        <pt x="394" y="897" on="1"/>
        <pt x="394" y="928" on="1"/>
        <pt x="397" y="947" on="0"/>
        <pt x="412" y="971" on="1"/>
        <pt x="565" y="1013" on="1"/>
        <pt x="584" y="1161" on="1"/>
        <pt x="611" y="1367" on="0"/>
        <pt x="734" y="1496" on="1"/>
        <pt x="866" y="1636" on="0"/>
        <pt x="1062" y="1636" on="1"/>
        <pt x="1109" y="1636" on="0"/>
        <pt x="1209" y="1611" on="0"/>
        <pt x="1235" y="1602" on="1"/>
        <pt x="1213" y="1499" on="0"/>
        <pt x="1143" y="1451" on="1"/>
        <pt x="1068" y="1519" on="0"/>
        <pt x="947" y="1519" on="1"/>
        <pt x="859" y="1519" on="0"/>
        <pt x="804" y="1348" on="1"/>
        <pt x="785" y="1289" on="0"/>
        <pt x="775" y="1206" on="1"/>
        <pt x="749" y="1005" on="1"/>
        <pt x="855" y="1005" on="0"/>
        <pt x="992" y="1015" on="1"/>
        <pt x="993" y="1010" on="0"/>
        <pt x="993" y="1005" on="1"/>
        <pt x="993" y="994" on="1"/>
        <pt x="993" y="988" on="0"/>
      </contour>
    </TTGlyph>
    <TTGlyph name="four" xMin="83" yMin="-393" xMax="1138" yMax="1126">
      <contour>
        <pt x="1135" y="146" on="1"/>
        <pt x="1138" y="48" on="0"/>
        <pt x="1112" y="0" on="1"/>
        <pt x="885" y="0" on="1"/>
        <pt x="885" y="-337" on="1"/>
        <pt x="867" y="-353" on="0"/>
        <pt x="844" y="-364" on="1"/>
        <pt x="791" y="-389" on="0"/>
        <pt x="716" y="-393" on="1"/>
        <pt x="716" y="0" on="1"/>
        <pt x="130" y="0" on="1"/>
        <pt x="88" y="54" on="0"/>
        <pt x="83" y="110" on="1"/>
        <pt x="232" y="256" on="0"/>
        <pt x="416" y="556" on="1"/>
        <pt x="609" y="886" on="0"/>
        <pt x="720" y="1126" on="1"/>
        <pt x="819" y="1084" on="0"/>
        <pt x="899" y="1011" on="1"/>
        <pt x="867" y="955" on="0"/>
        <pt x="818" y="878" on="1"/>
        <pt x="670" y="654" on="0"/>
        <pt x="594" y="548" on="1"/>
        <pt x="337" y="199" on="0"/>
        <pt x="242" y="99" on="1"/>
        <pt x="716" y="113" on="1"/>
        <pt x="716" y="511" on="1"/>
        <pt x="767" y="546" on="0"/>
        <pt x="885" y="580" on="1"/>
        <pt x="885" y="117" on="1"/>
        <pt x="1028" y="126" on="0"/>
      </contour>
    </TTGlyph>
    <TTGlyph name="fraction" xMin="79" yMin="-125" xMax="1120" yMax="1636">
      <contour>
        <pt x="1040" y="1636" on="1"/>
        <pt x="1060" y="1633" on="0"/>
        <pt x="1108" y="1603" on="0"/>
        <pt x="1120" y="1585" on="1"/>
        <pt x="164" y="-125" on="1"/>
        <pt x="116" y="-115" on="0"/>
        <pt x="79" y="-78" on="1"/>
      </contour>
    </TTGlyph>
    <TTGlyph name="g" xMin="118" yMin="-536" xMax="1136" yMax="1074">
      <contour>
        <pt x="503" y="337" on="1"/>
        <pt x="413" y="286" on="0"/>
        <pt x="413" y="238" on="1"/>
        <pt x="413" y="184" on="0"/>
        <pt x="438" y="163" on="1"/>
        <pt x="484" y="124" on="0"/>
        <pt x="724" y="99" on="0"/>
        <pt x="912" y="66" on="0"/>
        <pt x="973" y="36" on="1"/>
        <pt x="1093" y="-24" on="0"/>
        <pt x="1093" y="-179" on="1"/>
        <pt x="1093" y="-336" on="0"/>
        <pt x="954" y="-434" on="1"/>
        <pt x="812" y="-536" on="0"/>
        <pt x="588" y="-536" on="1"/>
        <pt x="367" y="-536" on="0"/>
        <pt x="233" y="-432" on="1"/>
        <pt x="118" y="-343" on="0"/>
        <pt x="118" y="-231" on="1"/>
        <pt x="118" y="-154" on="0"/>
        <pt x="170" y="-115" on="1"/>
        <pt x="228" y="-63" on="1"/>
        <pt x="264" y="-32" on="0"/>
        <pt x="316" y="7" on="1"/>
        <pt x="229" y="56" on="0"/>
        <pt x="229" y="162" on="1"/>
        <pt x="229" y="225" on="0"/>
        <pt x="280" y="266" on="1"/>
        <pt x="304" y="286" on="0"/>
        <pt x="340" y="306" on="1"/>
        <pt x="420" y="355" on="1"/>
        <pt x="250" y="414" on="0"/>
        <pt x="197" y="554" on="1"/>
        <pt x="179" y="601" on="0"/>
        <pt x="179" y="753" on="0"/>
        <pt x="257" y="901" on="0"/>
        <pt x="320" y="952" on="1"/>
        <pt x="450" y="1056" on="0"/>
        <pt x="626" y="1056" on="1"/>
        <pt x="898" y="1045" on="1"/>
        <pt x="1037" y="1045" on="0"/>
        <pt x="1109" y="1074" on="1"/>
        <pt x="1136" y="1037" on="0"/>
        <pt x="1136" y="1003" on="1"/>
        <pt x="1136" y="954" on="0"/>
        <pt x="1125" y="926" on="1"/>
        <pt x="1104" y="912" on="0"/>
        <pt x="1041" y="912" on="0"/>
        <pt x="1001" y="924" on="0"/>
        <pt x="982" y="932" on="1"/>
        <pt x="933" y="955" on="0"/>
        <pt x="905" y="959" on="1"/>
        <pt x="898" y="944" on="1"/>
        <pt x="972" y="887" on="0"/>
        <pt x="994" y="770" on="1"/>
        <pt x="1001" y="737" on="0"/>
        <pt x="1001" y="626" on="0"/>
        <pt x="931" y="490" on="0"/>
        <pt x="872" y="440" on="1"/>
        <pt x="746" y="332" on="0"/>
        <pt x="576" y="332" on="1"/>
        <pt x="548" y="332" on="0"/>
      </contour>
      <contour>
        <pt x="604" y="440" on="1"/>
        <pt x="654" y="440" on="0"/>
        <pt x="736" y="469" on="0"/>
        <pt x="767" y="497" on="1"/>
        <pt x="836" y="559" on="0"/>
        <pt x="836" y="661" on="1"/>
        <pt x="836" y="787" on="0"/>
        <pt x="756" y="869" on="1"/>
        <pt x="680" y="946" on="0"/>
        <pt x="573" y="946" on="1"/>
        <pt x="470" y="946" on="0"/>
        <pt x="404" y="878" on="1"/>
        <pt x="340" y="812" on="0"/>
        <pt x="340" y="711" on="1"/>
        <pt x="340" y="590" on="0"/>
        <pt x="418" y="514" on="1"/>
        <pt x="494" y="440" on="0"/>
      </contour>
      <contour>
        <pt x="282" y="-200" on="1"/>
        <pt x="282" y="-238" on="0"/>
        <pt x="323" y="-322" on="0"/>
        <pt x="364" y="-356" on="1"/>
        <pt x="453" y="-431" on="0"/>
        <pt x="609" y="-431" on="1"/>
        <pt x="772" y="-431" on="0"/>
        <pt x="850" y="-358" on="1"/>
        <pt x="915" y="-298" on="0"/>
        <pt x="915" y="-194" on="1"/>
        <pt x="915" y="-129" on="0"/>
        <pt x="844" y="-102" on="1"/>
        <pt x="779" y="-76" on="0"/>
        <pt x="647" y="-62" on="1"/>
        <pt x="437" y="-38" on="0"/>
        <pt x="379" y="-21" on="1"/>
        <pt x="282" y="-88" on="0"/>
      </contour>
    </TTGlyph>
    <TTGlyph name="gbreve" xMin="118" yMin="-536" xMax="1136" yMax="1518">
      <component glyphName="g" x="0" y="0" flags="0x1204"/>
      <component glyphName="breve" x="239" y="0" flags="0x1004"/>
    </TTGlyph>
    <TTGlyph name="gcircumflex" xMin="118" yMin="-536" xMax="1136" yMax="1621">
      <component glyphName="g" x="0" y="0" flags="0x1204"/>
      <component glyphName="circumflex" x="162" y="0" flags="0x1004"/>
    </TTGlyph>
    <TTGlyph name="gcommaaccent" xMin="118" yMin="-536" xMax="1136" yMax="1787">
      <component glyphName="g" x="0" y="0" flags="0x1204"/>
      <component glyphName="comma" x="857" y="1448" scale="-0.999938964844" flags="0x1004"/>
    </TTGlyph>
    <TTGlyph name="gdotaccent" xMin="118" yMin="-536" xMax="1136" yMax="1364">
      <component glyphName="g" x="0" y="0" flags="0x1204"/>
      <component glyphName="period" x="358" y="1148" flags="0x1004"/>
    </TTGlyph>
    <TTGlyph name="germandbls" xMin="76" yMin="-36" xMax="1155" yMax="1656">
      <contour>
        <pt x="511" y="40" on="1"/>
        <pt x="518" y="132" on="0"/>
        <pt x="584" y="193" on="1"/>
        <pt x="669" y="111" on="0"/>
        <pt x="774" y="82" on="1"/>
        <pt x="810" y="72" on="0"/>
        <pt x="875" y="72" on="0"/>
        <pt x="931" y="89" on="0"/>
        <pt x="952" y="106" on="1"/>
        <pt x="998" y="145" on="0"/>
        <pt x="998" y="265" on="0"/>
        <pt x="959" y="336" on="0"/>
        <pt x="896" y="393" on="0"/>
        <pt x="855" y="416" on="1"/>
        <pt x="772" y="462" on="1"/>
        <pt x="663" y="523" on="0"/>
        <pt x="624" y="566" on="1"/>
        <pt x="546" y="652" on="0"/>
        <pt x="546" y="763" on="1"/>
        <pt x="546" y="852" on="0"/>
        <pt x="589" y="915" on="1"/>
        <pt x="611" y="947" on="0"/>
        <pt x="644" y="978" on="1"/>
        <pt x="721" y="1048" on="1"/>
        <pt x="834" y="1154" on="0"/>
        <pt x="834" y="1341" on="1"/>
        <pt x="834" y="1476" on="0"/>
        <pt x="684" y="1524" on="1"/>
        <pt x="634" y="1539" on="0"/>
        <pt x="514" y="1539" on="0"/>
        <pt x="439" y="1515" on="0"/>
        <pt x="417" y="1484" on="1"/>
        <pt x="377" y="1426" on="0"/>
        <pt x="377" y="1254" on="1"/>
        <pt x="377" y="0" on="1"/>
        <pt x="83" y="0" on="1"/>
        <pt x="76" y="9" on="1"/>
        <pt x="85" y="85" on="1"/>
        <pt x="216" y="128" on="1"/>
        <pt x="216" y="1181" on="1"/>
        <pt x="216" y="1386" on="0"/>
        <pt x="323" y="1516" on="1"/>
        <pt x="438" y="1656" on="0"/>
        <pt x="636" y="1656" on="1"/>
        <pt x="800" y="1656" on="0"/>
        <pt x="904" y="1563" on="1"/>
        <pt x="1000" y="1477" on="0"/>
        <pt x="1000" y="1353" on="1"/>
        <pt x="1000" y="1207" on="0"/>
        <pt x="894" y="1080" on="1"/>
        <pt x="863" y="1043" on="0"/>
        <pt x="831" y="1010" on="1"/>
        <pt x="753" y="941" on="0"/>
        <pt x="734" y="913" on="1"/>
        <pt x="701" y="864" on="0"/>
        <pt x="701" y="762" on="0"/>
        <pt x="740" y="691" on="0"/>
        <pt x="804" y="635" on="0"/>
        <pt x="844" y="612" on="1"/>
        <pt x="928" y="564" on="1"/>
        <pt x="1034" y="505" on="0"/>
        <pt x="1075" y="460" on="1"/>
        <pt x="1155" y="372" on="0"/>
        <pt x="1155" y="259" on="1"/>
        <pt x="1155" y="127" on="0"/>
        <pt x="1050" y="44" on="1"/>
        <pt x="949" y="-36" on="0"/>
        <pt x="616" y="-36" on="0"/>
      </contour>
    </TTGlyph>
    <TTGlyph name="grave" xMin="-49" yMin="1180" xMax="352" yMax="1589">
      <contour>
        <pt x="267" y="1180" on="1"/>
        <pt x="70" y="1301" on="0"/>
        <pt x="-49" y="1479" on="1"/>
        <pt x="-9" y="1564" on="0"/>
        <pt x="81" y="1589" on="1"/>
        <pt x="148" y="1467" on="0"/>
        <pt x="274" y="1332" on="1"/>
        <pt x="313" y="1291" on="0"/>
        <pt x="352" y="1256" on="1"/>
        <pt x="328" y="1190" on="0"/>
      </contour>
    </TTGlyph>
    <TTGlyph name="grave.cap" xMin="76" yMin="1609" xMax="476" yMax="2019">
      <contour>
        <pt x="205" y="2019" on="1"/>
        <pt x="298" y="1844" on="0"/>
        <pt x="476" y="1685" on="1"/>
        <pt x="462" y="1647" on="0"/>
        <pt x="421" y="1615" on="0"/>
        <pt x="391" y="1609" on="1"/>
        <pt x="250" y="1696" on="0"/>
        <pt x="136" y="1830" on="1"/>
        <pt x="101" y="1870" on="0"/>
        <pt x="76" y="1909" on="1"/>
        <pt x="114" y="1994" on="0"/>
      </contour>
    </TTGlyph>
    <TTGlyph name="greater" xMin="146" yMin="-43" xMax="1050" yMax="1189">
      <contour>
        <pt x="928" y="573" on="1"/>
        <pt x="146" y="1099" on="1"/>
        <pt x="153" y="1161" on="0"/>
        <pt x="207" y="1189" on="1"/>
        <pt x="1046" y="605" on="1"/>
        <pt x="1050" y="568" on="0"/>
        <pt x="1030" y="535" on="1"/>
        <pt x="219" y="-43" on="1"/>
        <pt x="163" y="-22" on="0"/>
        <pt x="153" y="45" on="1"/>
      </contour>
    </TTGlyph>
    <TTGlyph name="greaterequal" xMin="143" yMin="0" xMax="1055" yMax="1547">
      <component glyphName="lessequal" x="1193" y="0" scalex="-0.999938964844" scaley="1.0" flags="0x1004"/>
    </TTGlyph>
    <TTGlyph name="guillemotleft" xMin="61" yMin="169" xMax="1083" yMax="991">
      <component glyphName="guilsinglleft" x="0" y="0" flags="0x1004"/>
      <component glyphName="guilsinglleft" x="490" y="0" flags="0x1004"/>
    </TTGlyph>
    <TTGlyph name="guillemotright" xMin="109" yMin="146" xMax="1131" yMax="968">
      <component glyphName="guilsinglleft" x="702" y="1137" scale="-0.999938964844" flags="0x1004"/>
      <component glyphName="guilsinglleft" x="1192" y="1137" scale="-0.999938964844" flags="0x1004"/>
    </TTGlyph>
    <TTGlyph name="guilsinglleft" xMin="61" yMin="169" xMax="593" yMax="991">
      <contour>
        <pt x="66" y="553" on="1"/>
        <pt x="61" y="594" on="0"/>
        <pt x="83" y="624" on="1"/>
        <pt x="513" y="991" on="1"/>
        <pt x="576" y="974" on="0"/>
        <pt x="586" y="906" on="1"/>
        <pt x="254" y="586" on="1"/>
        <pt x="593" y="254" on="1"/>
        <pt x="586" y="227" on="0"/>
        <pt x="547" y="180" on="0"/>
        <pt x="526" y="169" on="1"/>
      </contour>
    </TTGlyph>
    <TTGlyph name="guilsinglright" xMin="89" yMin="180" xMax="621" yMax="1002">
      <component glyphName="guilsinglleft" x="682" y="1171" scale="-0.999938964844" flags="0x1004"/>
    </TTGlyph>
    <TTGlyph name="h" xMin="105" yMin="0" xMax="1287" yMax="1636">
      <contour>
        <pt x="743" y="897" on="1"/>
        <pt x="601" y="897" on="0"/>
        <pt x="432" y="820" on="1"/>
        <pt x="432" y="128" on="1"/>
        <pt x="593" y="94" on="1"/>
        <pt x="600" y="80" on="1"/>
        <pt x="585" y="0" on="1"/>
        <pt x="137" y="0" on="1"/>
        <pt x="133" y="9" on="1"/>
        <pt x="142" y="85" on="1"/>
        <pt x="272" y="128" on="1"/>
        <pt x="272" y="1418" on="1"/>
        <pt x="114" y="1458" on="1"/>
        <pt x="105" y="1470" on="1"/>
        <pt x="114" y="1524" on="1"/>
        <pt x="416" y="1636" on="1"/>
        <pt x="432" y="1627" on="1"/>
        <pt x="432" y="910" on="1"/>
        <pt x="643" y="1048" on="0"/>
        <pt x="791" y="1048" on="1"/>
        <pt x="940" y="1048" on="0"/>
        <pt x="1025" y="950" on="1"/>
        <pt x="1106" y="855" on="0"/>
        <pt x="1106" y="695" on="1"/>
        <pt x="1106" y="128" on="1"/>
        <pt x="1280" y="94" on="1"/>
        <pt x="1287" y="80" on="1"/>
        <pt x="1275" y="0" on="1"/>
        <pt x="800" y="0" on="1"/>
        <pt x="793" y="9" on="1"/>
        <pt x="802" y="85" on="1"/>
        <pt x="946" y="128" on="1"/>
        <pt x="946" y="647" on="1"/>
        <pt x="946" y="897" on="0"/>
      </contour>
    </TTGlyph>
    <TTGlyph name="hbar" xMin="71" yMin="0" xMax="1287" yMax="1636">
      <contour>
        <pt x="743" y="897" on="1"/>
        <pt x="601" y="897" on="0"/>
        <pt x="432" y="820" on="1"/>
        <pt x="432" y="128" on="1"/>
        <pt x="593" y="94" on="1"/>
        <pt x="600" y="80" on="1"/>
        <pt x="585" y="0" on="1"/>
        <pt x="137" y="0" on="1"/>
        <pt x="133" y="9" on="1"/>
        <pt x="142" y="85" on="1"/>
        <pt x="272" y="128" on="1"/>
        <pt x="272" y="1168" on="1"/>
        <pt x="92" y="1168" on="1"/>
        <pt x="71" y="1230" on="0"/>
        <pt x="106" y="1286" on="1"/>
        <pt x="272" y="1286" on="1"/>
        <pt x="272" y="1418" on="1"/>
        <pt x="114" y="1458" on="1"/>
        <pt x="105" y="1470" on="1"/>
        <pt x="114" y="1524" on="1"/>
        <pt x="416" y="1636" on="1"/>
        <pt x="432" y="1627" on="1"/>
        <pt x="432" y="1286" on="1"/>
        <pt x="624" y="1286" on="1"/>
        <pt x="638" y="1218" on="0"/>
        <pt x="609" y="1168" on="1"/>
        <pt x="432" y="1168" on="1"/>
        <pt x="432" y="910" on="1"/>
        <pt x="643" y="1048" on="0"/>
        <pt x="791" y="1048" on="1"/>
        <pt x="940" y="1048" on="0"/>
        <pt x="1025" y="950" on="1"/>
        <pt x="1106" y="855" on="0"/>
        <pt x="1106" y="695" on="1"/>
        <pt x="1106" y="128" on="1"/>
        <pt x="1280" y="94" on="1"/>
        <pt x="1287" y="80" on="1"/>
        <pt x="1275" y="0" on="1"/>
        <pt x="800" y="0" on="1"/>
        <pt x="793" y="9" on="1"/>
        <pt x="802" y="85" on="1"/>
        <pt x="946" y="128" on="1"/>
        <pt x="946" y="647" on="1"/>
        <pt x="946" y="897" on="0"/>
      </contour>
    </TTGlyph>
</ttFont>
